<?xml version="1.0" encoding="UTF-8"?>
<svg version="1.1" xmlns="http://www.w3.org/2000/svg" width="3508" height="2481">
<path d="M0 0 C1.0832959 0.19867676 2.1665918 0.39735352 3.28271484 0.60205078 C34.89447322 6.57878176 67.67926972 15.38811679 96 31 C97.57394531 31.84304688 97.57394531 31.84304688 99.1796875 32.703125 C115.81084648 41.94745753 130.50144092 54.89193083 142 70 C142.66515625 70.84949219 143.3303125 71.69898438 144.015625 72.57421875 C178.26732791 117.6812842 184.26372901 177.85464229 184.1875 232.6875 C184.18623108 233.64472961 184.18496216 234.60195923 184.18365479 235.5881958 C184.10553168 266.95300945 181.82743164 298.01919236 179.125 329.25 C179.05927292 330.01014278 178.99354584 330.77028557 178.92582703 331.55346298 C176.53396859 359.19890397 176.53396859 359.19890397 175.33203125 372.32763672 C173.16486109 396.02687859 171.62855974 419.56658989 171.5625 443.375 C171.55623596 444.42110443 171.54997192 445.46720886 171.54351807 446.54501343 C171.44939932 471.1126892 172.73219219 500.99462452 190.09375 520.33203125 C198.32167598 528.13986946 209.66820618 533.76620349 221.125 534.4375 C226.5555066 533.82437829 230.83375215 532.48613419 234.5078125 528.26953125 C239.46534294 520.83323559 241.38765916 512.54091125 242.1875 503.75 C242.26935547 502.99332031 242.35121094 502.23664063 242.43554688 501.45703125 C243.54695814 490.23084354 243.01546205 478.98546551 242.3125 467.75 C242.2728714 467.09225586 242.2332428 466.43451172 242.19241333 465.75683594 C241.52687025 454.7697296 240.67717189 443.79924591 239.7890625 432.828125 C233.21998267 351.47235299 233.21998267 351.47235299 236 318 C236.08233887 317.00758301 236.16467773 316.01516602 236.24951172 314.99267578 C238.78962135 286.52469836 244.77320291 257.40189689 262 234 C263.13888672 232.44732422 263.13888672 232.44732422 264.30078125 230.86328125 C273.95970526 218.51693157 289.89733611 204.49433421 306 202 C322.68139431 200.82769003 322.68139431 200.82769003 329 206 C348.28799713 223.47521544 349.39274104 256.52524108 350.81616211 280.82992554 C351.50995059 295.11041396 351.248215 309.44763111 351.19561768 323.7399292 C351.18491728 327.37814254 351.1851895 331.01631755 351.18563366 334.65454388 C351.1849334 356.51115178 350.86212281 378.34499403 350.29479218 400.19389439 C349.99250654 411.85864621 349.79871133 423.51838851 349.8125 435.1875 C349.81277191 436.10440613 349.81304382 437.02131226 349.81332397 437.96600342 C347.88535933 487.26606136 347.88535933 487.26606136 366 531 C369.77870197 534.26180406 373.78302663 535.68130053 378.8359375 535.37890625 C390.61892606 533.31581981 400.06704857 525.41863165 407 516 C422.27792755 493.45743177 429.75679993 466.9031302 436.12890625 440.703125 C436.31905807 439.92355312 436.5092099 439.14398125 436.7051239 438.34078598 C441.85471227 417.12190242 446.0853971 395.71123783 450.36462402 374.30358887 C460.46995268 323.74976507 460.46995268 323.74976507 465.81640625 300.5625 C466.08244911 299.40334265 466.08244911 299.40334265 466.35386658 298.22076797 C477.36298402 250.43444352 491.81720879 200.07559504 521 160 C521.63325195 159.12553223 521.63325195 159.12553223 522.27929688 158.23339844 C545.49332731 126.55410127 576.03377041 108.77075667 614.59765625 102.40625 C644.62633025 98.9701881 674.80785967 103.00043975 699.1875 121.875 C723.71016219 142.36921848 735.57519247 169.86114037 738.77734375 201.24560547 C742.60526788 248.59937746 725.74495526 296.21523967 695.20703125 332.3046875 C690.59380772 337.65508278 685.8716196 342.88288146 681 348 C680.31550781 348.72574219 679.63101563 349.45148438 678.92578125 350.19921875 C673.67438559 355.6210451 667.91325297 360.32095306 662 365 C661.03449219 365.78246094 660.06898437 366.56492187 659.07421875 367.37109375 C645.1892743 378.39789208 630.10875405 387.05315817 614.4375 395.25 C584.01670291 411.16812365 555.49124574 429.75513473 530.1484375 453.03515625 C528.17498918 454.83996444 526.16136168 456.57951465 524.125 458.3125 C515.76269904 465.62740165 508.10822775 473.5301632 501.20703125 482.234375 C498.89238262 485.13485505 496.48139073 487.93611156 494.0625 490.75 C470.83148299 518.65598947 452.46489958 555.06228681 455 592 C455.56641793 595.61976456 456.45959278 598.68410334 458 602 C458.35191406 602.7734375 458.70382812 603.546875 459.06640625 604.34375 C464.01512586 614.14319478 470.70703614 619.35041725 481 623 C495.30165574 627.27713069 508.84002528 624.09348874 523 621 C531.99272318 619.06447342 540.79430107 617.41085407 550 617 C551.24716797 616.938125 551.24716797 616.938125 552.51953125 616.875 C603.0285849 615.63361005 650.3486859 641.1508859 686.046875 675.11328125 C708.67095688 697.04225065 728.64120223 727.40997135 729.24047852 759.90014648 C729.2819358 769.0430719 729.1738324 779.65233521 725 788 C725.58265625 788.06469482 726.1653125 788.12938965 726.765625 788.19604492 C749.24984701 790.77015249 770.63941949 795.140084 787 812 C787.64582031 812.63679688 788.29164063 813.27359375 788.95703125 813.9296875 C800.36863469 825.91311421 804.41794782 842.34107842 804.14453125 858.47265625 C803.5301223 869.21651012 799.50761253 880.5144431 791.96484375 888.421875 C773.80382307 903.0084602 746.22900896 904.36814582 724 907 C724.20568604 907.5261792 724.41137207 908.0523584 724.62329102 908.59448242 C737.60410653 941.92282523 748.79612177 976.49731549 752.875 1012.1875 C754.5385161 1026.46349275 756.94092354 1034.69732767 767 1045 C782.11113972 1064.17040667 788.63546597 1084.68729086 787 1109 C784.18445237 1125.1809183 772.05941342 1138.37414842 759.125 1147.75 C757.43163388 1148.85658261 755.72218736 1149.93882867 754 1151 C752.9996875 1151.63292969 751.999375 1152.26585937 750.96875 1152.91796875 C717.14103931 1173.34895756 676.10405191 1179.98613269 637.64396667 1185.96025085 C596.50512641 1192.35911002 550.75485565 1200.35597266 520 1231 C519.06607422 1231.89912109 519.06607422 1231.89912109 518.11328125 1232.81640625 C505.84597713 1245.57991593 500.52997626 1263.4777158 500.73046875 1280.84765625 C502.1704858 1310.19421053 517.18961883 1338.58347454 534 1362 C534.5352832 1362.75023437 535.07056641 1363.50046875 535.62207031 1364.2734375 C544.96935726 1377.32058225 554.88784716 1389.59497598 565.69482422 1401.45996094 C567.15210971 1403.06572224 568.60223092 1404.67804074 570.04223633 1406.29931641 C575.52317675 1412.46449918 581.21678923 1418.36862494 587.0625 1424.1875 C587.90876953 1425.03763672 588.75503906 1425.88777344 589.62695312 1426.76367188 C594.03550173 1431.16542241 598.50740666 1435.42301477 603.23706055 1439.47827148 C604.78193524 1440.81177155 606.28185005 1442.19699518 607.7734375 1443.58984375 C613.18683863 1448.47490994 618.34892502 1451.95454291 625.01171875 1454.82421875 C625.78870621 1455.16345367 626.56569366 1455.5026886 627.3662262 1455.85220337 C636.20980185 1459.63342723 645.27761354 1462.75331058 654.38214111 1465.83892822 C658.6424719 1467.28360581 662.8958088 1468.7484184 667.14984131 1470.21151733 C669.38444026 1470.97984074 671.61934702 1471.74726947 673.85455322 1472.51382446 C849.70014139 1532.82300656 849.70014139 1532.82300656 906 1581 C906.72574219 1581.60328125 907.45148437 1582.2065625 908.19921875 1582.828125 C920.74779891 1593.4406385 934.73975655 1610.05090531 936.17700195 1627.09960938 C936.46543983 1637.66264116 936.69052723 1647.26494349 932 1657 C931.61070312 1657.80953125 931.22140625 1658.6190625 930.8203125 1659.453125 C914.37189335 1689.62478144 876.58798511 1712.7781807 844.66210938 1722.2565918 C785.42827356 1738.73369887 726.24401045 1718.43254228 674.37109375 1689.6484375 C658.39265672 1680.59831342 642.97636289 1670.61878751 628 1660 C627.39510742 1659.57380371 626.79021484 1659.14760742 626.16699219 1658.70849609 C617.99991176 1652.95233781 609.95490062 1647.04697557 602 1641 C600.98550781 1640.23171875 599.97101563 1639.4634375 598.92578125 1638.671875 C591.40370206 1632.93548004 584.04395398 1627.01646684 576.71875 1621.03125 C573.76888609 1618.62150201 570.79819922 1616.24029419 567.8125 1613.875 C563.43024887 1610.38243409 559.15612494 1606.77137929 554.89038086 1603.13842773 C551.42308292 1600.1892611 547.91686906 1597.29726874 544.375 1594.4375 C539.66713832 1590.60980376 535.20072831 1586.56601715 530.73828125 1582.45703125 C528.11839954 1580.10623867 525.43447781 1577.88749541 522.6875 1575.6875 C517.63003134 1571.61122355 512.91490655 1567.24506037 508.18994141 1562.79541016 C504.74908482 1559.57260294 501.25037818 1556.50513088 497.5625 1553.5625 C492.99730863 1549.91169159 488.74305471 1546.01355682 484.5 1542 C479.36793412 1537.14635336 474.13170524 1532.55195389 468.609375 1528.140625 C465.81568484 1525.84879535 463.15791222 1523.44768188 460.5 1521 C456.13628242 1516.99325791 451.66676874 1513.18194605 447.0546875 1509.46484375 C444.8168842 1507.65914825 442.59518101 1505.84020688 440.3828125 1504.00390625 C412.0884588 1479.11117489 412.0884588 1479.11117489 377.3984375 1468.6953125 C373.63955048 1469.17282583 371.72892996 1470.40101909 369 1473 C355.58824214 1493.073227 363.52211524 1526.94238469 367 1549 C367.43901909 1551.83941242 367.87400571 1554.67943762 368.30859375 1557.51953125 C368.47218636 1558.58806839 368.47218636 1558.58806839 368.63908386 1559.67819214 C368.85875732 1561.11364403 369.07827573 1562.54911965 369.29763794 1563.98461914 C369.51526936 1565.40755165 369.73342641 1566.83040386 369.95211792 1568.25317383 C373.34150011 1590.33202888 375.57222412 1612.63123879 375 1635 C374.98743164 1635.66193359 374.97486328 1636.32386719 374.96191406 1637.00585938 C374.33584837 1665.34491471 369.7277935 1696.5273778 349.34765625 1717.81640625 C336.59501497 1729.67784797 322.08808775 1733.54046464 304.9453125 1733.24609375 C276.52465234 1731.4733199 250.4630287 1717.72658682 228 1701 C227.44199707 1700.59072266 226.88399414 1700.18144531 226.30908203 1699.75976562 C214.40705631 1691.00506267 203.07598083 1681.38328623 192.78125 1670.78125 C190.9367041 1668.86596163 190.9367041 1668.86596163 188.375 1666.9375 C185.50873939 1664.59923477 183.27432852 1661.93822438 180.87890625 1659.12890625 C179.0408677 1657.0463054 177.12003653 1655.11907613 175.125 1653.1875 C171.25323584 1649.36765605 167.86374347 1645.26479954 164.46484375 1641.0234375 C162.29640364 1638.36357594 160.07107521 1635.78041397 157.80517578 1633.20483398 C137.85816408 1610.42269746 121.05407407 1584.2210514 106 1558 C105.57847656 1557.26587891 105.15695312 1556.53175781 104.72265625 1555.77539062 C101.74360533 1550.55509111 98.85571225 1545.28859449 96 1540 C95.54157715 1539.15695312 95.0831543 1538.31390625 94.61083984 1537.4453125 C84.23314817 1518.28433592 75.24199401 1498.5203681 67.04345703 1478.33886719 C57.35623986 1454.5223769 45.86536161 1430.58553966 21 1420 C11.44311558 1417.07442314 2.97087418 1419.93506902 -5.640625 1424.35546875 C-45.12967002 1446.9465942 -63.49987252 1505.77757098 -74.8208313 1546.72842407 C-85.30089142 1585.25942281 -91.22199858 1625.11254109 -91.25 1665.0625 C-91.25067474 1665.93583984 -91.25134949 1666.80917969 -91.25204468 1667.70898438 C-91.21490496 1698.20937193 -86.9721486 1727.31273386 -77.80908203 1756.41894531 C-55.33062398 1828.12753267 -38.31993669 1921.96295883 -74.9375 1992.0625 C-78.31313907 1998.27095769 -82.37155766 2003.67826778 -87 2009 C-87.46664063 2009.60972656 -87.93328125 2010.21945312 -88.4140625 2010.84765625 C-98.98727375 2024.41970227 -116.1340603 2032.12644666 -132.8359375 2034.55859375 C-168.90901706 2038.76690823 -210.1766384 2023.89285461 -238.5859375 2001.9921875 C-260.00224356 1984.31853687 -272.38484343 1963.67477141 -275.33203125 1935.8671875 C-282.23314434 1858.02263182 -241.07203478 1778.46257746 -211.89453125 1708.71484375 C-154.50891733 1581.58465451 -154.50891733 1581.58465451 -158.46166992 1419.62451172 C-163.76287345 1407.16630313 -171.30117131 1396.3380084 -180 1386 C-180.73283203 1385.06607422 -180.73283203 1385.06607422 -181.48046875 1384.11328125 C-189.1298765 1374.5783052 -201.66828383 1365.16850094 -214 1363 C-225.4973445 1361.83684453 -235.02182112 1366.06504791 -244 1373 C-296.20188928 1417.27535512 -316.0168952 1507.8015104 -336.98486328 1570.02685547 C-341.6652152 1583.91060722 -346.40798279 1597.77318673 -351.16064453 1611.63232422 C-352.44844371 1615.38815131 -353.73272514 1619.14516206 -355.01513672 1622.90283203 C-367.61455489 1659.79909091 -380.3319205 1696.70190407 -397 1732 C-397.4959668 1733.0523584 -397.99193359 1734.1047168 -398.50292969 1735.18896484 C-406.67316604 1752.37164882 -415.68136936 1768.42865681 -428 1783 C-428.78375 1784.03125 -429.5675 1785.0625 -430.375 1786.125 C-440.35735196 1797.05805215 -450.76624994 1802.38206097 -465.484375 1803.12548828 C-488.87750102 1803.95677972 -512.24787773 1802.24697714 -530.37109375 1785.85546875 C-550.83714196 1765.04429325 -550.41605468 1732.20830936 -550.375 1705.0625 C-550.37512085 1703.82779968 -550.3752417 1702.59309937 -550.37536621 1701.32098389 C-550.33820004 1674.27654149 -548.5321158 1647.44908783 -546.29150391 1620.51043701 C-545.5155919 1611.16651342 -544.76606593 1601.82044696 -544.01745605 1592.4743042 C-543.76015676 1589.31231786 -543.49111352 1586.15152665 -543.21972656 1582.99072266 C-541.91118697 1567.37315223 -540.99039033 1551.56198585 -542.75 1535.9375 C-542.83797852 1535.12571289 -542.92595703 1534.31392578 -543.01660156 1533.47753906 C-545.82055527 1509.51900389 -552.70427894 1486.37740998 -569 1468 C-569.55300781 1467.36449219 -570.10601563 1466.72898437 -570.67578125 1466.07421875 C-582.10671226 1453.77028108 -598.81568334 1447.14305833 -615.2890625 1445.71484375 C-631.2462844 1445.26835214 -647.25578215 1450.20805538 -659.625 1460.5 C-680.20745236 1480.53842278 -678.76000052 1513.74217896 -681.58203125 1540.5234375 C-688.3807646 1604.93443493 -697.703306 1679.60869498 -750.73046875 1724.1640625 C-751.47941406 1724.76992187 -752.22835937 1725.37578125 -753 1726 C-753.94488281 1726.77085938 -754.88976563 1727.54171875 -755.86328125 1728.3359375 C-785.40847796 1751.99881176 -822.89620116 1766.82661383 -861 1764 C-875.39764779 1762.24904687 -888.10946562 1756.59877392 -899 1747 C-899.72703125 1746.36707031 -900.4540625 1745.73414063 -901.203125 1745.08203125 C-920.59766397 1727.00984721 -929.9910592 1699.18786849 -931.12475586 1673.1328125 C-931.84868109 1643.68867586 -928.14434697 1619.4709228 -907.8125 1597.0625 C-906.67748047 1595.87333984 -906.67748047 1595.87333984 -905.51953125 1594.66015625 C-903.50359541 1592.53170306 -901.59030676 1590.37221887 -899.68359375 1588.1484375 C-896.09683159 1584.0290501 -892.25369963 1580.27322222 -888.25 1576.5625 C-887.5489917 1575.90926758 -886.8479834 1575.25603516 -886.12573242 1574.58300781 C-881.45397394 1570.26204628 -876.67297604 1566.13133463 -871.6953125 1562.1640625 C-868.63938419 1559.71046209 -865.66507314 1557.17244469 -862.6875 1554.625 C-857.10588072 1549.8713913 -851.38403757 1545.32212741 -845.6015625 1540.81640625 C-841.87439923 1537.9106031 -838.18525028 1534.9586751 -834.5 1532 C-830.23112533 1528.57276651 -825.94644181 1525.16900602 -821.62817383 1521.80419922 C-815.87657003 1517.32049527 -810.23900023 1512.73269151 -804.69628906 1507.99291992 C-801.21815664 1505.01921278 -797.69017687 1502.11965123 -794.125 1499.25 C-790.41321904 1496.23115644 -786.98136967 1493.10714435 -783.6640625 1489.6640625 C-781.91570856 1487.91570856 -780.07980729 1486.34074438 -778.1875 1484.75 C-763.84604645 1472.28758083 -753.91244134 1457.09021254 -746 1440 C-745.55350098 1439.03884277 -745.10700195 1438.07768555 -744.64697266 1437.08740234 C-742.53818463 1432.54437444 -740.43201566 1428.00019269 -738.33618164 1423.45117188 C-734.38466939 1414.8888428 -730.28825355 1406.40530728 -726.13586426 1397.93887329 C-704.90278356 1354.58746602 -684.89884127 1309.43007806 -675 1262 C-674.73316406 1260.72511719 -674.46632813 1259.45023438 -674.19140625 1258.13671875 C-671.00793963 1239.80434203 -670.5138911 1217.23724767 -681.234375 1201.18359375 C-686.48154219 1194.69428743 -692.72562341 1188.85314243 -701.26953125 1187.69140625 C-714.12153294 1187.02350695 -724.60671205 1193.89474759 -734 1202 C-743.59928905 1210.84591249 -752.9885883 1220.11947309 -761.0078125 1230.44140625 C-763.39172741 1233.50310089 -765.9102392 1236.43166314 -768.4375 1239.375 C-772.96180158 1244.68276098 -777.25207342 1250.13676892 -781.47265625 1255.6875 C-785.45463103 1260.92423997 -789.54559467 1266.07596454 -793.61767578 1271.24267578 C-794.97656619 1272.97020902 -796.33083709 1274.70125465 -797.68359375 1276.43359375 C-804.19874226 1284.76976122 -810.83422105 1293.00235946 -817.52783203 1301.19580078 C-818.82271511 1302.78273046 -820.11290478 1304.37348737 -821.40234375 1305.96484375 C-834.73509688 1322.38365909 -848.8541234 1337.91034908 -863.74859619 1352.92382812 C-865.14223581 1354.32934989 -866.53188041 1355.73882939 -867.92138672 1357.1484375 C-873.96797541 1363.20272605 -880.29762479 1368.68657137 -887 1374 C-888.19284169 1374.97611305 -889.38447777 1375.95370376 -890.57421875 1376.93359375 C-902.65588135 1386.65046417 -915.05401476 1395.3433597 -930 1400 C-931.12728516 1400.36544922 -931.12728516 1400.36544922 -932.27734375 1400.73828125 C-945.31485235 1404.30720819 -959.59231283 1402.41412811 -971.5625 1396.4375 C-996.79029373 1381.6638136 -1008.64443797 1352.31538059 -1015.6953125 1325.33984375 C-1019.59773394 1309.35967495 -1021.36169236 1293.34390967 -1021.31567383 1276.91870117 C-1021.31250616 1274.56707605 -1021.33612767 1272.21670637 -1021.36132812 1269.86523438 C-1021.44737383 1249.28999053 -1018.40957367 1227.02161047 -1003.703125 1211.58984375 C-990.26973678 1198.74671046 -973.99130007 1189.26233167 -958 1180 C-957.09040527 1179.4730957 -956.18081055 1178.94619141 -955.24365234 1178.40332031 C-945.56478923 1172.81214061 -935.86091797 1167.26531451 -926 1162 C-926.36351562 1161.46632813 -926.72703125 1160.93265625 -927.1015625 1160.3828125 C-928.17352723 1158.79410579 -929.23511389 1157.19837163 -930.2890625 1155.59765625 C-931.34864257 1153.98893309 -932.42388152 1152.39026274 -933.5234375 1150.80859375 C-943.31725166 1135.91059602 -946.56881015 1117.5383131 -946 1100 C-946.99257813 1100.03480469 -947.98515625 1100.06960938 -949.0078125 1100.10546875 C-965.8892116 1100.52195752 -981.43492251 1097.36040652 -994.8125 1086.375 C-1006.09455955 1075.49286421 -1012.76239482 1062.07995012 -1013.25 1046.375 C-1013.0347272 1028.93790343 -1004.76750855 1015.05531727 -992.87890625 1002.81640625 C-977.97037145 988.78323496 -959.89237958 982.3330549 -939.60546875 982.73828125 C-927.37014612 983.26203175 -916.25142545 987.45518899 -904.9375 991.875 C-903.34905273 992.49060791 -903.34905273 992.49060791 -901.72851562 993.11865234 C-890.39452925 997.71881158 -883.71420157 1003.07177895 -878 1014 C-875.25577379 1020.52381981 -873.73129481 1026.69957863 -874.359375 1033.7890625 C-875.81798687 1046.51800457 -875.81798687 1046.51800457 -871.42578125 1057.875 C-868.26560257 1060.75114449 -864.66723275 1062.83129596 -861 1065 C-859.46431801 1066.35647761 -857.95972585 1067.74960183 -856.5 1069.1875 C-844.30748541 1080.06731685 -826.65486917 1089.76542438 -810 1090 C-799.99257276 1089.28706983 -791.01953129 1086.63510072 -784.0625 1079.125 C-777.02173298 1070.14137981 -777.09652659 1061.80528058 -778.24609375 1050.6015625 C-779.24426621 1045.559248 -781.924947 1041.45919012 -784.66015625 1037.19921875 C-786 1035 -786 1035 -787 1032 C-788.31774768 1031.30303281 -789.65387173 1030.64043805 -791 1030 C-792.29981807 1028.84429822 -793.56798755 1027.65255653 -794.8125 1026.4375 C-807.99514504 1014.52989768 -824.64229297 1008.5206819 -841.125 1002.6875 C-874.31160774 990.90808859 -900.6507152 977.03585317 -916.98828125 944.37890625 C-920.11475055 937.80324476 -922.21632445 931.044769 -924 924 C-924.36738281 922.58460938 -924.36738281 922.58460938 -924.7421875 921.140625 C-926.9515668 910.66877244 -926.17587542 899.6445214 -926 889 C-931.15470031 888.30065921 -936.3101455 887.60717425 -941.46630859 886.91870117 C-943.21391144 886.68456411 -944.96131467 886.44893128 -946.70849609 886.21166992 C-962.4707248 884.07296247 -978.0149044 882.78743491 -993.9375 882.8125 C-994.65477264 882.81310425 -995.37204529 882.8137085 -996.11105347 882.81433105 C-1035.39311956 882.90348863 -1072.09092959 890.89567158 -1108.75 904.625 C-1120.66215747 909.06659261 -1132.60016428 912.64130245 -1145.0625 915.1875 C-1145.816521 915.3424292 -1146.57054199 915.4973584 -1147.34741211 915.65698242 C-1162.25249559 918.54736967 -1176.85433825 919.40784709 -1192 919.375 C-1192.94610138 919.37445618 -1193.89220276 919.37391235 -1194.86697388 919.37335205 C-1209.58965054 919.33449979 -1223.66387335 918.64674016 -1238 915 C-1239.31315186 914.67056396 -1239.31315186 914.67056396 -1240.65283203 914.33447266 C-1272.87346042 905.98841438 -1300.77427132 888.57994568 -1318.1171875 859.5390625 C-1336.65894755 825.90736549 -1333.26287425 784.34500783 -1323.06591797 748.73828125 C-1310.33842159 706.63821567 -1288.66500926 669.11446223 -1264 633 C-1263.26885986 631.92830566 -1263.26885986 631.92830566 -1262.52294922 630.83496094 C-1245.92674383 606.66236167 -1225.51709063 582.64558451 -1202 565 C-1201.3920459 564.53207031 -1200.7840918 564.06414063 -1200.15771484 563.58203125 C-1148.64525209 524.05471023 -1084.77241943 511.01286643 -1021 519 C-961.07061925 527.21883958 -905.995393 548.50682368 -852 575 C-850.78406078 575.59432801 -849.56807647 576.18856378 -848.35205078 576.78271484 C-832.44515855 584.56513783 -816.84472145 592.69514261 -801.5078125 601.5625 C-798.48715775 603.29396565 -795.43946996 604.97176046 -792.38525391 606.64306641 C-780.67990027 613.05384207 -769.23989289 619.91372371 -757.77880859 626.74804688 C-753.83040363 629.10204512 -749.87845406 631.45005175 -745.92578125 633.796875 C-745.24752792 634.19958115 -744.5692746 634.60228729 -743.87046814 635.01719666 C-741.8095394 636.2407333 -739.74853602 637.46414409 -737.6875 638.6875 C-737.00678436 639.0915506 -736.32606873 639.4956012 -735.62472534 639.91189575 C-734.9479776 640.31358978 -734.27122986 640.71528381 -733.57397461 641.12915039 C-732.90510727 641.52617661 -732.23623993 641.92320282 -731.54710388 642.33226013 C-730.22239103 643.1185668 -728.89765381 643.90483241 -727.57289124 644.6910553 C-723.67708895 647.00340585 -719.78333522 649.31916499 -715.890625 651.63671875 C-711.4580967 654.27270777 -707.01682612 656.89321107 -702.56591797 659.49804688 C-700.86015263 660.49651199 -699.15603683 661.49780071 -697.45361328 662.50195312 C-652.87173528 688.7116671 -604.35970609 711.61589141 -554 724 C-553.13793945 724.21237305 -552.27587891 724.42474609 -551.38769531 724.64355469 C-525.37465024 730.86031751 -497.64832092 732.64485817 -472 724 C-470.783125 723.59007812 -469.56625 723.18015625 -468.3125 722.7578125 C-452.5796788 716.95633468 -439.72240688 707.88693189 -428 696 C-427.21367188 695.22398437 -426.42734375 694.44796875 -425.6171875 693.6484375 C-395.71147096 662.45645358 -378.38910447 613.66412452 -379.04736328 570.92480469 C-380.07338377 543.11121026 -387.77985361 516.40974741 -401 492 C-401.34256836 491.35111816 -401.68513672 490.70223633 -402.03808594 490.03369141 C-412.86512751 469.54505402 -427.08799589 451.75469591 -443 435 C-443.78503906 434.17242188 -444.57007813 433.34484375 -445.37890625 432.4921875 C-450.8809324 426.842522 -456.81030968 421.87747597 -463 417 C-463.98742188 416.20722656 -464.97484375 415.41445313 -465.9921875 414.59765625 C-471.93449852 409.90752798 -478.02643865 405.46913384 -484.3125 401.25 C-484.93850098 400.81445801 -485.56450195 400.37891602 -486.20947266 399.93017578 C-497.24329177 392.6939413 -510.62586672 389.31222062 -523.27349854 386.01785278 C-525.60104027 385.41116317 -527.92547245 384.79354902 -530.24951172 384.17358398 C-533.66764494 383.26271648 -537.08676003 382.35569459 -540.50683594 381.45214844 C-660.89414567 349.63995778 -660.89414567 349.63995778 -685 327 C-685.94875 326.11828125 -686.8975 325.2365625 -687.875 324.328125 C-695.3926063 317.16183128 -701.80417864 309.31568727 -708 301 C-708.41991211 300.44618652 -708.83982422 299.89237305 -709.27246094 299.32177734 C-729.40948493 272.70034867 -742.86556719 242.02318872 -748 209 C-748.15082031 208.03964844 -748.30164062 207.07929688 -748.45703125 206.08984375 C-748.77899726 203.38103636 -748.91806399 200.72778638 -749 198 C-749.02578125 197.26152832 -749.0515625 196.52305664 -749.078125 195.76220703 C-750.29183294 156.30911343 -739.73402151 117.81702234 -713 88 C-712.54512207 87.48099121 -712.09024414 86.96198242 -711.62158203 86.42724609 C-704.96591244 78.84205098 -698.08819111 72.08800331 -690 66 C-689.22366211 65.40324463 -689.22366211 65.40324463 -688.43164062 64.79443359 C-667.01496598 48.39929108 -642.43325336 38.82151617 -616 34 C-614.92733887 33.80301514 -614.92733887 33.80301514 -613.83300781 33.60205078 C-556.00073904 23.59855548 -484.56304675 39.82447484 -432 63 C-430.85047852 63.50249268 -430.85047852 63.50249268 -429.67773438 64.01513672 C-407.02026798 74.00610467 -386.48743081 87.55877402 -368 104 C-367.25290771 104.65452148 -367.25290771 104.65452148 -366.49072266 105.32226562 C-310.04910266 154.84854901 -288.42168549 226.96490751 -271.5078125 297.5 C-271.05052513 299.40495995 -271.05052513 299.40495995 -270.58399963 301.34840393 C-269.07130535 307.65759874 -267.56866564 313.96889292 -266.0847168 320.28491211 C-255.6615167 364.73987524 -255.6615167 364.73987524 -233.00610352 403.8671875 C-229.32446172 408.48377161 -225.99245427 413.29579352 -222.6875 418.1875 C-216.78640736 426.90532042 -210.67218946 435.44848014 -204.47851562 443.95996094 C-202.72093836 446.38504608 -200.9831561 448.82364597 -199.24951172 451.26586914 C-188.6299748 466.2210253 -177.77860352 480.93231978 -166 495 C-165.46568359 495.63873047 -164.93136719 496.27746094 -164.38085938 496.93554688 C-158.82807476 503.54920207 -153.24782595 510.0271395 -147 516 C-144.56470721 518.41555784 -142.14979374 520.84308578 -139.78125 523.32421875 C-120.66651234 543.12630142 -93.21305397 560.66825054 -64.9921875 561.34375 C-44.08169706 561.55337898 -23.25917505 556.73704519 -6.88671875 542.890625 C5.38369782 530.59480384 8.32155818 515.33856736 8.31030273 498.68676758 C7.92098035 469.96413653 -4.05026679 442.65054114 -16 417 C-16.45133301 416.02047363 -16.90266602 415.04094727 -17.36767578 414.03173828 C-23.53357568 400.68006532 -30.23457164 387.69112646 -37.40673828 374.85400391 C-39.04947814 371.91136999 -40.67959978 368.9619814 -42.30859375 366.01171875 C-50.9065853 350.49252238 -59.88910385 335.22112532 -69 320 C-70.02744588 318.27870679 -71.05479775 316.55735746 -72.08203125 314.8359375 C-77.74210324 305.36537106 -83.46105551 295.9305309 -89.1875 286.5 C-89.54589966 285.9097403 -89.90429932 285.31948059 -90.27355957 284.71133423 C-93.93945071 278.67471724 -97.60836967 272.63997593 -101.28707886 266.61116028 C-154.99868614 178.5811672 -154.99868614 178.5811672 -161 129 C-161.0928125 128.23333008 -161.185625 127.46666016 -161.28125 126.67675781 C-164.84217991 94.51393018 -160.40641548 60.30011173 -139.70556641 34.37915039 C-121.05732671 11.77856535 -93.69655386 0.20767815 -64.875 -2.80371094 C-43.40647449 -4.26946285 -21.16682417 -3.89850659 0 0 Z " fill="#020202" transform="translate(1825,234)"/>
<path d="M0 0 C13.58816596 7.01897906 21.37476549 17.2623933 26.16723633 31.73828125 C28.73825907 40.17482147 29.68255106 47.99642077 29.60473633 56.80078125 C29.59555176 58.61618408 29.59555176 58.61618408 29.58618164 60.46826172 C29.34886222 74.54860524 27.02210173 88.20662938 24.58520508 102.04296875 C19.79043752 129.50687544 16.71915417 161.11888821 32.21801758 186.03515625 C36.79203474 192.37828225 42.70436688 197.2506581 50.16723633 199.73828125 C60.75225579 200.77448514 68.09966007 199.66444304 77.16723633 193.73828125 C77.84399414 193.30515625 78.52075195 192.87203125 79.21801758 192.42578125 C89.59046839 184.6981904 94.0365384 170.27946859 96.41723633 158.11328125 C97.33155175 151.36204149 97.37659205 144.60676179 97.41723633 137.80078125 C97.42658203 136.72940918 97.43592773 135.65803711 97.44555664 134.55419922 C97.42322428 128.89294522 97.05108431 123.48179018 96.17114258 117.88671875 C95.00316685 110.33565635 94.83572653 102.93131433 94.85473633 95.30078125 C94.83862305 94.01107422 94.82250977 92.72136719 94.8059082 91.39257812 C94.79693268 73.46845104 98.44003785 57.99101935 111.16723633 44.73828125 C117.58948656 39.38824836 124.38572367 36.14851197 132.93676758 36.4296875 C142.63579152 37.77158398 151.20250527 42.54880159 157.13989258 50.3203125 C166.11841366 63.95012689 169.27349108 77.13163352 169.37036133 93.27734375 C169.37723969 94.06914032 169.38411804 94.86093689 169.39120483 95.67672729 C169.40834236 98.23895913 169.41466807 100.80099502 169.41723633 103.36328125 C169.41890808 104.24056885 169.42057983 105.11785645 169.42230225 106.02172852 C169.42368006 118.15419767 169.00787494 130.16499982 167.79223633 142.23828125 C167.60322754 144.12087646 167.60322754 144.12087646 167.41040039 146.04150391 C166.74050203 152.09815351 165.83605032 157.87566512 164.16723633 163.73828125 C164.77051758 163.79886719 165.37379883 163.85945313 165.99536133 163.921875 C166.79458008 164.00566406 167.59379883 164.08945313 168.41723633 164.17578125 C169.20614258 164.25699219 169.99504883 164.33820313 170.80786133 164.421875 C172.99088272 164.71463118 175.04455452 165.15892544 177.16723633 165.73828125 C177.27036133 164.58328125 177.37348633 163.42828125 177.47973633 162.23828125 C178.0490442 157.73916768 179.39406396 153.89254273 181.16723633 149.73828125 C181.47556396 149.00770508 181.7838916 148.27712891 182.1015625 147.52441406 C194.70831821 118.42468011 215.39496547 94.90453966 245.16723633 82.73828125 C266.5885594 75.01065832 289.32738808 73.78670307 310.44848633 83.296875 C321.21478514 89.00486963 327.87332361 97.24628251 332.24536133 108.53125 C335.20244282 118.81838519 333.08675974 127.48489197 328.16723633 136.73828125 C317.97485913 155.09045176 300.78545635 162.48839752 281.45776367 168.14331055 C272.12406817 170.56776332 262.72034062 171.27568812 253.12817383 171.86132812 C241.20865464 172.71602233 230.18350543 175.00879346 221.85473633 184.11328125 C217.70446297 189.36049334 215.47797777 194.61456068 215.76489258 201.33984375 C216.72015432 207.03431667 219.00820083 211.8993786 223.43286133 215.66796875 C231.99061605 221.43755177 239.56821688 221.95221852 249.81958008 220.06640625 C250.98618164 219.793125 252.1527832 219.51984375 253.35473633 219.23828125 C261.20046645 217.41083235 268.51607397 215.73587034 275.72973633 220.11328125 C280.99380876 223.85613524 280.99380876 223.85613524 281.57348633 226.8046875 C281.84517727 234.0384589 280.06759721 238.41959688 275.16723633 243.73828125 C268.72638561 249.89112645 260.7282243 252.62394443 252.57202148 255.76025391 C240.30419884 260.53350198 229.906593 267.02860621 223.66723633 279.05078125 C221.2799273 285.14694538 221.04459436 291.77249868 222.82739258 298.0703125 C226.00094399 305.2554527 232.05097741 309.76890702 239.16723633 312.73828125 C241.85822987 313.05072924 244.2377188 313.21679264 246.91723633 313.17578125 C247.62388428 313.16675781 248.33053223 313.15773438 249.05859375 313.1484375 C260.78284492 312.76249804 269.59985159 306.85131861 278.03051758 299.00390625 C282.05016903 294.66767127 285.23853117 289.74716654 288.54223633 284.86328125 C296.48667368 273.12933374 304.70852076 262.05765545 319.16723633 258.73828125 C330.12137073 257.58494468 340.75714795 257.71868896 349.70629883 264.7265625 C353.76099798 268.27289303 357.52386515 272.09393726 361.33081055 275.90136719 C362.04969452 276.62032166 362.76857849 277.33927612 363.50924683 278.08001709 C364.05638336 278.62724426 364.6035199 279.17447144 365.16723633 279.73828125 C365.20846619 279.11807602 365.24969604 278.49787079 365.29217529 277.85887146 C374.55358953 139.15030045 374.55358953 139.15030045 418.16723633 100.73828125 C439.32619872 83.76868735 463.89728109 74.80393531 491.16723633 76.73828125 C503.7165837 78.34596784 518.2301018 83.27694934 526.78051758 92.92578125 C529.18806312 96.072545 531.31306404 99.23369187 533.16723633 102.73828125 C533.48821289 103.3415625 533.80918945 103.94484375 534.13989258 104.56640625 C538.21465108 113.58773205 536.88598193 123.81718276 533.48754883 132.82421875 C526.42438129 148.41334 514.56644769 157.5399154 498.88793945 163.62255859 C484.40912032 168.81110151 469.58194174 170.71237632 454.35083008 172.21875 C442.49972671 173.41512029 432.30455762 175.28383257 424.16723633 184.73828125 C420.65189201 189.90438336 418.25692446 195.10491695 418.69458008 201.4453125 C420.11883628 208.35472069 422.97854105 213.33908831 428.85473633 217.30078125 C436.54014444 221.86035951 445.5680615 221.94512094 454.28442383 220.06640625 C456.05083644 219.52368238 457.81525987 218.97443171 459.57739258 218.41796875 C465.2752186 216.92261169 471.46292183 216.83443961 477.04223633 218.86328125 C480.94825778 221.20689412 482.7169708 222.87725678 485.16723633 226.73828125 C486.34413364 232.40878647 484.3743895 235.72678808 481.35864258 240.33203125 C475.0678549 247.23956282 468.09181616 250.95530686 459.41723633 254.11328125 C446.02848212 259.31262368 433.7291727 265.59555448 427.01489258 279.046875 C424.94699323 285.61269367 424.86774017 294.90901127 427.66723633 301.30078125 C431.42749329 307.4211995 437.38387715 310.87994084 444.16723633 312.73828125 C456.84636292 314.39654665 465.59485218 311.18867439 475.91333008 303.76171875 C482.50529688 298.27012706 487.10422937 291.56324899 491.90844727 284.55224609 C507.85281538 261.5757808 507.85281538 261.5757808 521.16723633 258.73828125 C533.60898014 257.36918014 544.57474297 258.51825286 554.97973633 265.92578125 C563.64919411 273.24015505 567.65697306 283.61020486 572.16723633 293.73828125 C572.49723633 293.73828125 572.82723633 293.73828125 573.16723633 293.73828125 C573.30709961 293.11074951 573.44696289 292.48321777 573.59106445 291.83666992 C583.62106111 247.57648773 608.09629704 211.66543415 636.16723633 176.73828125 C636.68141113 176.09793945 637.19558594 175.45759766 637.7253418 174.79785156 C643.81657187 167.2263556 649.9819891 159.72482936 656.2800293 152.32446289 C660.6488953 147.1879636 664.91203828 141.96894889 669.16723633 136.73828125 C670.58348544 135.00877258 672.00016106 133.27961308 673.41723633 131.55078125 C677.17785319 126.95520225 680.92411419 122.34810669 684.66723633 117.73828125 C689.1160721 112.25933731 693.57246903 106.78682759 698.04614258 101.328125 C699.53543626 99.50970564 701.02219491 97.68920854 702.50708008 95.8671875 C703.28180664 94.91714844 704.0565332 93.96710938 704.85473633 92.98828125 C705.53922852 92.1478125 706.2237207 91.30734375 706.92895508 90.44140625 C709.63561953 87.17262475 712.39633853 83.95263925 715.16723633 80.73828125 C714.60439941 80.97949707 714.0415625 81.22071289 713.46166992 81.46923828 C712.67099121 81.80810059 711.8803125 82.14696289 711.06567383 82.49609375 C709.75276367 83.05901123 709.75276367 83.05901123 708.41333008 83.63330078 C706.48150829 84.46089586 704.54920746 85.28737352 702.61645508 86.11279297 C696.48794911 88.73000507 696.48794911 88.73000507 690.39379883 91.42578125 C675.23116801 98.18104535 659.61925599 103.38021889 643.16723633 105.73828125 C641.91555664 105.92132812 640.66387695 106.104375 639.37426758 106.29296875 C634.47715018 106.88537629 629.59546372 106.95999874 624.66723633 106.98828125 C623.76875977 107.00890625 622.8702832 107.02953125 621.94458008 107.05078125 C612.86996862 107.10361742 605.18484596 104.65986007 598.53442383 98.13671875 C593.30541296 92.40248945 591.64636733 87.11672801 591.86645508 79.37890625 C593.0725521 68.79031419 599.59579764 61.41199642 607.51879883 54.765625 C618.49301839 46.6332636 630.91020831 42.58808087 644.04223633 39.55078125 C644.75735382 39.38085663 645.47247131 39.21093201 646.20925903 39.03585815 C658.77158494 36.05647435 671.31192378 33.98730655 684.16723633 32.73828125 C684.97966797 32.64691895 685.79209961 32.55555664 686.62915039 32.46142578 C702.01627781 30.76684814 717.48408709 31.42628204 732.85473633 32.98828125 C733.9870166 33.0975293 735.11929688 33.20677734 736.28588867 33.31933594 C750.13239814 34.86618247 765.62083154 38.78729321 775.16723633 49.73828125 C780.95729186 59.01465668 782.53795298 67.4783247 782.47973633 78.23828125 C782.47482178 79.30763916 782.46990723 80.37699707 782.46484375 81.47875977 C782.34030609 89.93390905 781.39342849 97.5545465 779.16723633 105.73828125 C779.00626465 106.38216797 778.84529297 107.02605469 778.67944336 107.68945312 C772.10460221 133.98881771 757.82996803 156.92051379 742.16723633 178.73828125 C741.61777344 179.5055957 741.06831055 180.27291016 740.50219727 181.06347656 C734.37344785 189.58760543 728.1552033 197.95771749 721.27832031 205.89404297 C715.80997155 212.23569073 710.80700361 218.93067842 705.77270508 225.61816406 C704.25234193 227.62589422 702.71345577 229.61761803 701.16723633 231.60546875 C683.91194012 253.93854756 670.14108476 278.74068946 657.16723633 303.73828125 C660.20537665 303.05488432 662.97364938 302.06938807 665.85083008 300.8828125 C678.7651007 295.6390491 691.63146919 291.09217771 705.16723633 287.73828125 C705.87928223 287.56039063 706.59132813 287.3825 707.32495117 287.19921875 C715.2528102 285.28788608 722.96197475 284.48139035 731.10473633 284.42578125 C731.87382324 284.4201416 732.64291016 284.41450195 733.43530273 284.40869141 C749.54641657 284.61412813 764.97274794 291.30286151 776.72631836 302.21191406 C779.5609888 305.14581782 781.99640088 308.26184433 784.44848633 311.515625 C784.90513672 312.11564331 785.36178711 312.71566162 785.83227539 313.3338623 C786.94708668 314.79960568 788.05760759 316.26861056 789.16723633 317.73828125 C789.13792526 316.76960114 789.1086142 315.80092102 789.07841492 314.80288696 C788.36703854 290.94049767 787.97881042 267.09466827 787.98193359 243.22167969 C787.98201509 239.81244634 787.97499986 236.40334672 787.96142578 232.99414062 C787.83798762 201.39331234 788.98118632 169.95394517 792.04223633 138.48828125 C792.16962692 137.1532103 792.16962692 137.1532103 792.29959106 135.79116821 C797.78795915 78.64257727 797.78795915 78.64257727 816.82739258 60.62109375 C825.79734514 53.40320204 835.35174937 47.56065797 847.16723633 48.73828125 C857.17747822 50.35396941 864.34522472 57.84567975 870.16723633 65.73828125 C871.54614258 68.24609375 871.54614258 68.24609375 872.72973633 70.86328125 C873.12290039 71.71148438 873.51606445 72.5596875 873.92114258 73.43359375 C877.00880104 81.62218014 878.6629352 89.817617 879.51879883 98.50390625 C879.67534439 99.99685211 879.67534439 99.99685211 879.83505249 101.5199585 C880.05275443 103.61701667 880.2659635 105.71454574 880.47485352 107.8125 C880.78742794 110.94016776 881.11676453 114.06571816 881.44848633 117.19140625 C883.62293187 138.14436469 884.38021405 159.05547085 884.35473633 180.11328125 C884.35413208 181.0563916 884.35352783 181.99950195 884.35290527 182.97119141 C884.32255337 200.6285943 883.69921691 218.14373242 882.16723633 235.73828125 C882.1087854 236.42504944 882.05033447 237.11181763 881.9901123 237.81939697 C872.21530067 351.74367472 872.21530067 351.74367472 844.16723633 375.73828125 C836.33151894 380.52229893 828.46855776 384.14799119 819.16723633 382.73828125 C809.75169673 379.49666315 802.94966722 374.16259465 797.89770508 365.58203125 C791.84915416 353.07716193 789.60518363 337.50857236 790.16723633 323.73828125 C787.06401857 326.65342521 784.45660772 329.62943705 781.91723633 333.05078125 C770.95650678 347.16651823 755.78812318 353.34819177 739.16723633 358.73828125 C737.67891125 359.23684836 736.19063247 359.73555368 734.70239258 360.234375 C726.85226368 362.82706327 718.98348156 365.16519726 710.91723633 366.98828125 C709.92868652 367.21463257 709.92868652 367.21463257 708.92016602 367.44555664 C696.64263366 370.08133554 684.45430932 371.10529713 671.91723633 371.05078125 C670.90892761 371.04804703 670.90892761 371.04804703 669.88024902 371.04525757 C658.71877787 370.99458363 648.05756408 370.19981028 637.16723633 367.73828125 C636.38493652 367.57199219 635.60263672 367.40570312 634.79663086 367.234375 C618.70919815 363.75461787 604.45525551 357.95281177 592.16723633 346.73828125 C591.21977539 345.92810547 591.21977539 345.92810547 590.25317383 345.1015625 C577.32171482 333.33792248 574.44712102 316.08800949 571.16723633 299.73828125 C570.73809937 300.60610229 570.73809937 300.60610229 570.30029297 301.49145508 C568.95778588 304.18531388 567.59391502 306.86783594 566.22973633 309.55078125 C565.55587891 310.91493164 565.55587891 310.91493164 564.8684082 312.30664062 C558.71999788 324.30664146 549.61149825 333.64707274 540.14892578 343.07226562 C538.49007564 344.72796159 536.84502589 346.39655622 535.20043945 348.06640625 C527.67063478 355.64034984 519.69869736 362.3250858 511.16723633 368.73828125 C509.98815709 369.63511628 508.80912033 370.53200718 507.63012695 371.42895508 C493.53149937 382.04335115 478.37430709 389.72971644 461.16723633 393.73828125 C460.15790039 393.98191406 459.14856445 394.22554687 458.10864258 394.4765625 C437.96935626 398.58263059 417.96852729 395.51183211 400.70629883 384.11328125 C378.65723231 367.85867931 370.74604083 340.48211268 366.78051758 314.57421875 C366.35002592 311.88158939 365.85539032 309.36207305 365.16723633 306.73828125 C364.27584961 308.24455078 364.27584961 308.24455078 363.36645508 309.78125 C350.62261048 330.97056509 332.9885924 349.93164908 313.16723633 364.73828125 C311.76190826 365.83284543 310.35699995 366.92794864 308.95239258 368.0234375 C293.24317409 380.1131108 277.49905362 389.06846463 258.16723633 393.73828125 C257.31645508 393.98191406 256.46567383 394.22554687 255.58911133 394.4765625 C236.8601289 399.28978001 216.40188497 395.41365319 199.95043945 385.85742188 C195.45878199 383.03845175 191.76654614 379.60396598 188.16723633 375.73828125 C187.4737207 375.00222656 186.78020508 374.26617188 186.06567383 373.5078125 C156.71314253 339.67873686 161.17286925 286.13014074 164.09741211 244.65332031 C165.12129844 230.99419147 166.49613742 217.40003766 168.61645508 203.86328125 C169.1807883 200.11146221 169.27308918 196.52882162 169.16723633 192.73828125 C165.33734527 190.93597957 162.38601825 190.54205884 158.16723633 190.73828125 C157.79018555 192.58679687 157.79018555 192.58679687 157.40551758 194.47265625 C152.62466489 215.86353331 143.59179237 236.05819953 134.16723633 255.73828125 C133.71171387 256.69331543 133.25619141 257.64834961 132.78686523 258.63232422 C123.40742993 278.0420999 110.03232804 298.22821686 88.85083008 305.89453125 C71.21678057 311.43886123 54.0922492 311.32860272 37.3671875 303.10400391 C7.86567454 287.618667 -10.08062775 261.09212591 -25.83276367 232.73828125 C-26.21851563 232.05475586 -26.60426758 231.37123047 -27.00170898 230.66699219 C-35.74462526 215.17515809 -42.63450002 198.74365632 -47.83276367 181.73828125 C-51.79276367 182.39828125 -55.75276367 183.05828125 -59.83276367 183.73828125 C-59.52338867 185.24390625 -59.21401367 186.74953125 -58.89526367 188.30078125 C-52.41887774 219.8191928 -59.56924023 252.05390605 -69.35229492 282.09375 C-71.56974903 288.94861955 -73.43227114 295.89965149 -75.30981445 302.85351562 C-75.74514738 304.42250263 -76.21967155 305.98055051 -76.70385742 307.53515625 C-81.37286831 322.72758547 -82.11909131 338.64339054 -82.14526367 354.42578125 C-82.14875824 355.10619476 -82.15225281 355.78660828 -82.15585327 356.48764038 C-82.17704527 363.91280001 -81.8001922 370.90297842 -80.30224609 378.17553711 C-78.22591916 389.50949645 -78.33244008 401.39661904 -84.03198242 411.55859375 C-86.56098856 414.6197335 -89.08539913 416.39006318 -93.00854492 417.171875 C-102.36002336 417.18897094 -107.35948158 413.53413998 -113.89526367 407.05078125 C-117.37359236 403.52303075 -120.54045177 399.93967138 -123.45776367 395.92578125 C-130.43535194 386.62793471 -142.39767882 380.44137899 -153.83276367 378.73828125 C-161.64522063 378.24346059 -169.02890859 378.5560641 -176.70776367 380.11328125 C-177.71468262 380.31642944 -177.71468262 380.31642944 -178.74194336 380.52368164 C-179.41773438 380.6602417 -180.09352539 380.79680176 -180.78979492 380.9375 C-203.02700071 385.41254523 -228.72118753 386.31016383 -250.83276367 380.73828125 C-251.68547852 380.52365234 -252.53819336 380.30902344 -253.41674805 380.08789062 C-263.83582508 377.39598674 -274.12949708 374.45063321 -283.83276367 369.73828125 C-284.58493164 369.37637695 -285.33709961 369.01447266 -286.11206055 368.64160156 C-298.70443671 362.51910143 -310.01297694 355.62741229 -320.83276367 346.73828125 C-322.00838867 345.78501953 -322.00838867 345.78501953 -323.20776367 344.8125 C-325.14446698 343.17645427 -326.99347785 341.4829536 -328.83276367 339.73828125 C-330.05092773 338.61486328 -330.05092773 338.61486328 -331.29370117 337.46875 C-350.23345817 319.370157 -362.86599764 296.74646177 -372.83276367 272.73828125 C-372.9883374 273.30111816 -373.14391113 273.86395508 -373.30419922 274.44384766 C-384.5892015 315.08642102 -401.42978525 345.47986526 -438.83276367 366.73828125 C-439.46520996 367.10163574 -440.09765625 367.46499023 -440.74926758 367.83935547 C-454.65792526 375.76543135 -469.37318327 381.5730057 -484.83276367 385.73828125 C-485.63069336 385.980625 -486.42862305 386.22296875 -487.25073242 386.47265625 C-511.99272615 393.47039185 -548.43694108 397.02567632 -572.83276367 386.73828125 C-574.21915039 386.15626953 -574.21915039 386.15626953 -575.63354492 385.5625 C-593.89395749 377.15465764 -607.64609269 363.053412 -615.18823242 344.3828125 C-621.00247174 327.48583541 -621.69613365 307.0423319 -613.83276367 290.73828125 C-609.34454125 281.88434372 -603.20137575 274.61803091 -593.83276367 270.73828125 C-585.09329246 269.26517751 -578.97468201 271.8730443 -571.83276367 276.73828125 C-566.37855288 280.68352182 -561.43646451 285.08685282 -556.52026367 289.67578125 C-539.99185735 304.79209684 -517.84842621 317.46114093 -494.95385742 317.015625 C-484.24774623 316.50629285 -474.5391059 312.92080053 -465.83276367 306.73828125 C-464.92526367 306.14015625 -464.01776367 305.54203125 -463.08276367 304.92578125 C-456.34194729 298.37220977 -451.80146205 289.95580183 -451.46948242 280.49609375 C-451.47079548 278.61841374 -451.4879837 276.74068423 -451.52026367 274.86328125 C-451.51704102 273.93386719 -451.51381836 273.00445313 -451.51049805 272.046875 C-451.624611 257.17069583 -456.20514181 245.8896272 -466.48901367 234.953125 C-481.44839476 220.81650987 -499.61089478 212.09881862 -518.89526367 205.42578125 C-529.46196769 201.68702217 -539.7373383 197.60875342 -549.83276367 192.73828125 C-550.51048828 192.41504883 -551.18821289 192.09181641 -551.88647461 191.75878906 C-560.64305894 187.5298764 -568.00267432 182.76856287 -574.83276367 175.73828125 C-575.60104492 174.97902344 -576.36932617 174.21976563 -577.16088867 173.4375 C-593.64296708 156.31071444 -600.2197465 133.40275356 -600.20605469 110.14819336 C-599.7121654 85.12093659 -586.97794243 61.35769969 -569.95776367 43.48828125 C-560.38489604 34.39215005 -549.43125885 27.86338298 -537.83276367 21.73828125 C-536.81569336 21.19945312 -535.79862305 20.660625 -534.75073242 20.10546875 C-529.34073079 17.5706621 -523.61014826 16.18516962 -517.83276367 14.73828125 C-516.65584961 14.4340625 -515.47893555 14.12984375 -514.26635742 13.81640625 C-493.42935155 9.28569318 -469.30371842 9.81825679 -448.83276367 15.73828125 C-447.97682617 15.9796582 -447.12088867 16.22103516 -446.23901367 16.46972656 C-427.92087452 21.76148551 -412.14972042 28.89830204 -398.83276367 42.73828125 C-398.0619043 43.50140625 -397.29104492 44.26453125 -396.49682617 45.05078125 C-391.39933056 50.35672463 -388.43280453 55.88554198 -385.83276367 62.73828125 C-385.39963867 63.83140625 -384.96651367 64.92453125 -384.52026367 66.05078125 C-382.45110225 77.14901071 -383.32475754 86.61677283 -389.37573242 96.17578125 C-393.79389477 102.32278973 -399.17876818 107.34176278 -406.83276367 108.73828125 C-419.92239142 110.07302892 -430.34884187 107.0935948 -442.55981445 102.56298828 C-453.33425299 98.65363776 -463.43638864 97.41173755 -474.83276367 97.73828125 C-475.6087793 97.7434375 -476.38479492 97.74859375 -477.18432617 97.75390625 C-485.24864043 98.15284759 -491.90860178 102.32930019 -497.33276367 108.17578125 C-501.73639419 113.90174841 -502.32998393 119.64013356 -501.49291992 126.64453125 C-497.73089058 144.27486994 -485.83284387 156.70515871 -471.20776367 166.30078125 C-462.22846475 172.00980421 -452.66009964 176.23313591 -442.79370117 180.1550293 C-419.99470069 189.26235474 -402.48935888 199.82034418 -387.83276367 219.73828125 C-386.7273529 221.21586222 -385.62057329 222.69242008 -384.51245117 224.16796875 C-383.74650635 225.18866455 -383.74650635 225.18866455 -382.96508789 226.22998047 C-382.5914209 226.72771973 -382.21775391 227.22545898 -381.83276367 227.73828125 C-381.79538086 226.454375 -381.75799805 225.17046875 -381.71948242 223.84765625 C-380.16360814 178.9330375 -365.96966819 138.6604383 -334.83276367 105.73828125 C-334.03741211 104.87847656 -333.24206055 104.01867188 -332.42260742 103.1328125 C-308.11002647 77.72011476 -276.07622664 62.2764126 -241.83276367 55.73828125 C-240.7215918 55.51140625 -239.61041992 55.28453125 -238.46557617 55.05078125 C-202.40044822 48.70190787 -161.13963068 57.83155121 -130.45776367 77.61328125 C-128.56536538 78.96423599 -126.69072225 80.34033993 -124.83276367 81.73828125 C-124.03443115 82.32101807 -124.03443115 82.32101807 -123.2199707 82.91552734 C-97.43731531 101.77925535 -79.12009047 126.52629299 -67.32885742 156.08203125 C-66.20907195 159.49085629 -66.20907195 159.49085629 -64.83276367 160.73828125 C-63.76026367 160.40828125 -62.68776367 160.07828125 -61.58276367 159.73828125 C-57.83276367 158.73828125 -57.83276367 158.73828125 -53.83276367 158.73828125 C-54.09831055 157.55234375 -54.36385742 156.36640625 -54.63745117 155.14453125 C-54.99459343 153.50919565 -55.3513425 151.87377416 -55.70776367 150.23828125 C-55.88178711 149.46613281 -56.05581055 148.69398438 -56.23510742 147.8984375 C-59.5694659 132.46159268 -60.17907936 117.37591767 -60.1484375 101.6328125 C-60.14529501 98.27179955 -60.16875712 94.91168505 -60.1940918 91.55078125 C-60.27480329 63.82105208 -58.86654042 29.22055412 -38.88745117 7.63671875 C-28.36593694 -2.05957868 -13.40967048 -6.25540271 0 0 Z " fill="#FEFEFE" transform="translate(1511.832763671875,1020.26171875)"/>
<path d="M0 0 C0.85688416 -0.00067474 1.71376831 -0.00134949 2.59661865 -0.00204468 C47.7108771 0.05406367 86.5861057 10.16444402 122.4375 38.25 C123.41074219 39.01054688 124.38398437 39.77109375 125.38671875 40.5546875 C142.20995319 54.04207374 159.2869801 69.5070026 172.390625 86.66796875 C174.25691377 89.02219943 176.20497123 91.22925816 178.21875 93.45703125 C182.31269795 98.0346464 186.03449076 102.81687223 189.6875 107.75 C190.65574707 109.05094604 190.65574707 109.05094604 191.64355469 110.37817383 C211.9072208 137.71015423 229.92726066 166.36866614 245.92138672 196.41137695 C247.04423776 198.51369403 248.1777205 200.61034027 249.31689453 202.70385742 C254.04748502 211.42319792 258.37748076 220.26259903 262.4375 229.3125 C262.73676392 229.97588379 263.03602783 230.63926758 263.34436035 231.32275391 C283.2196279 275.48531835 283.2196279 275.48531835 278.75 290.5703125 C276.08675722 295.69705486 271.7868305 298.46688983 266.4375 300.25 C259.52706681 300.71069555 254.65525327 299.86126574 249.19921875 295.43359375 C245.63489762 292.25583377 242.1865334 288.96233724 238.7265625 285.671875 C194.883628 244.59164596 145.22428677 236.25431376 87.625 229.5 C86.7164325 229.39308838 85.80786499 229.28617676 84.87176514 229.17602539 C82.24179103 228.8684205 79.61127912 228.56598622 76.98046875 228.265625 C76.22325027 228.17730408 75.4660318 228.08898315 74.68586731 227.99798584 C62.74704538 226.65610278 50.79864009 226.09552986 38.79296875 225.8203125 C35.99930368 225.75002823 33.20571127 225.67699448 30.41210938 225.60424805 C29.69693492 225.58590062 28.98176046 225.5675532 28.24491405 225.54864979 C-97.61414887 222.30538812 -97.61414887 222.30538812 -140.3828125 177.796875 C-154.18547786 162.8225204 -164.70743774 140.80712185 -165.5625 120.25 C-165.6140625 119.10402344 -165.665625 117.95804688 -165.71875 116.77734375 C-166.38041296 94.64869855 -159.90298061 72.42830793 -144.875 55.75 C-143.43797699 54.24954303 -142.00054573 52.74947681 -140.5625 51.25 C-139.77875 50.239375 -138.995 49.22875 -138.1875 48.1875 C-110.20164348 16.8699939 -62.28285258 3.50453366 -21.99389648 0.43310547 C-14.66691439 0.04212457 -7.33604321 0.00521641 0 0 Z " fill="#030303" transform="translate(874.5625,473.75)"/>
<path d="M0 0 C17.66845025 15.70528911 29.10842034 34.17028545 32 58 C33.28343491 80.87969534 27.70166609 101.5708928 12.6875 119.3125 C5.06040686 127.4566842 -4.22850544 132.35312415 -15.37890625 133.28125 C-22.973069 133.46818324 -30.39687649 132.83618195 -37.921875 131.84765625 C-39.3889817 131.65519569 -39.3889817 131.65519569 -40.88572693 131.45884705 C-56.42860372 129.33858014 -71.85679447 126.42845003 -87.29492188 123.66253662 C-158.37549576 110.930029 -230.2379588 102.09382651 -297.55859375 134.4609375 C-310.65028676 140.31579226 -327.00749346 143.93325103 -341.1875 139.875 C-344.3969548 138.5285046 -347.1160225 136.88362484 -349.1875 133.9921875 C-351.57492012 128.138417 -350.81208145 121.20215151 -348.5 115.4375 C-342.83455125 104.46069305 -334.11337378 95.20916968 -326 86 C-325.24847656 85.14664063 -324.49695312 84.29328125 -323.72265625 83.4140625 C-300.74980442 57.66051166 -300.74980442 57.66051166 -288.140625 46.86328125 C-285.66813514 44.71113223 -283.27728643 42.48019281 -280.875 40.25 C-275.06859966 34.95687262 -268.96093411 30.12467134 -262.73339844 25.33935547 C-261.09544306 24.07374657 -259.47162877 22.79229334 -257.8515625 21.50390625 C-225.31636971 -4.10628958 -187.64421978 -24.20944456 -147 -33 C-145.9164624 -33.24339111 -145.9164624 -33.24339111 -144.81103516 -33.49169922 C-96.83339676 -43.82058871 -37.71192562 -32.17038128 0 0 Z " fill="#050505" transform="translate(2781,661)"/>
<path d="M0 0 C0.65396067 -0.00407553 1.30792133 -0.00815105 1.98169899 -0.01235008 C5.44311814 -0.03303641 8.90449969 -0.04741241 12.3659668 -0.05688477 C15.18877847 -0.06572913 18.01109545 -0.08659016 20.83374023 -0.1184082 C50.74822652 -0.44819137 50.74822652 -0.44819137 63.92578125 4.23828125 C65.1180835 4.63708496 66.31038574 5.03588867 67.53881836 5.44677734 C81.42134797 10.23707104 92.9558821 18.17485226 99.86328125 31.42578125 C104.76526791 41.73928007 105.73635127 54.03108663 103.2734375 65.1953125 C102.35783127 67.4391372 101.31246115 69.25490879 99.92578125 71.23828125 C99.52101563 71.92921875 99.11625 72.62015625 98.69921875 73.33203125 C90.68370465 84.819506 70.82233808 86.79839212 57.92578125 89.23828125 C56.82621094 89.45355469 55.72664063 89.66882812 54.59375 89.890625 C42.50670842 91.9324557 30.15293499 91.89902118 17.92578125 92.23828125 C18.26198486 93.03484131 18.59818848 93.83140137 18.94458008 94.65209961 C27.57938658 115.22114384 35.30788193 135.9312878 41.92578125 157.23828125 C42.20357422 158.13160156 42.48136719 159.02492188 42.76757812 159.9453125 C50.10532971 184.13346869 54.34084702 210.14249753 56.92578125 235.23828125 C57.02729492 236.18944824 57.12880859 237.14061523 57.23339844 238.12060547 C60.27870227 267.2143047 61.59142606 299.0174215 43.0859375 323.69140625 C38.66371877 328.98055499 33.89343173 332.82374732 27.92578125 336.23828125 C27.29800781 336.65207031 26.67023437 337.06585937 26.0234375 337.4921875 C17.74091976 342.19928174 5.85412574 341.55240992 -3.2109375 339.54296875 C-17.1593329 334.33148036 -28.40745301 323.62969904 -34.98242188 310.41259766 C-38.53183218 302.49774831 -40.75878352 294.14119606 -42.82421875 285.73828125 C-43.02305664 284.93326172 -43.22189453 284.12824219 -43.42675781 283.29882812 C-46.48523174 270.04718981 -47.37930849 256.8385601 -47.3046875 243.27734375 C-47.30348807 241.79308106 -47.30304414 240.3088176 -47.30329895 238.82455444 C-47.30175017 235.73373558 -47.29359601 232.64303514 -47.2800293 229.55224609 C-47.26318916 225.67558504 -47.259309 221.79905355 -47.25983334 217.92236042 C-47.25909356 192.82266791 -46.58436014 167.83237518 -44.63671875 142.80078125 C-44.50369121 141.04438693 -44.3711303 139.28795721 -44.23901367 137.53149414 C-43.97742714 134.0615041 -43.71348978 130.59170755 -43.44726562 127.12207031 C-42.91240343 120.14105448 -42.40054372 113.15837209 -41.88671875 106.17578125 C-41.6164324 102.52990719 -41.34545058 98.88408509 -41.07421875 95.23828125 C-42.16476563 95.398125 -43.2553125 95.55796875 -44.37890625 95.72265625 C-61.67635233 97.86677924 -81.66868911 98.25575078 -96.07421875 87.23828125 C-103.48968203 81.29793701 -109.40912333 72.76334324 -111.07421875 63.23828125 C-112.17990388 50.09642365 -109.70502396 39.57409191 -101.05859375 29.3203125 C-76.39116578 3.4389363 -33.6964353 0.19925699 0 0 Z " fill="#FEFEFE" transform="translate(2511.07421875,1035.76171875)"/>
<path d="M0 0 C2.48301125 1.92258238 4.80857839 3.92637723 7.1171875 6.0546875 C7.96925781 6.82683594 8.82132813 7.59898438 9.69921875 8.39453125 C24.81191072 22.73686111 33.85534431 43.10566297 34.51708984 63.88964844 C34.65773397 74.32653866 33.58297663 82.31447426 28.1171875 91.3671875 C18.74902945 100.90164421 7.55490415 100.8124882 -4.98046875 100.94921875 C-5.85195557 100.94768799 -6.72344238 100.94615723 -7.62133789 100.94458008 C-10.05124109 100.96098677 -10.05124109 100.96098677 -12.8828125 102.0546875 C-14.44616477 107.00530303 -14.95311471 111.61748522 -15.17016602 116.80029297 C-15.69627249 129.20702674 -18.46009474 140.76511266 -27.625 149.765625 C-35.33765505 156.07016046 -44.61903139 159.97335607 -54.6328125 159.46484375 C-76.13057197 156.75178516 -95.72216957 146.36106958 -109.828125 129.80078125 C-125.38326962 109.01130089 -131.69341339 83.84843618 -128.0703125 58.1796875 C-127.69738819 56.13371236 -127.30241171 54.09160265 -126.8828125 52.0546875 C-126.69976563 51.09691406 -126.51671875 50.13914062 -126.328125 49.15234375 C-122.02794099 29.37680617 -111.54856593 12.44882933 -94.74609375 0.8984375 C-88.0651654 -3.33940581 -81.28454017 -7.13085313 -73.8828125 -9.9453125 C-72.34560547 -10.53505859 -72.34560547 -10.53505859 -70.77734375 -11.13671875 C-46.56815286 -18.9876089 -20.77556398 -14.01928301 0 0 Z " fill="#000000" transform="translate(1341.8828125,1166.9453125)"/>
<path d="M0 0 C5.43734072 4.1314292 9.84958326 8.66891641 13.9375 14.125 C17.50149748 18.80004123 21.38092415 21.32270195 26.3828125 24.30859375 C34.59010172 29.61270753 37.70179447 36.73304223 40 46 C43.45322747 63.08196524 40.43888902 81.53693987 31.5078125 96.5 C22.47713352 109.28986114 6.774059 114.50502772 -8.05737305 117.11157227 C-31.35359347 120.88488407 -67.52971465 122.92787406 -88.8125 110.625 C-95.83000735 105.37781837 -98.92301495 99.09120204 -100.6875 90.75 C-101.4570228 81.51572639 -100.92099543 72.45941191 -99.828125 63.27734375 C-99.70443542 62.21060928 -99.58074585 61.14387482 -99.45330811 60.04481506 C-99.19129387 57.80833346 -98.92556599 55.572284 -98.65625 53.33666992 C-98.25078821 49.94409511 -97.86709923 46.54950243 -97.484375 43.15429688 C-97.22528368 40.96598851 -96.96490988 38.77783152 -96.703125 36.58984375 C-96.59252747 35.59057358 -96.48192993 34.59130341 -96.36798096 33.56175232 C-94.9971204 22.5617428 -92.0727558 13.78138245 -84 6 C-83.46503906 5.45601562 -82.93007812 4.91203125 -82.37890625 4.3515625 C-62.51022705 -14.42124231 -22.0850971 -14.22640573 0 0 Z " fill="#060606" transform="translate(2562,1507)"/>
<path d="M0 0 C0.99 0.495 0.99 0.495 2 1 C1.56284668 1.47526123 1.12569336 1.95052246 0.67529297 2.44018555 C-3.69118084 7.29188862 -7.41828932 12.28094765 -10.875 17.8125 C-11.38675781 18.63000732 -11.89851562 19.44751465 -12.42578125 20.28979492 C-20.30205237 33.13170144 -26.50897494 46.30522009 -30 61 C-30.37040472 62.29391602 -30.74425692 63.58684885 -31.12109375 64.87890625 C-37.45576869 87.87923068 -35.36198957 114.4087967 -28 137 C-27.60554687 138.24136719 -27.60554687 138.24136719 -27.203125 139.5078125 C-20.79158564 158.34873956 -10.81537019 174.84723525 2 190 C2.58394531 190.70640625 3.16789063 191.4128125 3.76953125 192.140625 C7.15088742 196.14024268 10.7219907 199.64295542 14.7109375 203.03125 C17.99560498 205.85628824 21.17046357 208.79833345 24.35498047 211.73486328 C26.87708839 214.05850505 29.4095428 216.36535529 31.96875 218.6484375 C50.88094029 235.53432169 50.88094029 235.53432169 52.5625 245.25 C51.8217605 248.8713931 51.02822856 249.85808224 48 252 C34.13736582 257.79333966 20.00647505 257.25416893 6.1875 251.8125 C-5.73502122 246.59923026 -14.79146281 239.998656 -24 231 C-24.71929688 230.34257813 -25.43859375 229.68515625 -26.1796875 229.0078125 C-41.5826728 214.59457726 -50.89586987 194.56283653 -58.18798828 175.15136719 C-58.85377709 173.38740719 -59.54624254 171.63353747 -60.24609375 169.8828125 C-61.26387607 167.27697295 -62.15721769 164.66755652 -63 162 C-63.37125 160.84886719 -63.7425 159.69773437 -64.125 158.51171875 C-69.63152056 139.71424599 -68.7789252 118.6209812 -63 100 C-62.79101074 99.30825684 -62.58202148 98.61651367 -62.36669922 97.90380859 C-52.11805574 64.71662826 -31.70815047 34.72591262 -8.23828125 9.421875 C-5.40211594 6.35307484 -2.69568376 3.19225709 0 0 Z " fill="#FCFCFC" transform="translate(607,873)"/>
<path d="M0 0 C4.6116521 2.80719726 9.10533167 5.76004463 13.52685547 8.85742188 C16.1950976 10.71619729 18.90371614 12.29158413 21.80810547 13.76367188 C29.46845446 17.91843743 34.74874054 24.01714285 38.01123047 32.08398438 C39.93477298 38.92130366 40.39094951 45.61200872 37.53857422 52.22851562 C35.8186911 55.05875218 33.97664598 57.58489047 31.87060547 60.13867188 C31.31888672 60.82960938 30.76716797 61.52054688 30.19873047 62.23242188 C25.42647098 67.59553254 19.92684657 70.69229791 12.70800781 71.32958984 C-10.8806317 72.49190064 -29.54350711 64.43438721 -47.16845703 48.91601562 C-53.50170452 43.12956655 -59.5119598 36.10387614 -60.59814453 27.36914062 C-60.63201216 26.02186973 -60.64174055 24.67381183 -60.62939453 23.32617188 C-60.62512451 22.62129639 -60.62085449 21.9164209 -60.61645508 21.19018555 C-60.36457137 13.45477461 -57.65861477 9.06724268 -52.75439453 3.38867188 C-37.86359081 -9.37487417 -16.90744008 -9.7585966 0 0 Z " fill="#FDFDFD" transform="translate(1201.12939453125,495.861328125)"/>
<path d="M0 0 C3.38063117 1.52245515 6.03568634 3.51576349 8.9375 5.8125 C24.40581013 17.66793553 41.81897064 26.91197608 59 36 C60.02834961 36.54769043 61.05669922 37.09538086 62.11621094 37.65966797 C78.64366716 46.44473531 95.40977948 54.55053375 112.41796875 62.34912109 C114.92519715 63.50464716 117.42769914 64.66737231 119.92578125 65.84228516 C126.39175982 68.88333973 132.85325468 71.87034935 139.5 74.5 C144.99993559 76.716901 150.39826313 79.07129832 155.75 81.625 C161.34696821 84.29437973 167.01938792 86.59016183 172.828125 88.7578125 C176.07846472 90.0307288 179.2170683 91.45096142 182.375 92.9375 C187.33481726 95.26461805 192.3335488 97.39253927 197.43139648 99.39819336 C202.9324282 101.56385112 208.40412052 103.7973148 213.87426758 106.03979492 C223.73023467 110.0787493 233.59359301 114.04098502 243.58984375 117.71875 C248.78604508 119.67104558 253.89756528 121.81600332 259 124 C259 124.33 259 124.66 259 125 C234.20990595 130.31850185 207.71325485 127.04336281 183.94824219 118.67089844 C181.88569809 117.96063889 179.81063883 117.30826555 177.7265625 116.6640625 C166.04957379 113.01051041 155.03603282 108.26176178 144 103 C143.18273438 102.61328125 142.36546875 102.2265625 141.5234375 101.828125 C102.09347759 83.05195361 66.40511834 57.08567591 32.76464844 29.44433594 C31.17593778 28.1440022 29.57686975 26.85634753 27.9765625 25.5703125 C22.04151634 20.79166502 16.39645715 15.77575236 10.81640625 10.59375 C7.71369527 7.73632963 4.54231681 4.97294396 1.328125 2.2421875 C0.88984375 1.83226562 0.4515625 1.42234375 0 1 C0 0.67 0 0.34 0 0 Z " fill="#F9F9F9" transform="translate(2406,1814)"/>
<path d="M0 0 C2.64912365 2.64912365 2.77302117 4.69903384 3.55078125 8.359375 C3.75929214 9.33045448 3.75929214 9.33045448 3.97201538 10.32115173 C4.42807388 12.46227362 4.87138562 14.60575223 5.3125 16.75 C5.54351913 17.86092514 5.54351913 17.86092514 5.77920532 18.99429321 C8.94734138 34.26062466 11.82350627 49.55721453 14 65 C14.09817017 65.69230713 14.19634033 66.38461426 14.29748535 67.09790039 C17.11274707 87.1984354 18.38273743 107.14012897 18.4375 127.4375 C18.4436734 128.39880829 18.4498468 129.36011658 18.45620728 130.35055542 C18.58397293 161.14405844 15.26681115 195.25309518 -7.30859375 218.36328125 C-12.89661049 223.68976835 -19.86885223 230 -28 230 C-27.58998798 228.39411957 -27.17146514 226.79041264 -26.75 225.1875 C-26.51796875 224.29417969 -26.2859375 223.40085937 -26.046875 222.48046875 C-25.15932942 219.52971087 -24.15734833 216.69582499 -23.078125 213.8125 C-21.02066365 208.22262167 -19.45215461 202.5852135 -18 196.8125 C-17.76539063 195.89919922 -17.53078125 194.98589844 -17.2890625 194.04492188 C-16.7927279 192.10628163 -16.30073348 190.16652637 -15.8125 188.22583008 C-15.23550139 185.93499995 -14.65143326 183.6459453 -14.0625 181.3581543 C-11.41652514 171.02627578 -9.13422505 160.63631547 -7 150.1875 C-6.82635925 149.33761505 -6.65271851 148.4877301 -6.47381592 147.61209106 C2.96511602 101.17968562 6.57978871 53.60277971 0.27539062 6.48144531 C0 4 0 4 0 0 Z " fill="#F6F6F7" transform="translate(1728,2013)"/>
<path d="M0 0 C19.85763358 12.43762961 39.57286581 34.99691748 45 58 C46.6466708 71.11937716 43.41735685 80.58406283 35.75 91.125 C34.18785395 93.10027558 32.6046955 95.05913261 31 97 C30.26394531 97.90105469 29.52789063 98.80210937 28.76953125 99.73046875 C22.57740087 106.97471332 15.03481161 113.58684895 6 117 C2.1875 117.25 2.1875 117.25 -1 117 C-1.33 116.67 -1.66 116.34 -2 116 C-2 108.89605437 1.58517664 105.25953686 6 100 C17.33536598 85.91124859 25.60254593 73.78427255 24 55 C22.11252445 43.81077366 18.18038903 34.03455091 13 24 C12.62617188 23.26475098 12.25234375 22.52950195 11.8671875 21.77197266 C10.69277823 19.4673889 9.50613005 17.16968279 8.3125 14.875 C7.94423096 14.1641626 7.57596191 13.4533252 7.1965332 12.72094727 C5.11160185 8.79214153 2.81201685 5.46582663 0 2 C0 1.34 0 0.68 0 0 Z " fill="#F8F8F8" transform="translate(2759,665)"/>
<path d="M0 0 C0.84240234 -0.03738281 1.68480469 -0.07476563 2.55273438 -0.11328125 C6.84108683 -0.17363336 9.75770281 -0.05000055 13.16796875 2.7109375 C17.2656267 7.04365489 17.98120103 9.30342246 18 15.1875 C18.01675781 16.39019531 18.03351562 17.59289062 18.05078125 18.83203125 C17.56856572 23.53492895 16.17695515 26.67788043 13.0625 30.2265625 C9.3462282 32.02357551 5.76121986 31.81841908 1.6875 31.75 C0.8411499 31.74129883 -0.0052002 31.73259766 -0.87719727 31.72363281 C-16.69290082 31.35621096 -16.69290082 31.35621096 -22.59375 26.49609375 C-24.69946119 23.89745471 -24.94284521 21.90192929 -24.7578125 18.58984375 C-23.3839521 11.75669595 -19.24282268 6.77073793 -13.9609375 2.46875 C-9.70089734 -0.35781693 -4.91163461 0.08155167 0 0 Z " fill="#F9F9F9" transform="translate(650.3125,824.625)"/>
<path d="M0 0 C9.57 0.66 19.14 1.32 29 2 C27.96355353 27.31890661 27.96355353 27.31890661 27 38 C20.59546443 38 14.87360536 31.77156331 10.41796875 27.55859375 C1.84734203 18.47628782 0 13.04542092 0 0 Z " fill="#F8F8F8" transform="translate(2428,1143)"/>
<path d="M0 0 C0.66 0.33 1.32 0.66 2 1 C-3.96324997 7.96607879 -10.35578487 14.49439352 -16.8125 21 C-17.64885986 21.84925049 -18.48521973 22.69850098 -19.34692383 23.57348633 C-20.5461145 24.7746106 -20.5461145 24.7746106 -21.76953125 26 C-22.48729736 26.721875 -23.20506348 27.44375 -23.94458008 28.1875 C-25.89505806 29.90746063 -27.62500486 30.97369741 -30 32 C-28.6589316 29.04794992 -27.1561292 26.86116112 -24.9453125 24.49609375 C-24.33574707 23.84261963 -23.72618164 23.18914551 -23.09814453 22.51586914 C-22.44700684 21.83000732 -21.79586914 21.14414551 -21.125 20.4375 C-20.45968262 19.73165771 -19.79436523 19.02581543 -19.10888672 18.29858398 C-13.33039502 12.22710029 -7.27718215 6.55117354 -1 1 C-0.67 0.67 -0.34 0.34 0 0 Z " fill="#7E7E7E" transform="translate(945,1803)"/>
<path d="M0 0 C0.66 0.33 1.32 0.66 2 1 C-4.84174219 8.85533362 -12.10877437 16.21646292 -19.51708984 23.53295898 C-21.01680305 25.01662323 -22.50954273 26.5070429 -24 28 C-24.66 27.67 -25.32 27.34 -26 27 C-20.6598723 20.68141883 -14.93902752 14.81843257 -9.0625 9 C-8.18787109 8.12988281 -7.31324219 7.25976562 -6.41210938 6.36328125 C-4.27702551 4.23986451 -2.13962795 2.11883622 0 0 Z " fill="#7E7E7E" transform="translate(612,808)"/>
<path d="M0 0 C0.66 0.33 1.32 0.66 2 1 C-2.31775917 6.19701195 -6.93938924 11.07362197 -11.6875 15.875 C-12.24590576 16.44629639 -12.80431152 17.01759277 -13.37963867 17.60620117 C-16.06620746 20.29920004 -18.38014686 22.60842629 -22 24 C-20.70628935 21.18299385 -19.31360749 19.02696637 -17.20703125 16.7578125 C-16.65853516 16.16613281 -16.11003906 15.57445312 -15.54492188 14.96484375 C-14.97322266 14.35769531 -14.40152344 13.75054687 -13.8125 13.125 C-13.26013672 12.52558594 -12.70777344 11.92617188 -12.13867188 11.30859375 C-8.32273285 7.22230364 -4.2999749 3.57329554 0 0 Z " fill="#7F7F7F" transform="translate(1131,303)"/>
<path d="M0 0 C0.66 0.33 1.32 0.66 2 1 C-13.59080378 18.6118339 -13.59080378 18.6118339 -19 21 C-15.27555181 12.47297388 -7.05431383 5.8049122 0 0 Z " fill="#818181" transform="translate(747,512)"/>
<path d="M0 0 C0.66 0.33 1.32 0.66 2 1 C1.56429687 1.47308594 1.12859375 1.94617188 0.6796875 2.43359375 C-3.21852584 6.76212934 -6.52802053 11.12992444 -9.54296875 16.1171875 C-11.20089527 18.25960193 -12.53816655 18.93878248 -15 20 C-15.99 20.66 -16.98 21.32 -18 22 C-16.41205122 18.23303261 -14.02448488 15.65956183 -11.25 12.6875 C-7.40417596 8.52955112 -3.65383709 4.32691235 0 0 Z " fill="#D9DADB" transform="translate(607,873)"/>
<path d="M0 0 C0.66 0.33 1.32 0.66 2 1 C-10.34745763 15.44915254 -10.34745763 15.44915254 -15 17 C-11.69276967 9.88867845 -6.01650648 4.859486 0 0 Z " fill="#7C7C7C" transform="translate(2104,450)"/>
<path d="M0 0 C0.66 0.33 1.32 0.66 2 1 C-5.11389522 9.6309795 -5.11389522 9.6309795 -10 12 C-8.52278578 8.54798361 -6.56205999 6.35038064 -3.875 3.75 C-3.15054688 3.04359375 -2.42609375 2.3371875 -1.6796875 1.609375 C-1.12539062 1.07828125 -0.57109375 0.5471875 0 0 Z " fill="#818181" transform="translate(2482,1509)"/>
<path d="M0 0 C0.66 0.33 1.32 0.66 2 1 C1.27683594 1.81404297 1.27683594 1.81404297 0.5390625 2.64453125 C-0.09257813 3.35996094 -0.72421875 4.07539062 -1.375 4.8125 C-2.31472656 5.87404297 -2.31472656 5.87404297 -3.2734375 6.95703125 C-5.140599 9.08803819 -5.140599 9.08803819 -7 12 C-7.99 11.67 -8.98 11.34 -10 11 C-6.7 7.37 -3.4 3.74 0 0 Z " fill="#B9BABB" transform="translate(607,873)"/>
</svg>
