<svg width="200" height="149" viewBox="0 0 200 149" fill="none" xmlns="http://www.w3.org/2000/svg">
<path d="M59.6985 119.054C58.223 119.859 56.7506 120.358 55.1349 120.173C52.977 119.924 51.3217 117.669 51.1054 114.81C50.9447 112.687 51.5397 110.913 53.0084 109.434C54.6124 107.82 56.38 106.416 58.1053 104.958C59.8274 103.503 61.2576 101.852 62.1571 99.6614C63.3053 96.8647 64.6615 94.1621 65.4472 91.2097C65.7741 89.9814 65.9795 88.7377 65.7611 87.4616C65.4566 85.6823 64.1266 85.0962 62.7574 86.192C61.0244 87.5789 59.8556 89.5111 58.5209 91.2768C56.9369 93.3722 55.3158 95.426 53.2955 97.0816C52.9373 97.3751 52.5559 97.6451 52.1599 97.878C50.3355 98.9508 48.6096 98.5554 47.4968 96.7162C46.0316 94.2945 45.6968 91.6134 46.1253 88.8182C46.2874 87.7609 46.8283 86.9121 47.7056 86.3276C48.8822 85.5436 50.0571 84.7569 51.2985 83.9275C50.7409 82.9214 50.2798 81.9079 50.2466 80.748C50.2362 80.3868 49.9834 80.3469 49.7041 80.2998C47.4893 79.9267 46.2004 78.4746 46.4475 76.6508C46.7164 74.6663 48.8329 72.9544 50.7961 73.1797C51.7085 73.2843 52.5775 73.6206 53.3711 74.0944C54.3028 74.6506 54.4532 75.6668 54.5286 76.6735C54.6077 77.7299 55.8075 79.0293 57.1582 79.4682C58.1142 79.7789 58.9303 79.4304 59.653 78.3563C60.1786 77.5752 59.7848 76.8989 59.3085 76.3208C58.6794 75.5573 57.8471 75.0754 56.9497 74.7258C56.4007 74.5119 55.8491 74.3052 55.3007 74.0894C52.8457 73.1231 51.5545 71.2239 51.3545 68.5076C51.3027 67.8042 51.0208 67.5968 50.3998 67.5087C47.1453 67.0466 43.9903 67.3432 40.9132 68.6161C38.7223 69.5224 36.4349 69.7766 34.1092 69.3241C29.7077 68.4676 27.4416 64.8453 28.5429 60.2194C29.6732 55.4716 32.0078 51.4064 35.5755 48.2693C39.1986 45.0834 43.4491 44.6382 47.9307 45.7041C52.8969 46.8851 57.2678 49.4572 61.5747 52.1737C64.9842 54.3242 68.3963 56.4619 72.2774 57.5713C77.7774 59.1435 82.2402 55.4718 82.6057 49.4421C82.9169 44.3096 78.4016 38.1582 73.8477 37.2724C71.9019 36.8938 70.0108 36.2312 68.1295 35.5644C64.3946 34.2406 62.4469 31.2258 61.7092 27.4285C60.4782 21.0922 65.2016 15.7199 71.3539 16.1293C73.7355 16.2878 76.0675 16.6409 78.3292 17.462C82.783 19.0788 85.708 22.3046 87.3641 26.8975C88.2334 29.3082 88.715 31.8271 89.2947 34.3182C89.6786 35.9676 90.2551 37.4932 91.2393 38.8685C92.5901 40.756 93.8011 42.7537 95.2791 44.542C96.1182 45.5574 97.0599 46.442 98.1545 47.1455C99.265 47.8593 100.474 48.0534 101.727 47.8243C104.172 47.3769 105.181 45.472 104.492 42.6244C103.767 39.6288 102.253 37.0142 100.802 34.3783C99.5448 32.0959 98.2241 29.8525 96.9366 27.5888C95.7809 25.557 95.0099 23.3601 94.9558 20.9967C94.8692 17.2154 96.5456 14.1963 101.311 13.9818C104.44 13.8409 107.458 14.6989 110.178 16.3773C112.931 18.0762 114.042 20.9132 114.499 24.0667C115.024 27.6813 114.755 31.3075 114.427 34.9217C114.192 37.5153 113.948 40.1091 114.141 42.713C114.242 44.0744 114.595 45.3728 115.927 46.0212C117.03 46.5578 117.666 46.2083 117.937 44.9807C118.337 43.1632 117.913 41.3649 117.809 39.5635C117.65 36.8286 117.389 34.0953 117.926 31.3793C118.334 29.3196 119.204 27.562 121.1 26.5879C122.306 25.9686 123.182 26.3179 123.682 27.6369C124.12 28.7947 124.267 30.0234 124.272 31.2602C124.288 35.0995 124.277 38.9389 124.281 42.7783C124.282 43.6762 124.417 44.5604 124.736 45.3892C125.129 46.4116 125.807 46.6034 126.67 45.972C127.362 45.4651 127.762 44.7185 128.085 43.921C129.245 41.06 129.592 37.9846 130.211 34.9809C130.934 31.4661 131.615 27.9355 133.345 24.7657C134.932 21.8571 137.273 20.2714 140.516 20.2944C143.679 20.3168 146.078 22.6616 146.35 26.0027C146.748 30.8873 144.291 35.2534 139.682 37.7797C136.852 39.3311 134.272 41.2064 132.309 43.9035C131.33 45.247 130.563 46.699 130.25 48.3947C129.825 50.6958 131.227 52.1577 133.402 51.639C137.947 50.5553 142.626 52.6863 144.991 56.9469C145.625 58.0891 145.999 59.3217 145.792 60.6756C145.702 61.2596 145.887 61.5708 146.481 61.6521C147.297 61.7639 148.053 62.0903 148.72 62.6066C149.9 63.5198 150.239 64.802 150.029 66.2499C149.837 67.5745 148.862 68.0598 147.763 68.3352C147.105 68.5 146.44 68.6328 145.682 68.8014C146.14 70.5097 146.758 72.0963 146.991 73.7853C147.184 75.1795 147.6 76.4226 148.378 77.6415C149.934 80.0795 149.292 82.1994 146.819 83.6055C144.597 84.8685 142.142 85.2127 139.702 85.6301C137.895 85.9391 136.124 86.381 134.601 87.5377C133.069 88.7012 132.518 90.2925 132.983 92.2286C133.416 94.0274 134.336 95.5587 135.415 96.9917C135.88 97.6085 136.401 98.1779 136.879 98.7832C138.382 100.683 140.281 101.845 142.528 102.599C146.556 103.952 150.551 105.437 154.191 107.781C155 108.301 155.75 108.902 156.409 109.622C158.173 111.548 158.117 113.575 156.211 115.326C153.487 117.829 150.394 118.676 146.87 117.582C143.753 116.613 141.095 114.779 138.529 112.763C135.081 110.054 132.024 106.854 128.676 104.018C128.015 103.459 127.331 102.924 126.531 102.608C125.683 102.272 125.279 102.549 125.034 103.475C124.723 104.65 125.014 105.793 125.18 106.931C125.548 109.475 125.915 112.011 125.453 114.584C124.87 117.828 122.797 119.083 119.854 117.906C117.148 116.824 115.178 114.723 113.353 112.461C110.946 109.478 109.263 106.045 107.814 102.466C107.26 101.098 106.629 99.5823 105.021 99.4916C103.517 99.4069 102.725 100.774 102.027 101.974C100.416 104.741 99.7544 107.839 99.2676 111.004C98.6614 114.945 99.5379 118.663 100.515 122.416C101.276 125.338 101.478 128.35 100.833 131.362C100.646 132.236 100.384 133.079 99.9715 133.865C98.8521 135.993 96.9574 136.88 94.6983 136.34C93.6447 136.088 92.6487 135.681 91.6973 135.142C89.1901 133.722 88.1016 131.357 88.4916 128.381C88.9462 124.91 90.2055 121.721 91.4522 118.521C92.9945 114.563 94.7073 110.667 95.5284 106.441C95.9639 104.199 96.0627 101.967 95.2943 99.763C94.8901 98.6036 94.2185 97.6491 93.3548 96.8477C92.258 95.83 91.2112 95.8682 90.1435 96.9163C89.221 97.8219 88.6296 98.9645 88.095 100.145C86.1553 104.426 84.9837 109.006 83.4466 113.444C82.6437 115.762 81.8708 118.095 80.6309 120.208C79.3228 122.438 78.1186 122.965 75.6959 122.41C74.2208 122.073 73.2997 121.005 72.9965 119.267C72.664 117.362 72.7993 115.449 72.8893 113.531C73.0108 110.943 73.6246 108.376 73.1836 105.764C72.8283 103.66 72.0612 101.884 69.9149 101.214C68.0219 100.623 66.1898 101.66 65.8271 103.69C65.4795 105.635 65.3787 107.627 65.0927 109.587C64.7032 112.255 64.0073 114.808 62.2602 116.905C61.5433 117.765 60.7121 118.467 59.6985 119.054ZM102.67 79.0164C102.3 79.5568 101.836 79.9831 101.247 80.2303C100.43 80.5737 99.6707 80.458 99.1769 79.6539C98.7067 78.8883 98.939 78.1368 99.4892 77.4972C99.8688 77.0558 100.382 76.8337 100.891 76.5926C101.49 76.309 102.414 76.0977 102.181 75.2095C101.95 74.3275 101.105 74.7409 100.488 74.8399C99.5951 74.9831 98.829 74.5466 98.6238 73.7613C98.4244 72.9981 98.8915 72.167 99.7365 71.8466C100.353 71.613 101.005 71.5711 101.655 71.5077C102.751 71.4008 103.764 71.0351 104.544 70.1836C105.686 68.937 105.387 67.2746 103.897 66.5552C103.243 66.2394 102.554 66.1086 101.812 66.2157C99.2369 66.5873 97.6997 68.2274 96.7893 70.6674C96.6476 71.047 96.5391 71.5403 96.0104 71.3617C95.518 71.1954 95.7854 70.7487 95.7921 70.3933C95.8243 68.6905 96.1718 66.9647 95.6073 65.2978C95.303 64.3991 94.7123 63.7374 93.7123 63.8458C92.7709 63.9478 92.3285 64.7123 92.1056 65.5642C91.8821 66.4182 91.8123 67.2916 91.9612 68.2041C92.1423 69.3144 92.1829 70.4563 91.8635 71.5651C91.5205 72.7559 90.5846 73.6389 89.6885 73.6354C88.7454 73.6319 88.0054 72.8147 87.6485 71.4644C87.2593 69.9916 87.4781 68.543 87.7384 67.0931C87.9877 65.7041 88.2075 64.3162 87.5904 62.9696C87.1829 62.0803 86.5266 61.4308 85.5663 61.4242C84.6214 61.4177 84.0215 62.0845 83.6943 62.98C83.5089 63.4871 83.3666 64.0193 83.2696 64.5532C82.9297 66.4249 83.0141 68.3002 83.2711 70.1756C83.3182 70.5194 83.5186 70.9664 83.0014 71.1241C82.4886 71.2806 82.4203 70.7955 82.2859 70.4778C81.6081 68.8755 80.6389 67.502 79.2578 66.5267C76.3455 64.4703 73.2335 64.2006 70.0929 65.8191C67.0813 67.3711 65.3402 69.9842 64.8825 73.5132C64.8184 74.0075 64.9484 74.5465 64.5532 75.0961C63.7625 74.3312 63.1819 73.3503 62.1619 72.8932C61.1776 72.4522 60.1547 72.084 59.2642 71.4276C58.6363 70.9647 58.1251 70.4064 57.8356 69.6489C57.3157 68.2889 57.9609 67.2724 59.3651 67.1899C60.267 67.1368 61.0955 67.4179 61.9382 67.6882C62.6449 67.9149 63.3672 67.9847 63.9122 67.2906C64.4695 66.5808 64.5013 65.7999 64.127 64.983C63.8197 64.3123 63.3319 63.8207 62.7488 63.4221C62.0854 62.9687 61.3477 62.7005 60.5897 62.4951C57.2312 61.5851 53.9062 63.1755 52.6943 66.2643C51.713 68.7655 52.7046 71.6283 55.0079 72.8223C55.7638 73.2141 56.5722 73.4957 57.3624 73.8112C58.3185 74.193 59.1881 74.7232 59.9104 75.4868C60.8847 76.5168 61.1157 78.1172 60.4885 79.2786C59.9148 80.3407 58.5848 80.8403 57.2365 80.5136C56.3919 80.309 55.6636 79.8783 55.0041 79.3C54.6291 78.9712 54.2652 78.625 53.8685 78.3278C52.8444 77.5607 52.0593 77.7881 51.5222 78.9814C50.457 81.3479 52.1203 84.3897 54.6013 84.7053C55.648 84.8385 56.6722 84.7933 57.7083 84.6774C61.0773 84.3008 63.8368 81.9039 64.7857 78.5199C64.8546 78.2743 64.8524 77.9687 65.1674 77.8972C65.4185 78.0165 65.4607 78.2692 65.5595 78.4792C67.498 82.6016 70.6238 84.7056 75.0049 84.2409C77.1034 84.0183 78.9132 83.9948 80.3068 85.9966C80.7366 86.614 81.3693 86.3513 81.6553 85.6143C81.8099 85.2156 81.7926 84.8054 81.7161 84.4005C81.4309 82.8928 81.5331 81.4007 81.8876 79.9253C82.0947 79.0637 82.3575 78.2169 82.5945 77.3632C82.9259 76.1691 83.0341 74.9525 82.9984 73.709C82.985 73.2455 82.6631 72.538 83.3071 72.3714C84.0575 72.1773 83.9032 73.0837 84.187 73.4717C84.2632 73.5759 84.2786 73.7271 84.3343 73.8504C85.1326 75.6178 85.9338 77.3778 87.4015 78.68C89.6683 80.6913 92.1708 80.2004 93.5695 77.4493C94.2164 76.177 94.737 74.8493 95.1598 73.4768C95.2567 73.1625 95.3286 72.7428 95.7851 72.8657C96.2035 72.9784 96.1613 73.3747 96.1312 73.7153C96.035 74.8045 95.9056 75.8908 95.8247 76.9812C95.6897 78.8002 95.701 80.6075 96.3225 82.3531C97.0697 84.4513 98.845 85.4694 100.919 84.9703C103.313 84.3938 104.923 82.6629 106.448 80.8033C106.69 80.5087 106.796 80.0649 107.277 79.9371C107.587 80.4882 107.545 81.1242 107.696 81.7003C108.394 84.3568 110.313 85.614 112.822 84.8697C115.25 84.1495 116.947 82.3564 118.393 80.2678C118.571 80.0107 118.587 79.5946 118.976 79.5454C119.224 79.6653 119.186 79.8941 119.216 80.087C119.445 81.5481 120.28 82.4866 121.553 82.9999C122.844 83.5202 124.183 83.7708 125.569 83.5498C127.698 83.2103 129.812 82.8229 131.304 80.8891C131.729 81.5583 131.631 82.2487 131.841 82.852C132.093 83.5792 132.514 84.1332 133.265 84.2365C133.984 84.3354 134.502 83.917 134.884 83.3024C135.171 82.8405 135.378 82.3447 135.517 81.8088C136.75 77.0525 136.92 72.2238 136.409 67.3501C136.363 66.9114 136.261 66.4691 136.119 66.0535C135.552 64.3952 134.244 64.0681 133.016 65.2646C132.551 65.7182 132.214 66.2784 132.095 66.9271C131.923 67.864 131.797 68.8131 131.701 69.7626C131.374 73.0084 131.505 76.266 131.499 79.5202C131.498 79.8269 131.666 80.2085 131.225 80.4797C129.105 77.3785 126.465 78.9575 123.93 79.746C123.861 79.2366 124.086 78.9626 124.231 78.6663C125.144 76.7976 126.336 75.1318 127.573 73.4903C128.888 71.744 130.193 69.9587 130.672 67.724C131.161 65.4423 130.953 63.6787 127.95 63.592C127.658 63.5836 127.367 63.496 127.076 63.5002C125.084 63.5285 123.101 63.6471 121.32 64.7341C120.591 65.1794 120.096 65.8681 120.405 66.7861C120.719 67.7155 121.55 67.85 122.358 67.7532C123.656 67.5976 124.908 67.2325 126.091 66.6231C126.387 66.4705 126.669 66.1407 127.136 66.4059C124.37 70.5885 120.383 73.8861 119.139 79.0882C118.666 78.9115 118.646 78.519 118.49 78.2353C118.161 77.6344 117.69 77.2614 117.043 77.122C115.935 76.8834 115.255 77.5361 114.689 78.3873C114.123 79.2373 113.575 80.0855 112.521 80.3328C111.772 80.5087 111.158 80.2948 110.732 79.628C110.313 78.9695 110.465 78.3165 110.883 77.7179C111.264 77.1721 111.828 76.8936 112.397 76.6314C112.754 76.4672 113.13 76.345 113.421 76.0491C113.69 75.7755 113.936 75.4769 113.759 75.0638C113.602 74.6967 113.248 74.6626 112.916 74.698C112.561 74.7358 112.213 74.8575 111.859 74.8793C111.05 74.9289 110.44 74.5546 110.217 73.7294C110.011 72.9704 110.392 72.4123 111 72.0203C111.31 71.8203 111.659 71.7529 112.014 71.6779C112.934 71.4831 113.888 71.522 114.782 71.125C116.092 70.5434 116.977 69.3884 116.837 68.3163C116.685 67.1546 115.666 66.3259 114.184 66.1719C113.993 66.1521 113.796 66.1789 113.603 66.1989C111.022 66.4667 109.393 68.0237 108.468 70.476C107.777 72.3104 107.607 74.2569 107.481 76.2072C107.439 76.8708 107.572 77.5687 107.229 78.1877C106.923 78.1778 106.785 77.9744 106.617 77.8195C105.45 76.7441 104.431 76.7981 103.409 78.0029C103.172 78.2829 102.973 78.5995 102.67 79.0164ZM148.361 67.1048C149.028 66.7388 149.213 66.1334 149.171 65.3854C149.087 63.8938 147.897 62.7514 146.166 62.5838C144.64 62.4361 143.108 62.481 141.586 62.6351C140.385 62.7565 139.201 63.0052 138.192 63.7842C137.386 64.4062 136.966 65.2375 137.218 66.2781C137.468 67.3119 138.204 67.854 139.192 68.0033C139.48 68.0467 139.782 68.0716 140.067 68.029C140.923 67.9015 141.172 68.3292 141.079 69.147C141.037 69.5199 141.062 69.9009 141.028 70.2754C140.785 72.9698 140.698 75.6666 140.869 78.3705C140.93 79.3417 141.14 80.275 141.585 81.1188C142.086 82.0675 142.825 82.6957 143.933 82.6693C145.019 82.6434 145.651 81.9571 146.093 81.0145C146.52 80.1044 146.679 79.1246 146.607 78.1207C146.388 75.0356 145.888 72.0136 144.721 69.1466C144.56 68.7524 144.311 68.3714 144.401 67.8468C145.695 67.7274 146.996 67.6541 148.361 67.1048ZM32.1405 64.3566C32.5255 64.9479 32.8649 65.5806 33.306 66.1212C34.0203 66.9965 34.9135 67.6234 36.0266 67.7848C36.5026 67.8538 37.0917 67.9292 37.3605 67.4206C37.6588 66.8561 37.145 66.4784 36.8169 66.1258C36.0905 65.3449 35.2567 64.6615 34.6038 63.8204C32.562 61.1902 32.2604 58.2142 33.3196 54.8296C31.091 57.8588 30.3533 60.8697 32.1405 64.3566ZM69.0624 30.4187C68.6103 30.0746 68.1189 29.7901 67.5651 29.7289C66.708 29.6342 65.951 29.8518 65.5118 30.7355C65.0725 31.6194 65.5362 32.2455 66.0993 32.7955C66.9843 33.6599 68.0103 34.18 69.2629 34.0791C70.0568 34.0151 70.4959 33.4894 70.7276 32.7815C70.9597 32.0721 70.5756 31.5311 70.0828 31.1017C69.8114 30.8651 69.483 30.701 69.0624 30.4187ZM144.859 113.525C143.288 112.75 141.716 111.976 139.962 111.111C142.477 113.724 148.679 117.364 151.344 116.407C149.237 115.472 147.115 114.531 144.859 113.525ZM97.5708 133.775C97.5234 133.993 97.4759 134.211 97.4181 134.476C99.9959 133.597 99.9263 127.416 99.1052 124.041C99.0579 127.282 98.5164 130.492 97.5708 133.775ZM38.0106 51.1206C38.0478 51.0262 38.1079 50.9345 38.1186 50.8369C38.1877 50.2055 37.9305 49.8614 37.3107 49.8481C36.6738 49.8344 36.1609 50.1281 36.1377 50.7991C36.1137 51.4938 36.7643 51.3247 37.1766 51.3951C37.4297 51.4384 37.6974 51.4245 38.0106 51.1206ZM139.52 69.0727C139.289 69.1226 139.01 68.9073 138.791 69.2572C138.908 69.9266 139.261 70.4162 140.017 70.7933C139.849 70.126 140.727 69.4183 139.52 69.0727Z" fill="black"/>
<path d="M56.9041 30.7679C60.6604 33.9286 63.0916 38.0269 65.0665 42.4706C65.4233 43.2734 65.6882 44.123 65.9711 44.9601C66.1754 45.5643 66.0923 46.1247 65.5615 46.5119C64.9987 46.9226 64.508 46.6751 64.0734 46.2445C63.4096 45.5867 62.7197 44.9689 61.9692 44.4177C60.3337 43.2164 58.4424 42.9622 56.5442 42.6282C53.2638 42.051 49.9174 42.4861 46.6479 41.8202C43.883 41.2571 41.7093 39.907 40.7823 36.9292C40.075 34.6575 40.9633 32.2438 43.0807 30.6837C45.5087 28.8948 48.2628 28.4332 51.1546 28.5972C53.2511 28.7161 55.1744 29.3492 56.9041 30.7679Z" fill="black"/>
<path d="M154.434 37.8266C156.204 38.2863 157.815 38.893 159.115 40.1883C160.737 41.8047 161.1 44.4566 159.951 46.3969C159.242 47.5954 158.251 48.1035 156.894 47.8972C154.099 47.472 151.347 46.7382 148.504 46.6562C146.267 46.5917 144.088 46.7905 142.043 47.8465C141.396 48.1806 140.728 48.435 139.987 48.4015C138.818 48.3487 138.403 47.6114 138.999 46.5477C139.599 45.4767 140.449 44.6128 141.271 43.7352C143.796 41.0376 146.611 38.8239 150.195 37.9216C151.574 37.5743 152.958 37.5135 154.434 37.8266ZM159.024 41.8441C158.769 41.559 158.514 41.2738 158.26 40.9887C159.43 43.1238 159.248 45.075 157.511 46.8757C159.88 46.1835 160.489 44.0498 159.024 41.8441Z" fill="black"/>
<path d="M146.153 90.5855C146.949 91.5098 148.109 92.0023 148.481 93.2053C149.149 95.3642 148.109 97.26 146.006 97.6825C144.692 97.9465 143.352 97.9098 142.039 97.6225C140.901 97.3733 140.369 96.6317 140.455 95.4192C140.529 94.3654 140.648 93.312 140.806 92.2685C140.989 91.0663 142.143 90.1823 143.637 90.0466C144.496 89.9685 145.319 90.1242 146.153 90.5855Z" fill="black"/>
<path d="M77.7388 71.1855C78.4364 72.1877 78.7831 73.2461 78.7612 74.41C78.738 75.6479 78.1296 76.3385 76.9536 76.3585C76.1293 76.3725 75.897 76.7808 75.8412 77.5506C75.7098 79.3655 74.5263 80.2228 72.8704 79.7502C70.0847 78.9551 68.6545 76.0065 69.4994 72.8001C70.1725 70.2458 72.8632 68.7272 75.3852 69.4805C76.3259 69.7614 77.0643 70.3602 77.7388 71.1855Z" fill="black"/>
</svg>
