<svg width="297" height="184" viewBox="0 0 297 184" fill="none" xmlns="http://www.w3.org/2000/svg">
<rect x="1" y="1" width="295" height="182" rx="19" fill="white" stroke="black" stroke-width="2"/>
<line y1="-1" x2="297" y2="-1" transform="matrix(0.999998 0.00198321 -0.00391236 0.999992 0 21.1387)" stroke="black" stroke-width="2"/>
<line y1="-1" x2="297" y2="-1" transform="matrix(0.999998 0.00198321 -0.00391236 0.999992 0 41.4619)" stroke="black" stroke-width="2"/>
<line y1="-1" x2="297" y2="-1" transform="matrix(0.999998 0.00187414 -0.00414004 0.999991 0 61.7832)" stroke="black" stroke-width="2"/>
<line y1="-1" x2="297" y2="-1" transform="matrix(0.999998 0.00187414 -0.00414004 0.999991 0 82.1064)" stroke="black" stroke-width="2"/>
<line y1="-1" x2="297" y2="-1" transform="matrix(0.999998 0.00198321 -0.00391236 0.999992 0 102.428)" stroke="black" stroke-width="2"/>
<line y1="-1" x2="297" y2="-1" transform="matrix(0.999998 0.00198321 -0.00391236 0.999992 0 122.752)" stroke="black" stroke-width="2"/>
<line y1="-1" x2="297" y2="-1" transform="matrix(0.999998 0.00187414 -0.00414004 0.999991 0 143.073)" stroke="black" stroke-width="2"/>
<line y1="-1" x2="297" y2="-1" transform="matrix(0.999998 0.00187414 -0.00414004 0.999991 0 163.396)" stroke="black" stroke-width="2"/>
<line y1="-1" x2="162.217" y2="-1" transform="matrix(-0.0101996 0.999948 -0.99999 -0.00449598 142.295 21.1387)" stroke="black" stroke-width="2"/>
<path d="M86.625 15.4082V14.146H87.624V9.19922H86.625V7.93701H89.7564L92.5117 12.5991V9.19922H91.5396V7.93701H94.8911V9.19922H93.8438V15.4619H92.1787L88.9561 9.92432V14.146H89.896V15.4082H86.625ZM101.648 14.2104V15.4082H99.1504V14.9678C98.6527 15.3115 98.1478 15.4834 97.6358 15.4834C97.1345 15.4834 96.7406 15.3438 96.4541 15.0645C96.1712 14.7816 96.0298 14.3841 96.0298 13.8721V11.4121H95.251V10.209H97.6841V13.4478C97.6841 13.7056 97.7235 13.8828 97.8023 13.9795C97.881 14.0726 98.0243 14.1191 98.2319 14.1191C98.5112 14.1191 98.8174 13.9956 99.1504 13.7485V11.4121H98.3501V10.209H100.81V14.2104H101.648ZM102.126 11.4121V10.209H102.787V9.39258L104.446 8.2002V10.209H105.402V11.4121H104.446V13.6626C104.446 13.8667 104.471 14.0046 104.521 14.0762C104.575 14.1442 104.695 14.1782 104.881 14.1782C105.035 14.1782 105.209 14.1424 105.402 14.0708V15.2202C104.976 15.3957 104.559 15.4834 104.151 15.4834C103.241 15.4834 102.787 15.0322 102.787 14.1299V11.4121H102.126ZM109.662 14.2104V15.4082H106.004V14.2104H106.965V11.4121H106.063V10.209H108.485V11.5303C108.578 11.1507 108.79 10.8231 109.119 10.5474C109.452 10.2681 109.844 10.1284 110.295 10.1284C110.371 10.1284 110.46 10.1302 110.564 10.1338V11.7021C110.145 11.7021 109.803 11.7487 109.538 11.8418C109.273 11.9349 109.055 12.139 108.883 12.4541C108.711 12.7692 108.625 13.1416 108.625 13.5713V14.2104H109.662ZM112.111 8.72119C112.111 8.47054 112.199 8.2557 112.374 8.07666C112.553 7.89762 112.768 7.80811 113.019 7.80811C113.273 7.80811 113.488 7.89762 113.663 8.07666C113.839 8.2557 113.926 8.47054 113.926 8.72119C113.926 8.97184 113.837 9.18669 113.658 9.36572C113.482 9.54118 113.269 9.62891 113.019 9.62891C112.771 9.62891 112.558 9.53939 112.379 9.36035C112.2 9.18132 112.111 8.96826 112.111 8.72119ZM111.38 11.4121V10.209H113.83V14.2104H114.603V15.4082H111.38V14.2104H112.17V11.4121H111.38ZM115.027 11.4121V10.209H115.688V9.39258L117.348 8.2002V10.209H118.304V11.4121H117.348V13.6626C117.348 13.8667 117.373 14.0046 117.423 14.0762C117.477 14.1442 117.597 14.1782 117.783 14.1782C117.937 14.1782 118.11 14.1424 118.304 14.0708V15.2202C117.878 15.3957 117.46 15.4834 117.052 15.4834C116.143 15.4834 115.688 15.0322 115.688 14.1299V11.4121H115.027ZM119.802 8.72119C119.802 8.47054 119.89 8.2557 120.065 8.07666C120.244 7.89762 120.459 7.80811 120.71 7.80811C120.964 7.80811 121.179 7.89762 121.355 8.07666C121.53 8.2557 121.618 8.47054 121.618 8.72119C121.618 8.97184 121.528 9.18669 121.349 9.36572C121.174 9.54118 120.961 9.62891 120.71 9.62891C120.463 9.62891 120.25 9.53939 120.071 9.36035C119.892 9.18132 119.802 8.96826 119.802 8.72119ZM119.072 11.4121V10.209H121.521V14.2104H122.294V15.4082H119.072V14.2104H119.861V11.4121H119.072ZM125.662 15.5264C124.896 15.5264 124.248 15.2847 123.718 14.8013C123.191 14.3143 122.928 13.6483 122.928 12.8032C122.928 11.9582 123.191 11.2939 123.718 10.8105C124.248 10.3236 124.896 10.0801 125.662 10.0801C126.432 10.0801 127.08 10.3236 127.606 10.8105C128.133 11.2939 128.396 11.9582 128.396 12.8032C128.396 13.6375 128.135 14.3 127.612 14.7905C127.093 15.2811 126.443 15.5264 125.662 15.5264ZM125.657 14.2373C125.965 14.2373 126.214 14.1191 126.403 13.8828C126.597 13.6465 126.693 13.2759 126.693 12.771C126.693 12.327 126.6 11.9814 126.414 11.7344C126.228 11.4837 125.975 11.3584 125.657 11.3584C124.973 11.3584 124.631 11.8525 124.631 12.8408C124.631 13.2454 124.715 13.5802 124.883 13.8452C125.055 14.1066 125.313 14.2373 125.657 14.2373ZM129.207 11.4121V10.209H131.662V10.6924C132.163 10.3164 132.671 10.1284 133.187 10.1284C134.236 10.1284 134.761 10.798 134.761 12.1372V14.2104H135.545V15.4082H133.101V12.2607C133.101 11.9779 133.062 11.7845 132.983 11.6807C132.908 11.5768 132.782 11.5249 132.607 11.5249C132.299 11.5249 131.984 11.6377 131.662 11.8633V14.2104H132.462V15.4082H129.207V14.2104H130.002V11.4121H129.207ZM138.751 15.4082V14.146H139.82V9.19922H138.751V7.93701H145.438V10.2412H144.01V9.19922H141.765V10.9287H143.381V12.1909H141.765V14.146H142.914V15.4082H138.751ZM150.702 14.2104V15.4082H148.205V15C147.757 15.3223 147.284 15.4834 146.787 15.4834C146.271 15.4834 145.825 15.3366 145.449 15.043C145.077 14.7493 144.891 14.3555 144.891 13.8613C144.891 13.3636 145.088 12.9465 145.481 12.6099C145.875 12.2733 146.384 12.105 147.007 12.105C147.354 12.105 147.753 12.1927 148.205 12.3682V12.0513C148.205 11.7863 148.115 11.5697 147.936 11.4014C147.757 11.2295 147.517 11.1436 147.216 11.1436C146.844 11.1436 146.525 11.2796 146.26 11.5518L144.923 11.3101C145.31 10.4901 146.149 10.0801 147.442 10.0801C147.943 10.0801 148.359 10.1374 148.688 10.252C149.017 10.363 149.263 10.508 149.424 10.687C149.585 10.866 149.698 11.063 149.762 11.2778C149.83 11.4891 149.864 11.8346 149.864 12.3145V14.2104H150.702ZM148.205 13.4854C147.804 13.2347 147.483 13.1094 147.243 13.1094C147.053 13.1094 146.88 13.1649 146.722 13.2759C146.568 13.3869 146.491 13.548 146.491 13.7593C146.491 13.9491 146.554 14.112 146.679 14.248C146.805 14.3841 146.966 14.4521 147.163 14.4521C147.471 14.4521 147.818 14.2713 148.205 13.9097V13.4854ZM156.621 10.209V12.3198H155.439C155.171 11.7397 154.75 11.4497 154.177 11.4497C153.812 11.4497 153.52 11.5715 153.302 11.8149C153.087 12.0549 152.98 12.3771 152.98 12.7817C152.98 13.2723 153.094 13.6357 153.323 13.8721C153.552 14.1048 153.834 14.2212 154.167 14.2212C154.431 14.2212 154.682 14.146 154.918 13.9956C155.155 13.8416 155.345 13.6393 155.488 13.3887L156.777 13.958C156.297 15.0036 155.456 15.5264 154.252 15.5264C153.347 15.5264 152.623 15.2793 152.083 14.7852C151.545 14.291 151.277 13.6304 151.277 12.8032C151.277 11.9761 151.54 11.3244 152.066 10.8481C152.596 10.3683 153.212 10.1284 153.914 10.1284C154.476 10.1284 155.001 10.2985 155.488 10.6387V10.209H156.621ZM157.266 11.4121V10.209H157.926V9.39258L159.586 8.2002V10.209H160.542V11.4121H159.586V13.6626C159.586 13.8667 159.611 14.0046 159.661 14.0762C159.715 14.1442 159.835 14.1782 160.021 14.1782C160.175 14.1782 160.349 14.1424 160.542 14.0708V15.2202C160.116 15.3957 159.699 15.4834 159.291 15.4834C158.381 15.4834 157.926 15.0322 157.926 14.1299V11.4121H157.266ZM161.487 15.4082V13.6196H162.701C162.712 13.8631 162.825 14.0583 163.04 14.2051C163.254 14.3483 163.519 14.4199 163.834 14.4199C164.107 14.4199 164.318 14.3734 164.468 14.2803C164.622 14.1836 164.699 14.0618 164.699 13.915C164.699 13.779 164.629 13.6733 164.49 13.5981C164.35 13.5229 164.076 13.4513 163.668 13.3833C162.827 13.2472 162.22 13.0413 161.847 12.7656C161.475 12.4863 161.289 12.1175 161.289 11.6592C161.289 11.2295 161.464 10.8678 161.815 10.5742C162.166 10.277 162.631 10.1284 163.211 10.1284C163.681 10.1284 164.119 10.2144 164.527 10.3862V10.209H165.714V11.7183H164.527C164.42 11.3566 164.04 11.1758 163.389 11.1758C162.909 11.1758 162.669 11.3083 162.669 11.5732C162.669 11.6735 162.717 11.7505 162.814 11.8042C162.914 11.8543 163.167 11.9152 163.571 11.9868C164.212 12.0978 164.692 12.2088 165.011 12.3198C165.329 12.4308 165.584 12.6152 165.773 12.873C165.967 13.1273 166.063 13.4334 166.063 13.7915C166.063 14.3 165.881 14.7171 165.516 15.043C165.154 15.3652 164.64 15.5264 163.974 15.5264C163.355 15.5264 162.93 15.401 162.701 15.1504V15.4082H161.487ZM169.598 13.5337V12.0835H172.6V13.5337H169.598ZM176.14 13.1255L177.579 13.0073C177.597 13.8846 177.926 14.3232 178.567 14.3232C178.857 14.3232 179.094 14.2176 179.276 14.0063C179.459 13.7951 179.55 13.5265 179.55 13.2007C179.55 12.882 179.461 12.617 179.282 12.4058C179.103 12.1909 178.834 12.0835 178.476 12.0835C178.39 12.0835 178.279 12.0871 178.143 12.0942V10.8374C178.569 10.8374 178.879 10.7425 179.072 10.5527C179.266 10.3594 179.362 10.1248 179.362 9.84912C179.362 9.60563 179.289 9.4069 179.142 9.25293C178.995 9.09538 178.804 9.0166 178.567 9.0166C178.037 9.0166 177.772 9.34603 177.772 10.0049L176.371 9.89746C176.399 9.2207 176.625 8.70329 177.047 8.34521C177.473 7.98714 178.012 7.80811 178.664 7.80811C179.398 7.80811 179.967 7.98356 180.372 8.33447C180.78 8.68538 180.984 9.1652 180.984 9.77393C180.984 10.5653 180.612 11.131 179.867 11.4712C180.791 11.772 181.253 12.3664 181.253 13.2544C181.253 13.9598 181.015 14.5112 180.539 14.9087C180.062 15.3062 179.457 15.5049 178.723 15.5049C177.123 15.5049 176.261 14.7118 176.14 13.1255ZM182.209 13.3994L183.622 13.2329C183.718 13.9491 184.048 14.3071 184.61 14.3071C184.932 14.3071 185.179 14.1997 185.351 13.9849C185.527 13.7664 185.614 13.4585 185.614 13.061C185.614 12.1766 185.29 11.7344 184.642 11.7344C184.284 11.7344 183.985 11.9295 183.745 12.3198L182.547 11.7236L182.768 7.93701H186.962V9.69336H185.872L185.77 9.13477H183.847L183.745 10.9287C184.139 10.6458 184.563 10.5044 185.018 10.5044C185.749 10.5044 186.314 10.7425 186.715 11.2188C187.12 11.6914 187.322 12.2679 187.322 12.9482C187.322 13.6751 187.106 14.2839 186.672 14.7744C186.243 15.2614 185.591 15.5049 184.717 15.5049C183.969 15.5049 183.387 15.3151 182.972 14.9355C182.556 14.556 182.302 14.0439 182.209 13.3994ZM188.278 13.3994L189.691 13.2329C189.788 13.9491 190.117 14.3071 190.679 14.3071C191.001 14.3071 191.249 14.1997 191.42 13.9849C191.596 13.7664 191.684 13.4585 191.684 13.061C191.684 12.1766 191.36 11.7344 190.711 11.7344C190.353 11.7344 190.054 11.9295 189.814 12.3198L188.617 11.7236L188.837 7.93701H193.032V9.69336H191.941L191.839 9.13477H189.917L189.814 10.9287C190.208 10.6458 190.633 10.5044 191.087 10.5044C191.818 10.5044 192.384 10.7425 192.785 11.2188C193.189 11.6914 193.392 12.2679 193.392 12.9482C193.392 13.6751 193.175 14.2839 192.742 14.7744C192.312 15.2614 191.66 15.5049 190.787 15.5049C190.038 15.5049 189.456 15.3151 189.041 14.9355C188.626 14.556 188.371 14.0439 188.278 13.3994ZM197.022 11.4121V10.209H199.542V10.6333C200.107 10.2967 200.669 10.1284 201.228 10.1284C201.898 10.1284 202.417 10.3665 202.786 10.8428C203.455 10.3665 204.155 10.1284 204.886 10.1284C205.319 10.1284 205.67 10.209 205.938 10.3701C206.211 10.5277 206.397 10.7407 206.497 11.0093C206.597 11.2778 206.647 11.6842 206.647 12.2285V14.2104H207.507V15.4082H204.988V12.3628C204.988 11.8185 204.753 11.5464 204.284 11.5464C203.915 11.5464 203.516 11.6646 203.086 11.9009V14.2104H203.946V15.4082H201.427V12.4111C201.427 11.8346 201.201 11.5464 200.75 11.5464C200.399 11.5464 199.996 11.6646 199.542 11.9009V14.2104H200.401V15.4082H197.022V14.2104H197.882V11.4121H197.022ZM208.001 15.4082V14.2104H208.817V9.13477H208.001V7.93701H210.477V14.2104H211.224V15.4082H208.001Z" fill="black"/>
<path d="M56.8179 27.1606H58.0801V29.7925H56.8179C56.4598 28.8472 55.8385 28.3745 54.9541 28.3745C54.2236 28.3745 53.6704 28.6234 53.2944 29.1211C52.922 29.6188 52.7358 30.215 52.7358 30.9097C52.7358 31.6366 52.9328 32.2256 53.3267 32.6768C53.7241 33.1243 54.229 33.3481 54.8413 33.3481C55.3426 33.3481 55.7812 33.1781 56.1572 32.8379C56.5332 32.4977 56.7874 32.0251 56.9199 31.4199L58.3916 32.1235C57.833 33.8566 56.603 34.7231 54.7017 34.7231C53.3589 34.7231 52.3455 34.3615 51.6616 33.6382C50.9813 32.9149 50.6411 32 50.6411 30.8936C50.6411 30.1058 50.8184 29.4165 51.1728 28.8257C51.5273 28.2349 52.0036 27.7909 52.6016 27.4937C53.2031 27.1929 53.862 27.0425 54.5781 27.0425C55.4697 27.0425 56.2163 27.2752 56.8179 27.7407V27.1606ZM64.9497 33.4341V34.6318H62.4521V34.2236C62.0045 34.5459 61.5319 34.707 61.0342 34.707C60.5185 34.707 60.0727 34.5602 59.6968 34.2666C59.3244 33.973 59.1382 33.5791 59.1382 33.085C59.1382 32.5872 59.3351 32.1701 59.729 31.8335C60.1229 31.4969 60.6313 31.3286 61.2544 31.3286C61.6017 31.3286 62.001 31.4163 62.4521 31.5918V31.2749C62.4521 31.0099 62.3626 30.7933 62.1836 30.625C62.0045 30.4531 61.7646 30.3672 61.4639 30.3672C61.0915 30.3672 60.7728 30.5033 60.5078 30.7754L59.1704 30.5337C59.5571 29.7137 60.3968 29.3037 61.6894 29.3037C62.1907 29.3037 62.6061 29.361 62.9355 29.4756C63.265 29.5866 63.5102 29.7316 63.6714 29.9106C63.8325 30.0897 63.9453 30.2866 64.0098 30.5015C64.0778 30.7127 64.1118 31.0583 64.1118 31.5381V33.4341H64.9497ZM62.4521 32.709C62.0511 32.4583 61.7306 32.333 61.4907 32.333C61.3009 32.333 61.1273 32.3885 60.9697 32.4995C60.8157 32.6105 60.7388 32.7716 60.7388 32.9829C60.7388 33.1727 60.8014 33.3356 60.9268 33.4717C61.0521 33.6077 61.2132 33.6758 61.4101 33.6758C61.7181 33.6758 62.0654 33.495 62.4521 33.1333V32.709ZM65.5083 34.6318V33.4341H66.3247V28.3584H65.5083V27.1606H67.9844V33.4341H68.7309V34.6318H65.5083ZM72.1577 34.75C71.3914 34.75 70.7433 34.5083 70.2134 34.0249C69.687 33.5379 69.4238 32.8719 69.4238 32.0269C69.4238 31.1818 69.687 30.5176 70.2134 30.0342C70.7433 29.5472 71.3914 29.3037 72.1577 29.3037C72.9276 29.3037 73.5757 29.5472 74.102 30.0342C74.6284 30.5176 74.8916 31.1818 74.8916 32.0269C74.8916 32.8612 74.6302 33.5236 74.1074 34.0142C73.5882 34.5047 72.9383 34.75 72.1577 34.75ZM72.1523 33.4609C72.4603 33.4609 72.7091 33.3428 72.8989 33.1064C73.0923 32.8701 73.189 32.4995 73.189 31.9946C73.189 31.5506 73.0959 31.2051 72.9097 30.958C72.7235 30.7074 72.471 30.582 72.1523 30.582C71.4684 30.582 71.1265 31.0762 71.1265 32.0645C71.1265 32.4691 71.2106 32.8039 71.3789 33.0688C71.5508 33.3302 71.8086 33.4609 72.1523 33.4609ZM79.2637 33.4341V34.6318H75.6059V33.4341H76.5674V30.6357H75.665V29.4326H78.0874V30.7539C78.1805 30.3743 78.3918 30.0467 78.7212 29.771C79.0542 29.4917 79.4463 29.3521 79.8975 29.3521C79.9726 29.3521 80.0622 29.3538 80.166 29.3574V30.9258C79.7471 30.9258 79.4051 30.9723 79.1401 31.0654C78.8752 31.1585 78.6567 31.3626 78.4849 31.6777C78.313 31.9928 78.227 32.3652 78.227 32.7949V33.4341H79.2637ZM81.7129 27.9448C81.7129 27.6942 81.8006 27.4793 81.9761 27.3003C82.1551 27.1213 82.3699 27.0317 82.6206 27.0317C82.8748 27.0317 83.0897 27.1213 83.2651 27.3003C83.4406 27.4793 83.5283 27.6942 83.5283 27.9448C83.5283 28.1955 83.4388 28.4103 83.2598 28.5894C83.0843 28.7648 82.8712 28.8525 82.6206 28.8525C82.3735 28.8525 82.1605 28.763 81.9814 28.584C81.8024 28.4049 81.7129 28.1919 81.7129 27.9448ZM80.9824 30.6357V29.4326H83.4316V33.4341H84.2051V34.6318H80.9824V33.4341H81.772V30.6357H80.9824ZM89.0015 33.0635L90.2905 33.4771C89.7498 34.3257 88.9048 34.75 87.7554 34.75C86.8387 34.75 86.1226 34.5083 85.6069 34.0249C85.0949 33.5415 84.8389 32.9059 84.8389 32.1182C84.8389 31.3161 85.1038 30.6465 85.6338 30.1094C86.1637 29.5723 86.8387 29.3037 87.6587 29.3037C88.2531 29.3037 88.7669 29.4541 89.2002 29.7549C89.6335 30.0557 89.9342 30.4299 90.1025 30.8774C90.2708 31.325 90.355 31.8245 90.355 32.376H86.4824C86.5075 32.8486 86.6561 33.1834 86.9282 33.3804C87.2039 33.5773 87.494 33.6758 87.7983 33.6758C88.1958 33.6758 88.5968 33.4717 89.0015 33.0635ZM88.6846 31.4521C88.6452 31.1621 88.5306 30.915 88.3408 30.7109C88.1546 30.5068 87.8986 30.4048 87.5727 30.4048C86.964 30.4048 86.6095 30.7539 86.5093 31.4521H88.6846ZM91.3647 34.6318V32.8433H92.5786C92.5893 33.0868 92.7021 33.2819 92.917 33.4287C93.1318 33.5719 93.3968 33.6436 93.7119 33.6436C93.984 33.6436 94.1953 33.597 94.3457 33.5039C94.4997 33.4072 94.5767 33.2855 94.5767 33.1387C94.5767 33.0026 94.5068 32.897 94.3672 32.8218C94.2275 32.7466 93.9536 32.675 93.5454 32.6069C92.7039 32.4709 92.097 32.265 91.7246 31.9893C91.3522 31.71 91.166 31.3411 91.166 30.8828C91.166 30.4531 91.3415 30.0915 91.6924 29.7979C92.0433 29.5007 92.5088 29.3521 93.0889 29.3521C93.5579 29.3521 93.9966 29.438 94.4048 29.6099V29.4326H95.5918V30.9419H94.4048C94.2974 30.5802 93.9178 30.3994 93.2661 30.3994C92.7863 30.3994 92.5464 30.5319 92.5464 30.7969C92.5464 30.8971 92.5947 30.9741 92.6914 31.0278C92.7917 31.078 93.0441 31.1388 93.4487 31.2104C94.0897 31.3215 94.5695 31.4325 94.8882 31.5435C95.2069 31.6545 95.4611 31.8389 95.6509 32.0967C95.8442 32.3509 95.9409 32.6571 95.9409 33.0151C95.9409 33.5236 95.7583 33.9408 95.3931 34.2666C95.0314 34.5889 94.5176 34.75 93.8516 34.75C93.2321 34.75 92.8078 34.6247 92.5786 34.374V34.6318H91.3647Z" fill="black"/>
<path d="M209.59 34.6318V33.4341H210.621V28.3584H209.525V27.1606H212.265V33.4341H213.242V34.6318H209.59ZM219.784 32.4619L219.72 34.6318H214.934C214.934 33.9801 214.986 33.4753 215.09 33.1172C215.197 32.7591 215.371 32.4118 215.611 32.0752C215.854 31.7386 216.193 31.3698 216.626 30.9688C217.195 30.446 217.569 30.0628 217.749 29.8193C217.931 29.5723 218.022 29.2948 218.022 28.9868C218.022 28.7576 217.954 28.5697 217.818 28.4229C217.682 28.2725 217.512 28.1973 217.308 28.1973C217.011 28.1973 216.791 28.3208 216.647 28.5679C216.508 28.8114 216.427 29.2106 216.406 29.7656L215.036 29.7012C215.036 28.9814 215.144 28.439 215.358 28.0737C215.573 27.7085 215.865 27.4435 216.234 27.2788C216.603 27.1141 217.004 27.0317 217.437 27.0317C218.15 27.0317 218.708 27.2287 219.113 27.6226C219.521 28.0164 219.725 28.507 219.725 29.0942C219.725 29.4093 219.662 29.7012 219.537 29.9697C219.415 30.2347 219.26 30.4585 219.07 30.6411C218.884 30.8201 218.552 31.0798 218.076 31.4199C217.36 31.932 216.911 32.3384 216.728 32.6392C216.545 32.9399 216.438 33.2049 216.406 33.4341H218.581V32.4619H219.784ZM223.512 34.7285C222.677 34.7285 222.04 34.3991 221.6 33.7402C221.163 33.0778 220.944 32.1235 220.944 30.8774C220.944 29.6564 221.157 28.7111 221.583 28.0415C222.013 27.3683 222.656 27.0317 223.512 27.0317C224.364 27.0317 225.005 27.3665 225.435 28.0361C225.864 28.7021 226.079 29.6493 226.079 30.8774C226.079 32.1271 225.859 33.0814 225.418 33.7402C224.978 34.3991 224.342 34.7285 223.512 34.7285ZM223.501 33.5146C223.884 33.5146 224.126 33.2103 224.226 32.6016C224.326 31.9928 224.376 31.4181 224.376 30.8774C224.376 30.0109 224.308 29.3556 224.172 28.9116C224.04 28.464 223.82 28.2402 223.512 28.2402C223.2 28.2402 222.978 28.4694 222.846 28.9277C222.713 29.3825 222.647 30.0342 222.647 30.8828C222.647 31.7493 222.713 32.4046 222.846 32.8486C222.982 33.2926 223.2 33.5146 223.501 33.5146Z" fill="black"/>
<path d="M212.345 55.0518C211.511 55.0518 210.874 54.7223 210.433 54.0635C209.996 53.401 209.778 52.4468 209.778 51.2007C209.778 49.9797 209.991 49.0343 210.417 48.3647C210.847 47.6916 211.489 47.355 212.345 47.355C213.197 47.355 213.838 47.6898 214.268 48.3594C214.698 49.0254 214.913 49.9725 214.913 51.2007C214.913 52.4504 214.692 53.4046 214.252 54.0635C213.812 54.7223 213.176 55.0518 212.345 55.0518ZM212.334 53.8379C212.718 53.8379 212.959 53.5335 213.06 52.9248C213.16 52.3161 213.21 51.7414 213.21 51.2007C213.21 50.3341 213.142 49.6789 213.006 49.2349C212.873 48.7873 212.653 48.5635 212.345 48.5635C212.034 48.5635 211.812 48.7926 211.679 49.251C211.547 49.7057 211.48 50.3574 211.48 51.2061C211.48 52.0726 211.547 52.7279 211.679 53.1719C211.815 53.6159 212.034 53.8379 212.334 53.8379ZM217.695 51.3511C216.642 51.3511 216.116 50.6851 216.116 49.353C216.116 48.021 216.644 47.355 217.7 47.355C218.219 47.355 218.611 47.5286 218.876 47.876C219.141 48.2197 219.274 48.7121 219.274 49.353C219.274 50.6851 218.748 51.3511 217.695 51.3511ZM217.684 50.6636C217.988 50.6636 218.141 50.2285 218.141 49.3584C218.141 48.4811 217.992 48.0425 217.695 48.0425C217.398 48.0425 217.249 48.4775 217.249 49.3477C217.249 50.2249 217.394 50.6636 217.684 50.6636ZM217.292 54.9551L222.701 47.4839H223.662L218.253 54.9551H217.292ZM223.243 55.0518C222.19 55.0518 221.664 54.3857 221.664 53.0537C221.664 51.7217 222.192 51.0557 223.249 51.0557C223.768 51.0557 224.16 51.2293 224.425 51.5767C224.69 51.924 224.822 52.4163 224.822 53.0537C224.822 54.3857 224.296 55.0518 223.243 55.0518ZM223.232 54.3643C223.533 54.3643 223.684 53.9292 223.684 53.0591C223.684 52.1818 223.537 51.7432 223.243 51.7432C222.946 51.7432 222.797 52.1782 222.797 53.0483C222.797 53.9256 222.942 54.3643 223.232 54.3643Z" fill="black"/>
<path d="M212.345 75.373C211.511 75.373 210.874 75.0436 210.433 74.3848C209.996 73.7223 209.778 72.7681 209.778 71.522C209.778 70.3009 209.991 69.3556 210.417 68.686C210.847 68.0129 211.489 67.6763 212.345 67.6763C213.197 67.6763 213.838 68.0111 214.268 68.6807C214.698 69.3467 214.913 70.2938 214.913 71.522C214.913 72.7716 214.692 73.7259 214.252 74.3848C213.812 75.0436 213.176 75.373 212.345 75.373ZM212.334 74.1592C212.718 74.1592 212.959 73.8548 213.06 73.2461C213.16 72.6374 213.21 72.0627 213.21 71.522C213.21 70.6554 213.142 70.0002 213.006 69.5562C212.873 69.1086 212.653 68.8848 212.345 68.8848C212.034 68.8848 211.812 69.1139 211.679 69.5723C211.547 70.027 211.48 70.6787 211.48 71.5273C211.48 72.3939 211.547 73.0492 211.679 73.4932C211.815 73.9372 212.034 74.1592 212.334 74.1592ZM217.695 71.6724C216.642 71.6724 216.116 71.0063 216.116 69.6743C216.116 68.3423 216.644 67.6763 217.7 67.6763C218.219 67.6763 218.611 67.8499 218.876 68.1973C219.141 68.541 219.274 69.0334 219.274 69.6743C219.274 71.0063 218.748 71.6724 217.695 71.6724ZM217.684 70.9849C217.988 70.9849 218.141 70.5498 218.141 69.6797C218.141 68.8024 217.992 68.3638 217.695 68.3638C217.398 68.3638 217.249 68.7988 217.249 69.6689C217.249 70.5462 217.394 70.9849 217.684 70.9849ZM217.292 75.2764L222.701 67.8052H223.662L218.253 75.2764H217.292ZM223.243 75.373C222.19 75.373 221.664 74.707 221.664 73.375C221.664 72.043 222.192 71.377 223.249 71.377C223.768 71.377 224.16 71.5506 224.425 71.8979C224.69 72.2453 224.822 72.7376 224.822 73.375C224.822 74.707 224.296 75.373 223.243 75.373ZM223.232 74.6855C223.533 74.6855 223.684 74.2505 223.684 73.3804C223.684 72.5031 223.537 72.0645 223.243 72.0645C222.946 72.0645 222.797 72.4995 222.797 73.3696C222.797 74.2469 222.942 74.6855 223.232 74.6855Z" fill="black"/>
<path d="M210.562 95.6006V94.4028H211.593V89.3271H210.498V88.1294H213.237V94.4028H214.214V95.6006H210.562ZM217.695 91.9966C216.642 91.9966 216.116 91.3306 216.116 89.9985C216.116 88.6665 216.644 88.0005 217.7 88.0005C218.219 88.0005 218.611 88.1742 218.876 88.5215C219.141 88.8652 219.274 89.3576 219.274 89.9985C219.274 91.3306 218.748 91.9966 217.695 91.9966ZM217.684 91.3091C217.988 91.3091 218.141 90.874 218.141 90.0039C218.141 89.1266 217.992 88.688 217.695 88.688C217.398 88.688 217.249 89.123 217.249 89.9932C217.249 90.8704 217.394 91.3091 217.684 91.3091ZM217.292 95.6006L222.701 88.1294H223.662L218.253 95.6006H217.292ZM223.243 95.6973C222.19 95.6973 221.664 95.0312 221.664 93.6992C221.664 92.3672 222.192 91.7012 223.249 91.7012C223.768 91.7012 224.16 91.8748 224.425 92.2222C224.69 92.5695 224.822 93.0618 224.822 93.6992C224.822 95.0312 224.296 95.6973 223.243 95.6973ZM223.232 95.0098C223.533 95.0098 223.684 94.5747 223.684 93.7046C223.684 92.8273 223.537 92.3887 223.243 92.3887C222.946 92.3887 222.797 92.8237 222.797 93.6938C222.797 94.5711 222.942 95.0098 223.232 95.0098Z" fill="black"/>
<path d="M207.527 115.921V114.723H208.559V109.647H207.463V108.45H210.202V114.723H211.18V115.921H207.527ZM215.38 116.018C214.546 116.018 213.908 115.688 213.468 115.029C213.031 114.367 212.812 113.413 212.812 112.167C212.812 110.945 213.026 110 213.452 109.331C213.881 108.657 214.524 108.321 215.38 108.321C216.232 108.321 216.873 108.656 217.303 109.325C217.732 109.991 217.947 110.938 217.947 112.167C217.947 113.416 217.727 114.37 217.287 115.029C216.846 115.688 216.211 116.018 215.38 116.018ZM215.369 114.804C215.752 114.804 215.994 114.499 216.094 113.891C216.194 113.282 216.245 112.707 216.245 112.167C216.245 111.3 216.177 110.645 216.041 110.201C215.908 109.753 215.688 109.529 215.38 109.529C215.068 109.529 214.846 109.758 214.714 110.217C214.581 110.672 214.515 111.323 214.515 112.172C214.515 113.038 214.581 113.694 214.714 114.138C214.85 114.582 215.068 114.804 215.369 114.804ZM220.729 112.317C219.677 112.317 219.15 111.651 219.15 110.319C219.15 108.987 219.679 108.321 220.735 108.321C221.254 108.321 221.646 108.494 221.911 108.842C222.176 109.186 222.309 109.678 222.309 110.319C222.309 111.651 221.782 112.317 220.729 112.317ZM220.719 111.629C221.023 111.629 221.175 111.194 221.175 110.324C221.175 109.447 221.027 109.008 220.729 109.008C220.432 109.008 220.284 109.443 220.284 110.313C220.284 111.191 220.429 111.629 220.719 111.629ZM220.327 115.921L225.735 108.45H226.697L221.288 115.921H220.327ZM226.278 116.018C225.225 116.018 224.699 115.352 224.699 114.02C224.699 112.688 225.227 112.021 226.283 112.021C226.802 112.021 227.194 112.195 227.459 112.542C227.724 112.89 227.857 113.382 227.857 114.02C227.857 115.352 227.331 116.018 226.278 116.018ZM226.267 115.33C226.568 115.33 226.718 114.895 226.718 114.025C226.718 113.148 226.571 112.709 226.278 112.709C225.981 112.709 225.832 113.144 225.832 114.014C225.832 114.891 225.977 115.33 226.267 115.33Z" fill="black"/>
<path d="M214.687 134.074L214.623 136.244H209.837C209.837 135.592 209.889 135.088 209.993 134.729C210.1 134.371 210.274 134.024 210.514 133.688C210.757 133.351 211.096 132.982 211.529 132.581C212.098 132.058 212.472 131.675 212.651 131.432C212.834 131.185 212.925 130.907 212.925 130.599C212.925 130.37 212.857 130.182 212.721 130.035C212.585 129.885 212.415 129.81 212.211 129.81C211.914 129.81 211.694 129.933 211.55 130.18C211.411 130.424 211.33 130.823 211.309 131.378L209.939 131.313C209.939 130.594 210.046 130.051 210.261 129.686C210.476 129.321 210.768 129.056 211.137 128.891C211.506 128.726 211.907 128.644 212.34 128.644C213.052 128.644 213.611 128.841 214.016 129.235C214.424 129.629 214.628 130.119 214.628 130.707C214.628 131.022 214.565 131.313 214.44 131.582C214.318 131.847 214.162 132.071 213.973 132.253C213.786 132.432 213.455 132.692 212.979 133.032C212.263 133.544 211.813 133.951 211.631 134.251C211.448 134.552 211.341 134.817 211.309 135.046H213.484V134.074H214.687ZM217.695 132.64C216.642 132.64 216.116 131.974 216.116 130.642C216.116 129.31 216.644 128.644 217.7 128.644C218.219 128.644 218.611 128.818 218.876 129.165C219.141 129.509 219.274 130.001 219.274 130.642C219.274 131.974 218.748 132.64 217.695 132.64ZM217.684 131.953C217.988 131.953 218.141 131.518 218.141 130.647C218.141 129.77 217.992 129.332 217.695 129.332C217.398 129.332 217.249 129.767 217.249 130.637C217.249 131.514 217.394 131.953 217.684 131.953ZM217.292 136.244L222.701 128.773H223.662L218.253 136.244H217.292ZM223.243 136.341C222.19 136.341 221.664 135.675 221.664 134.343C221.664 133.011 222.192 132.345 223.249 132.345C223.768 132.345 224.16 132.518 224.425 132.866C224.69 133.213 224.822 133.705 224.822 134.343C224.822 135.675 224.296 136.341 223.243 136.341ZM223.232 135.653C223.533 135.653 223.684 135.218 223.684 134.348C223.684 133.471 223.537 133.032 223.243 133.032C222.946 133.032 222.797 133.467 222.797 134.337C222.797 135.215 222.942 135.653 223.232 135.653Z" fill="black"/>
<path d="M214.005 156.662C213.171 156.662 212.533 156.333 212.093 155.674C211.656 155.011 211.437 154.057 211.437 152.811C211.437 151.59 211.651 150.645 212.077 149.975C212.506 149.302 213.149 148.965 214.005 148.965C214.857 148.965 215.498 149.3 215.928 149.97C216.357 150.636 216.572 151.583 216.572 152.811C216.572 154.061 216.352 155.015 215.912 155.674C215.471 156.333 214.836 156.662 214.005 156.662ZM213.994 155.448C214.377 155.448 214.619 155.144 214.719 154.535C214.819 153.926 214.87 153.352 214.87 152.811C214.87 151.944 214.802 151.289 214.666 150.845C214.533 150.398 214.313 150.174 214.005 150.174C213.693 150.174 213.471 150.403 213.339 150.861C213.206 151.316 213.14 151.968 213.14 152.816C213.14 153.683 213.206 154.338 213.339 154.782C213.475 155.226 213.693 155.448 213.994 155.448ZM223.732 151.366V152.569H222.873V156.41C222.873 158.125 221.967 158.982 220.155 158.982C219.116 158.982 218.343 158.794 217.834 158.418L218.64 157.317C219.059 157.575 219.48 157.704 219.902 157.704C220.271 157.704 220.581 157.609 220.832 157.419C221.086 157.23 221.213 156.861 221.213 156.313V155.916C220.672 156.399 220.146 156.641 219.634 156.641C219.032 156.641 218.518 156.39 218.092 155.889C217.67 155.384 217.458 154.741 217.458 153.96C217.458 153.176 217.677 152.535 218.114 152.038C218.551 151.536 219.084 151.286 219.714 151.286C220.319 151.286 220.819 151.524 221.213 152V151.366H223.732ZM221.218 153.982C221.218 153.563 221.125 153.232 220.939 152.988C220.753 152.745 220.499 152.623 220.176 152.623C219.847 152.623 219.594 152.748 219.419 152.999C219.247 153.25 219.161 153.572 219.161 153.966C219.161 154.36 219.251 154.682 219.43 154.933C219.612 155.18 219.861 155.303 220.176 155.303C220.466 155.303 220.712 155.189 220.912 154.959C221.116 154.727 221.218 154.401 221.218 153.982Z" fill="black"/>
<path d="M211.652 174.718L211.588 176.888H206.802C206.802 176.236 206.854 175.731 206.958 175.373C207.065 175.015 207.239 174.668 207.479 174.331C207.722 173.994 208.061 173.626 208.494 173.225C209.063 172.702 209.438 172.319 209.617 172.075C209.799 171.828 209.891 171.551 209.891 171.243C209.891 171.014 209.823 170.826 209.687 170.679C209.55 170.528 209.38 170.453 209.176 170.453C208.879 170.453 208.659 170.577 208.516 170.824C208.376 171.067 208.295 171.466 208.274 172.021L206.904 171.957C206.904 171.237 207.012 170.695 207.227 170.33C207.441 169.964 207.733 169.699 208.102 169.535C208.471 169.37 208.872 169.288 209.305 169.288C210.018 169.288 210.576 169.485 210.981 169.878C211.389 170.272 211.593 170.763 211.593 171.35C211.593 171.665 211.531 171.957 211.405 172.226C211.284 172.491 211.128 172.714 210.938 172.897C210.752 173.076 210.421 173.336 209.944 173.676C209.228 174.188 208.779 174.594 208.596 174.895C208.414 175.196 208.306 175.461 208.274 175.69H210.449V174.718H211.652ZM217.722 174.718L217.657 176.888H212.872C212.872 176.236 212.923 175.731 213.027 175.373C213.135 175.015 213.308 174.668 213.548 174.331C213.792 173.994 214.13 173.626 214.563 173.225C215.133 172.702 215.507 172.319 215.686 172.075C215.869 171.828 215.96 171.551 215.96 171.243C215.96 171.014 215.892 170.826 215.756 170.679C215.62 170.528 215.45 170.453 215.246 170.453C214.948 170.453 214.728 170.577 214.585 170.824C214.445 171.067 214.365 171.466 214.343 172.021L212.974 171.957C212.974 171.237 213.081 170.695 213.296 170.33C213.511 169.964 213.803 169.699 214.171 169.535C214.54 169.37 214.941 169.288 215.375 169.288C216.087 169.288 216.646 169.485 217.05 169.878C217.458 170.272 217.663 170.763 217.663 171.35C217.663 171.665 217.6 171.957 217.475 172.226C217.353 172.491 217.197 172.714 217.007 172.897C216.821 173.076 216.49 173.336 216.014 173.676C215.298 174.188 214.848 174.594 214.666 174.895C214.483 175.196 214.375 175.461 214.343 175.69H216.519V174.718H217.722ZM220.729 173.284C219.677 173.284 219.15 172.618 219.15 171.286C219.15 169.954 219.679 169.288 220.735 169.288C221.254 169.288 221.646 169.461 221.911 169.809C222.176 170.152 222.309 170.645 222.309 171.286C222.309 172.618 221.782 173.284 220.729 173.284ZM220.719 172.596C221.023 172.596 221.175 172.161 221.175 171.291C221.175 170.414 221.027 169.975 220.729 169.975C220.432 169.975 220.284 170.41 220.284 171.28C220.284 172.158 220.429 172.596 220.719 172.596ZM220.327 176.888L225.735 169.417H226.697L221.288 176.888H220.327ZM226.278 176.984C225.225 176.984 224.699 176.318 224.699 174.986C224.699 173.654 225.227 172.988 226.283 172.988C226.802 172.988 227.194 173.162 227.459 173.509C227.724 173.857 227.857 174.349 227.857 174.986C227.857 176.318 227.331 176.984 226.278 176.984ZM226.267 176.297C226.568 176.297 226.718 175.862 226.718 174.992C226.718 174.114 226.571 173.676 226.278 173.676C225.981 173.676 225.832 174.111 225.832 174.981C225.832 175.858 225.977 176.297 226.267 176.297Z" fill="black"/>
<path d="M51.8711 54.9551V53.6929H52.9936V48.7461H51.8711V50.4863H50.5874V47.4839H57.3603V50.4863H56.0928V48.7461H54.938V53.6929H56.0605V54.9551H51.8711ZM59.9653 55.0732C59.199 55.0732 58.5509 54.8315 58.021 54.3481C57.4946 53.8612 57.2314 53.1951 57.2314 52.3501C57.2314 51.505 57.4946 50.8408 58.021 50.3574C58.5509 49.8704 59.199 49.627 59.9653 49.627C60.7352 49.627 61.3833 49.8704 61.9097 50.3574C62.436 50.8408 62.6992 51.505 62.6992 52.3501C62.6992 53.1844 62.4378 53.8468 61.915 54.3374C61.3958 54.828 60.7459 55.0732 59.9653 55.0732ZM59.96 53.7842C60.2679 53.7842 60.5168 53.666 60.7065 53.4297C60.8999 53.1934 60.9966 52.8228 60.9966 52.3179C60.9966 51.8739 60.9035 51.5283 60.7173 51.2812C60.5311 51.0306 60.2786 50.9053 59.96 50.9053C59.276 50.9053 58.9341 51.3994 58.9341 52.3877C58.9341 52.7923 59.0182 53.1271 59.1865 53.3921C59.3584 53.6535 59.6162 53.7842 59.96 53.7842ZM63.3276 50.959V49.7559H63.9883V48.9395L65.6479 47.7471V49.7559H66.604V50.959H65.6479V53.2095C65.6479 53.4136 65.673 53.5514 65.7231 53.623C65.7768 53.6911 65.8968 53.7251 66.083 53.7251C66.237 53.7251 66.4106 53.6893 66.604 53.6177V54.7671C66.1779 54.9425 65.7607 55.0303 65.3525 55.0303C64.443 55.0303 63.9883 54.5791 63.9883 53.6768V50.959H63.3276ZM73.1675 53.7573V54.9551H70.6699V54.5469C70.2223 54.8691 69.7497 55.0303 69.2519 55.0303C68.7363 55.0303 68.2905 54.8835 67.9145 54.5898C67.5421 54.2962 67.3559 53.9023 67.3559 53.4082C67.3559 52.9105 67.5529 52.4933 67.9468 52.1567C68.3406 51.8201 68.8491 51.6519 69.4722 51.6519C69.8195 51.6519 70.2187 51.7396 70.6699 51.915V51.5981C70.6699 51.3332 70.5804 51.1165 70.4014 50.9482C70.2223 50.7764 69.9824 50.6904 69.6816 50.6904C69.3092 50.6904 68.9906 50.8265 68.7256 51.0986L67.3882 50.8569C67.7749 50.0369 68.6146 49.627 69.9072 49.627C70.4085 49.627 70.8239 49.6842 71.1533 49.7988C71.4827 49.9098 71.728 50.0549 71.8892 50.2339C72.0503 50.4129 72.1631 50.6099 72.2275 50.8247C72.2956 51.036 72.3296 51.3815 72.3296 51.8613V53.7573H73.1675ZM70.6699 53.0322C70.2689 52.7816 69.9484 52.6562 69.7085 52.6562C69.5187 52.6562 69.345 52.7118 69.1875 52.8228C69.0335 52.9338 68.9565 53.0949 68.9565 53.3062C68.9565 53.4959 69.0192 53.6589 69.1445 53.7949C69.2698 53.931 69.431 53.999 69.6279 53.999C69.9359 53.999 70.2832 53.8182 70.6699 53.4565V53.0322ZM73.7261 54.9551V53.7573H74.5425V48.6816H73.7261V47.4839H76.2021V53.7573H76.9487V54.9551H73.7261ZM80.2842 54.9551V53.6929H81.353V48.7461H80.2842V47.4839H86.9712V49.7881H85.5425V48.7461H83.2974V50.4756H84.9141V51.7378H83.2974V53.6929H84.4468V54.9551H80.2842ZM92.2349 53.7573V54.9551H89.7373V54.5469C89.2897 54.8691 88.817 55.0303 88.3193 55.0303C87.8037 55.0303 87.3579 54.8835 86.9819 54.5898C86.6095 54.2962 86.4233 53.9023 86.4233 53.4082C86.4233 52.9105 86.6203 52.4933 87.0142 52.1567C87.408 51.8201 87.9165 51.6519 88.5395 51.6519C88.8869 51.6519 89.2861 51.7396 89.7373 51.915V51.5981C89.7373 51.3332 89.6478 51.1165 89.4687 50.9482C89.2897 50.7764 89.0498 50.6904 88.749 50.6904C88.3766 50.6904 88.0579 50.8265 87.793 51.0986L86.4556 50.8569C86.8423 50.0369 87.682 49.627 88.9746 49.627C89.4759 49.627 89.8913 49.6842 90.2207 49.7988C90.5501 49.9098 90.7954 50.0549 90.9565 50.2339C91.1177 50.4129 91.2305 50.6099 91.2949 50.8247C91.3629 51.036 91.397 51.3815 91.397 51.8613V53.7573H92.2349ZM89.7373 53.0322C89.3363 52.7816 89.0158 52.6562 88.7759 52.6562C88.5861 52.6562 88.4124 52.7118 88.2549 52.8228C88.1009 52.9338 88.0239 53.0949 88.0239 53.3062C88.0239 53.4959 88.0866 53.6589 88.2119 53.7949C88.3372 53.931 88.4984 53.999 88.6953 53.999C89.0032 53.999 89.3506 53.8182 89.7373 53.4565V53.0322ZM92.6001 50.959V49.7559H93.2607V48.9395L94.9204 47.7471V49.7559H95.8765V50.959H94.9204V53.2095C94.9204 53.4136 94.9455 53.5514 94.9956 53.623C95.0493 53.6911 95.1693 53.7251 95.3555 53.7251C95.5094 53.7251 95.6831 53.6893 95.8765 53.6177V54.7671C95.4504 54.9425 95.0332 55.0303 94.625 55.0303C93.7155 55.0303 93.2607 54.5791 93.2607 53.6768V50.959H92.6001Z" fill="black"/>
<path d="M35.833 75.2764V72.7305H37.1006C37.1149 73.196 37.2366 73.5397 37.4658 73.7617C37.695 73.9801 37.9564 74.0894 38.25 74.0894C38.4792 74.0894 38.6725 74.0106 38.8301 73.853C38.9876 73.6919 39.0664 73.5039 39.0664 73.2891C39.0664 73.0599 38.9894 72.8683 38.8354 72.7144C38.6815 72.5568 38.4004 72.3778 37.9922 72.1772C37.1292 71.7583 36.542 71.3895 36.2305 71.0708C35.9225 70.7521 35.7685 70.3224 35.7685 69.7817C35.7685 69.13 35.9726 68.6252 36.3809 68.2671C36.7891 67.909 37.2528 67.73 37.772 67.73C38.3664 67.73 38.8265 67.9609 39.1523 68.4229V67.8052H40.4145V70.0771H39.1523C39.1129 69.7262 38.9912 69.4559 38.7871 69.2661C38.5866 69.0728 38.352 68.9761 38.0835 68.9761C37.8758 68.9761 37.7004 69.0316 37.5571 69.1426C37.4139 69.2536 37.3423 69.3986 37.3423 69.5776C37.3423 69.7316 37.4014 69.8784 37.5195 70.0181C37.6377 70.1541 37.9832 70.3493 38.5561 70.6035C39.1076 70.8506 39.5301 71.0744 39.8237 71.2749C40.1209 71.4718 40.3555 71.7297 40.5273 72.0483C40.6992 72.3634 40.7851 72.7287 40.7851 73.144C40.7851 73.8817 40.5703 74.4367 40.1406 74.8091C39.7109 75.1815 39.2025 75.3677 38.6152 75.3677C37.96 75.3677 37.4551 75.126 37.1006 74.6426V75.2764H35.833ZM47.4131 74.0786V75.2764H44.9155V74.8682C44.4679 75.1904 43.9953 75.3516 43.4976 75.3516C42.9819 75.3516 42.5361 75.2048 42.1601 74.9111C41.7878 74.6175 41.6016 74.2236 41.6016 73.7295C41.6016 73.2318 41.7985 72.8146 42.1924 72.478C42.5863 72.1414 43.0947 71.9731 43.7178 71.9731C44.0651 71.9731 44.4643 72.0609 44.9155 72.2363V71.9194C44.9155 71.6545 44.826 71.4378 44.647 71.2695C44.4679 71.0977 44.228 71.0117 43.9272 71.0117C43.5548 71.0117 43.2362 71.1478 42.9712 71.4199L41.6338 71.1782C42.0205 70.3582 42.8602 69.9482 44.1528 69.9482C44.6541 69.9482 45.0695 70.0055 45.3989 70.1201C45.7283 70.2311 45.9736 70.3761 46.1348 70.5552C46.2959 70.7342 46.4087 70.9312 46.4731 71.146C46.5412 71.3573 46.5752 71.7028 46.5752 72.1826V74.0786H47.4131ZM44.9155 73.3535C44.5145 73.1029 44.194 72.9775 43.9541 72.9775C43.7643 72.9775 43.5906 73.033 43.4331 73.144C43.2791 73.255 43.2021 73.4162 43.2021 73.6274C43.2021 73.8172 43.2648 73.9801 43.3901 74.1162C43.5155 74.2523 43.6766 74.3203 43.8735 74.3203C44.1815 74.3203 44.5288 74.1395 44.9155 73.7778V73.3535ZM47.7783 71.2803V70.0771H48.439V69.2607L50.0986 68.0684V70.0771H51.0547V71.2803H50.0986V73.5308C50.0986 73.7349 50.1237 73.8727 50.1738 73.9443C50.2275 74.0124 50.3475 74.0464 50.5337 74.0464C50.6877 74.0464 50.8613 74.0106 51.0547 73.939V75.0884C50.6286 75.2638 50.2114 75.3516 49.8032 75.3516C48.8937 75.3516 48.439 74.9004 48.439 73.998V71.2803H47.7783ZM57.9673 74.0786V75.2764H55.4697V74.8359C54.972 75.1797 54.4671 75.3516 53.9551 75.3516C53.4538 75.3516 53.0599 75.2119 52.7734 74.9326C52.4906 74.6497 52.3491 74.2523 52.3491 73.7402V71.2803H51.5703V70.0771H54.0034V73.3159C54.0034 73.5737 54.0428 73.751 54.1216 73.8477C54.2004 73.9408 54.3436 73.9873 54.5513 73.9873C54.8306 73.9873 55.1367 73.8638 55.4697 73.6167V71.2803H54.6694V70.0771H57.1294V74.0786H57.9673ZM62.189 74.0786V75.2764H58.5312V74.0786H59.4927V71.2803H58.5903V70.0771H61.0127V71.3984C61.1058 71.0189 61.317 70.6912 61.6465 70.4155C61.9795 70.1362 62.3716 69.9966 62.8227 69.9966C62.8979 69.9966 62.9875 69.9984 63.0913 70.002V71.5703C62.6724 71.5703 62.3304 71.6169 62.0654 71.71C61.8004 71.8031 61.582 72.0072 61.4101 72.3223C61.2383 72.6374 61.1523 73.0098 61.1523 73.4395V74.0786H62.189ZM69.4238 74.0786V75.2764H66.9263V74.8682C66.4787 75.1904 66.006 75.3516 65.5083 75.3516C64.9927 75.3516 64.5469 75.2048 64.1709 74.9111C63.7985 74.6175 63.6123 74.2236 63.6123 73.7295C63.6123 73.2318 63.8092 72.8146 64.2031 72.478C64.597 72.1414 65.1055 71.9731 65.7285 71.9731C66.0758 71.9731 66.4751 72.0609 66.9263 72.2363V71.9194C66.9263 71.6545 66.8367 71.4378 66.6577 71.2695C66.4787 71.0977 66.2388 71.0117 65.938 71.0117C65.5656 71.0117 65.2469 71.1478 64.9819 71.4199L63.6445 71.1782C64.0312 70.3582 64.8709 69.9482 66.1636 69.9482C66.6649 69.9482 67.0802 70.0055 67.4097 70.1201C67.7391 70.2311 67.9844 70.3761 68.1455 70.5552C68.3066 70.7342 68.4194 70.9312 68.4839 71.146C68.5519 71.3573 68.5859 71.7028 68.5859 72.1826V74.0786H69.4238ZM66.9263 73.3535C66.5252 73.1029 66.2047 72.9775 65.9648 72.9775C65.7751 72.9775 65.6014 73.033 65.4438 73.144C65.2899 73.255 65.2129 73.4162 65.2129 73.6274C65.2129 73.8172 65.2755 73.9801 65.4009 74.1162C65.5262 74.2523 65.6873 74.3203 65.8843 74.3203C66.1922 74.3203 66.5395 74.1395 66.9263 73.7778V73.3535ZM69.7891 71.2803V70.0771H70.4497V69.2607L72.1094 68.0684V70.0771H73.0654V71.2803H72.1094V73.5308C72.1094 73.7349 72.1344 73.8727 72.1846 73.9443C72.2383 74.0124 72.3582 74.0464 72.5444 74.0464C72.6984 74.0464 72.8721 74.0106 73.0654 73.939V75.0884C72.6393 75.2638 72.2222 75.3516 71.814 75.3516C70.9045 75.3516 70.4497 74.9004 70.4497 73.998V71.2803H69.7891ZM77.9531 73.708L79.2422 74.1216C78.7015 74.9702 77.8564 75.3945 76.707 75.3945C75.7904 75.3945 75.0742 75.1528 74.5586 74.6694C74.0465 74.186 73.7905 73.5505 73.7905 72.7627C73.7905 71.9606 74.0555 71.291 74.5854 70.7539C75.1154 70.2168 75.7904 69.9482 76.6103 69.9482C77.2047 69.9482 77.7186 70.0986 78.1518 70.3994C78.5851 70.7002 78.8859 71.0744 79.0542 71.522C79.2225 71.9696 79.3066 72.4691 79.3066 73.0205H75.4341C75.4591 73.4932 75.6077 73.828 75.8799 74.0249C76.1556 74.2218 76.4456 74.3203 76.75 74.3203C77.1475 74.3203 77.5485 74.1162 77.9531 73.708ZM77.6362 72.0967C77.5968 71.8066 77.4823 71.5596 77.2925 71.3555C77.1063 71.1514 76.8503 71.0493 76.5244 71.0493C75.9157 71.0493 75.5612 71.3984 75.4609 72.0967H77.6362ZM86.3589 74.0786V75.2764H83.8452V74.6587C83.3833 75.1206 82.882 75.3516 82.3413 75.3516C81.6932 75.3516 81.1561 75.0884 80.73 74.562C80.3039 74.0356 80.0908 73.3983 80.0908 72.6499C80.0908 71.8908 80.3092 71.2516 80.7461 70.7324C81.1829 70.2096 81.7165 69.9482 82.3467 69.9482C82.9518 69.9482 83.4513 70.1828 83.8452 70.6519V69.0029H83.0342V67.8052H85.5049V74.0786H86.3589ZM83.8613 72.666C83.8613 72.1683 83.7539 71.8138 83.5391 71.6025C83.3278 71.3913 83.0861 71.2856 82.814 71.2856C82.4881 71.2856 82.2357 71.4128 82.0566 71.667C81.8812 71.9176 81.7934 72.2489 81.7934 72.6606C81.7934 73.0509 81.8812 73.3804 82.0566 73.6489C82.2321 73.9139 82.4863 74.0464 82.8193 74.0464C83.095 74.0464 83.3367 73.939 83.5444 73.7241C83.7557 73.5057 83.8613 73.153 83.8613 72.666ZM89.6138 75.2764V74.0142H90.6826V69.0674H89.6138V67.8052H96.3008V70.1094H94.8721V69.0674H92.6269V70.7969H94.2436V72.0591H92.6269V74.0142H93.7764V75.2764H89.6138ZM101.564 74.0786V75.2764H99.0669V74.8682C98.6193 75.1904 98.1466 75.3516 97.6489 75.3516C97.1333 75.3516 96.6875 75.2048 96.3115 74.9111C95.9391 74.6175 95.7529 74.2236 95.7529 73.7295C95.7529 73.2318 95.9499 72.8146 96.3437 72.478C96.7376 72.1414 97.2461 71.9731 97.8691 71.9731C98.2165 71.9731 98.6157 72.0609 99.0669 72.2363V71.9194C99.0669 71.6545 98.9774 71.4378 98.7983 71.2695C98.6193 71.0977 98.3794 71.0117 98.0786 71.0117C97.7062 71.0117 97.3875 71.1478 97.1226 71.4199L95.7851 71.1782C96.1719 70.3582 97.0115 69.9482 98.3042 69.9482C98.8055 69.9482 99.2209 70.0055 99.5503 70.1201C99.8797 70.2311 100.125 70.3761 100.286 70.5552C100.447 70.7342 100.56 70.9312 100.625 71.146C100.693 71.3573 100.727 71.7028 100.727 72.1826V74.0786H101.564ZM99.0669 73.3535C98.6658 73.1029 98.3454 72.9775 98.1055 72.9775C97.9157 72.9775 97.742 73.033 97.5845 73.144C97.4305 73.255 97.3535 73.4162 97.3535 73.6274C97.3535 73.8172 97.4162 73.9801 97.5415 74.1162C97.6668 74.2523 97.828 74.3203 98.0249 74.3203C98.3328 74.3203 98.6802 74.1395 99.0669 73.7778V73.3535ZM101.93 71.2803V70.0771H102.59V69.2607L104.25 68.0684V70.0771H105.206V71.2803H104.25V73.5308C104.25 73.7349 104.275 73.8727 104.325 73.9443C104.379 74.0124 104.499 74.0464 104.685 74.0464C104.839 74.0464 105.013 74.0106 105.206 73.939V75.0884C104.78 75.2638 104.363 75.3516 103.955 75.3516C103.045 75.3516 102.59 74.9004 102.59 73.998V71.2803H101.93ZM106.151 75.2764V73.4878H107.365C107.376 73.7313 107.489 73.9264 107.704 74.0732C107.918 74.2165 108.183 74.2881 108.499 74.2881C108.771 74.2881 108.982 74.2415 109.132 74.1484C109.286 74.0518 109.363 73.93 109.363 73.7832C109.363 73.6471 109.293 73.5415 109.154 73.4663C109.014 73.3911 108.74 73.3195 108.332 73.2515C107.491 73.1154 106.884 72.9095 106.511 72.6338C106.139 72.3545 105.953 71.9857 105.953 71.5273C105.953 71.0977 106.128 70.736 106.479 70.4424C106.83 70.1452 107.295 69.9966 107.875 69.9966C108.345 69.9966 108.783 70.0825 109.191 70.2544V70.0771H110.378V71.5864H109.191C109.084 71.2248 108.704 71.0439 108.053 71.0439C107.573 71.0439 107.333 71.1764 107.333 71.4414C107.333 71.5417 107.381 71.6187 107.478 71.6724C107.578 71.7225 107.831 71.7834 108.235 71.855C108.876 71.966 109.356 72.077 109.675 72.188C109.993 72.299 110.248 72.4834 110.437 72.7412C110.631 72.9954 110.728 73.3016 110.728 73.6597C110.728 74.1681 110.545 74.5853 110.18 74.9111C109.818 75.2334 109.304 75.3945 108.638 75.3945C108.019 75.3945 107.594 75.2692 107.365 75.0186V75.2764H106.151Z" fill="black"/>
<path d="M53.3911 95.6006V93.0547H54.6587C54.673 93.5202 54.7948 93.8639 55.0239 94.0859C55.2531 94.3044 55.5145 94.4136 55.8081 94.4136C56.0373 94.4136 56.2306 94.3348 56.3882 94.1772C56.5457 94.0161 56.6245 93.8281 56.6245 93.6133C56.6245 93.3841 56.5475 93.1925 56.3935 93.0386C56.2396 92.881 55.9585 92.702 55.5503 92.5015C54.6873 92.0825 54.1001 91.7137 53.7886 91.395C53.4806 91.0763 53.3267 90.6466 53.3267 90.106C53.3267 89.4543 53.5308 88.9494 53.939 88.5913C54.3472 88.2332 54.8109 88.0542 55.3301 88.0542C55.9245 88.0542 56.3846 88.2852 56.7104 88.7471V88.1294H57.9726V90.4014H56.7104C56.6711 90.0505 56.5493 89.7801 56.3452 89.5903C56.1447 89.397 55.9101 89.3003 55.6416 89.3003C55.4339 89.3003 55.2585 89.3558 55.1152 89.4668C54.972 89.5778 54.9004 89.7228 54.9004 89.9019C54.9004 90.0558 54.9595 90.2026 55.0776 90.3423C55.1958 90.4784 55.5413 90.6735 56.1143 90.9277C56.6657 91.1748 57.0882 91.3986 57.3818 91.5991C57.679 91.7961 57.9136 92.0539 58.0854 92.3726C58.2573 92.6877 58.3433 93.0529 58.3433 93.4683C58.3433 94.2059 58.1284 94.7609 57.6987 95.1333C57.269 95.5057 56.7606 95.6919 56.1733 95.6919C55.5181 95.6919 55.0132 95.4502 54.6587 94.9668V95.6006H53.3911ZM61.8667 95.7188C61.1004 95.7188 60.4523 95.4771 59.9224 94.9937C59.396 94.5067 59.1328 93.8407 59.1328 92.9956C59.1328 92.1506 59.396 91.4863 59.9224 91.0029C60.4523 90.516 61.1004 90.2725 61.8667 90.2725C62.6365 90.2725 63.2847 90.516 63.811 91.0029C64.3374 91.4863 64.6006 92.1506 64.6006 92.9956C64.6006 93.8299 64.3392 94.4924 63.8164 94.9829C63.2972 95.4735 62.6473 95.7188 61.8667 95.7188ZM61.8613 94.4297C62.1693 94.4297 62.4181 94.3115 62.6079 94.0752C62.8013 93.8389 62.8979 93.4683 62.8979 92.9634C62.8979 92.5194 62.8048 92.1738 62.6186 91.9268C62.4324 91.6761 62.18 91.5508 61.8613 91.5508C61.1774 91.5508 60.8354 92.0449 60.8354 93.0332C60.8354 93.4378 60.9196 93.7726 61.0879 94.0376C61.2598 94.299 61.5176 94.4297 61.8613 94.4297ZM71.7012 94.4028V95.6006H69.1875V94.9829C68.7256 95.4448 68.2243 95.6758 67.6836 95.6758C67.0355 95.6758 66.4984 95.4126 66.0723 94.8862C65.6462 94.3599 65.4331 93.7225 65.4331 92.9741C65.4331 92.215 65.6515 91.5758 66.0884 91.0566C66.5252 90.5339 67.0587 90.2725 67.689 90.2725C68.2941 90.2725 68.7936 90.507 69.1875 90.9761V89.3271H68.3765V88.1294H70.8472V94.4028H71.7012ZM69.2036 92.9902C69.2036 92.4925 69.0962 92.138 68.8813 91.9268C68.6701 91.7155 68.4284 91.6099 68.1562 91.6099C67.8304 91.6099 67.578 91.737 67.3989 91.9912C67.2235 92.2419 67.1357 92.5731 67.1357 92.9849C67.1357 93.3752 67.2235 93.7046 67.3989 93.9731C67.5744 94.2381 67.8286 94.3706 68.1616 94.3706C68.4373 94.3706 68.679 94.2632 68.8867 94.0483C69.098 93.8299 69.2036 93.4772 69.2036 92.9902ZM73.0869 88.9136C73.0869 88.6629 73.1746 88.4481 73.3501 88.269C73.5291 88.09 73.744 88.0005 73.9946 88.0005C74.2489 88.0005 74.4637 88.09 74.6392 88.269C74.8146 88.4481 74.9023 88.6629 74.9023 88.9136C74.9023 89.1642 74.8128 89.3791 74.6338 89.5581C74.4583 89.7336 74.2453 89.8213 73.9946 89.8213C73.7476 89.8213 73.5345 89.7318 73.3555 89.5527C73.1764 89.3737 73.0869 89.1606 73.0869 88.9136ZM72.3564 91.6045V90.4014H74.8057V94.4028H75.5791V95.6006H72.3564V94.4028H73.146V91.6045H72.3564ZM82.4004 94.4028V95.6006H79.9028V95.1602C79.4051 95.5039 78.9002 95.6758 78.3882 95.6758C77.8869 95.6758 77.493 95.5361 77.2065 95.2568C76.9237 94.974 76.7822 94.5765 76.7822 94.0645V91.6045H76.0034V90.4014H78.4365V93.6401C78.4365 93.8979 78.4759 94.0752 78.5547 94.1719C78.6335 94.265 78.7767 94.3115 78.9844 94.3115C79.2637 94.3115 79.5698 94.188 79.9028 93.9409V91.6045H79.1025V90.4014H81.5625V94.4028H82.4004ZM82.9858 91.6045V90.4014H85.5049V90.8257C86.0706 90.4891 86.6328 90.3208 87.1914 90.3208C87.861 90.3208 88.3802 90.5589 88.749 91.0352C89.4186 90.5589 90.1186 90.3208 90.8491 90.3208C91.2824 90.3208 91.6333 90.4014 91.9018 90.5625C92.174 90.7201 92.3602 90.9331 92.4604 91.2017C92.5607 91.4702 92.6108 91.8766 92.6108 92.4209V94.4028H93.4702V95.6006H90.9512V92.5552C90.9512 92.0109 90.7166 91.7388 90.2476 91.7388C89.8787 91.7388 89.4795 91.8569 89.0498 92.0933V94.4028H89.9092V95.6006H87.3901V92.6035C87.3901 92.027 87.1645 91.7388 86.7134 91.7388C86.3625 91.7388 85.9596 91.8569 85.5049 92.0933V94.4028H86.3643V95.6006H82.9858V94.4028H83.8452V91.6045H82.9858Z" fill="black"/>
<path d="M39.9258 108.45H41.188V111.082H39.9258C39.5677 110.136 38.9464 109.664 38.062 109.664C37.3315 109.664 36.7783 109.912 36.4023 110.41C36.0299 110.908 35.8437 111.504 35.8437 112.199C35.8437 112.926 36.0407 113.515 36.4346 113.966C36.832 114.413 37.3369 114.637 37.9492 114.637C38.4505 114.637 38.8892 114.467 39.2651 114.127C39.6411 113.787 39.8953 113.314 40.0278 112.709L41.4995 113.413C40.9409 115.146 39.7109 116.012 37.8096 116.012C36.4668 116.012 35.4534 115.651 34.7695 114.927C34.0892 114.204 33.749 113.289 33.749 112.183C33.749 111.395 33.9263 110.706 34.2808 110.115C34.6352 109.524 35.1115 109.08 35.7095 108.783C36.311 108.482 36.9699 108.332 37.686 108.332C38.5776 108.332 39.3242 108.564 39.9258 109.03V108.45ZM48.0576 114.723V115.921H45.5601V115.513C45.1125 115.835 44.6398 115.996 44.1421 115.996C43.6265 115.996 43.1807 115.849 42.8047 115.556C42.4323 115.262 42.2461 114.868 42.2461 114.374C42.2461 113.876 42.443 113.459 42.8369 113.123C43.2308 112.786 43.7393 112.618 44.3623 112.618C44.7096 112.618 45.1089 112.705 45.5601 112.881V112.564C45.5601 112.299 45.4705 112.082 45.2915 111.914C45.1125 111.742 44.8726 111.656 44.5718 111.656C44.1994 111.656 43.8807 111.792 43.6157 112.064L42.2783 111.823C42.665 111.003 43.5047 110.593 44.7974 110.593C45.2987 110.593 45.714 110.65 46.0434 110.765C46.3729 110.876 46.6182 111.021 46.7793 111.2C46.9404 111.379 47.0532 111.576 47.1177 111.791C47.1857 112.002 47.2197 112.347 47.2197 112.827V114.723H48.0576ZM45.5601 113.998C45.159 113.747 44.8385 113.622 44.5986 113.622C44.4088 113.622 44.2352 113.678 44.0776 113.789C43.9237 113.9 43.8467 114.061 43.8467 114.272C43.8467 114.462 43.9093 114.625 44.0347 114.761C44.16 114.897 44.3211 114.965 44.5181 114.965C44.826 114.965 45.1733 114.784 45.5601 114.422V113.998ZM52.1665 114.723V115.921H48.5088V114.723H49.4702V111.925H48.5679V110.722H50.9902V112.043C51.0833 111.663 51.2946 111.336 51.624 111.06C51.957 110.781 52.3491 110.641 52.8003 110.641C52.8755 110.641 52.965 110.643 53.0688 110.646V112.215C52.6499 112.215 52.3079 112.261 52.043 112.354C51.778 112.448 51.5596 112.652 51.3877 112.967C51.2158 113.282 51.1299 113.654 51.1299 114.084V114.723H52.1665ZM55.8618 108.45V111.307C56.2772 110.831 56.7695 110.593 57.3389 110.593C58.0049 110.593 58.5456 110.845 58.9609 111.35C59.3799 111.855 59.5893 112.501 59.5893 113.289C59.5893 114.131 59.3799 114.793 58.9609 115.276C58.5456 115.756 58.0192 115.996 57.3818 115.996C56.8089 115.996 56.3022 115.772 55.8618 115.325V115.921H53.2998V114.723H54.2021V109.647H53.2998V108.45H55.8618ZM57.8867 113.278C57.8867 112.834 57.7954 112.5 57.6128 112.274C57.4302 112.048 57.1885 111.936 56.8877 111.936C56.6012 111.936 56.3559 112.047 56.1518 112.269C55.9477 112.491 55.8457 112.852 55.8457 113.354C55.8457 113.776 55.9406 114.107 56.1304 114.347C56.3237 114.587 56.5708 114.707 56.8716 114.707C57.1616 114.707 57.4033 114.591 57.5967 114.358C57.79 114.125 57.8867 113.765 57.8867 113.278ZM63.1719 116.039C62.4056 116.039 61.7575 115.797 61.2275 115.314C60.7012 114.827 60.438 114.161 60.438 113.316C60.438 112.471 60.7012 111.807 61.2275 111.323C61.7575 110.836 62.4056 110.593 63.1719 110.593C63.9417 110.593 64.5898 110.836 65.1162 111.323C65.6426 111.807 65.9058 112.471 65.9058 113.316C65.9058 114.15 65.6444 114.813 65.1216 115.303C64.6024 115.794 63.9525 116.039 63.1719 116.039ZM63.1665 114.75C63.4744 114.75 63.7233 114.632 63.9131 114.396C64.1064 114.159 64.2031 113.789 64.2031 113.284C64.2031 112.84 64.11 112.494 63.9238 112.247C63.7376 111.996 63.4852 111.871 63.1665 111.871C62.4826 111.871 62.1406 112.365 62.1406 113.354C62.1406 113.758 62.2248 114.093 62.3931 114.358C62.5649 114.619 62.8227 114.75 63.1665 114.75ZM66.6255 115.921V114.723H67.4634V109.647H66.6255V108.45H69.1177V111.141C69.6405 110.775 70.1328 110.593 70.5947 110.593C71.6582 110.593 72.1899 111.232 72.1899 112.51V114.723H72.9526V115.921H70.5303V112.585C70.5303 112.342 70.4855 112.175 70.396 112.086C70.3101 111.993 70.1794 111.946 70.0039 111.946C69.7568 111.946 69.4614 112.056 69.1177 112.274V114.723H69.8589V115.921H66.6255ZM74.1182 118.268V117.07H75.1172L75.4609 116.141L73.5703 111.925H72.8184V110.722H75.9336V111.925H75.3213L76.186 114.261L77.1099 111.925H76.4331V110.722H79.167V111.925H78.4258L75.9336 118.268H74.1182ZM85.9829 114.723V115.921H83.4692V115.303C83.0073 115.765 82.506 115.996 81.9653 115.996C81.3172 115.996 80.7801 115.733 80.354 115.207C79.9279 114.68 79.7148 114.043 79.7148 113.294C79.7148 112.535 79.9333 111.896 80.3701 111.377C80.807 110.854 81.3405 110.593 81.9707 110.593C82.5758 110.593 83.0754 110.827 83.4692 111.296V109.647H82.6582V108.45H85.1289V114.723H85.9829ZM83.4853 113.311C83.4853 112.813 83.3779 112.458 83.1631 112.247C82.9518 112.036 82.7101 111.93 82.438 111.93C82.1121 111.93 81.8597 112.057 81.6807 112.312C81.5052 112.562 81.4175 112.893 81.4175 113.305C81.4175 113.695 81.5052 114.025 81.6807 114.293C81.8561 114.558 82.1103 114.691 82.4434 114.691C82.7191 114.691 82.9608 114.583 83.1684 114.369C83.3797 114.15 83.4853 113.798 83.4853 113.311ZM90.1294 114.723V115.921H86.4717V114.723H87.4331V111.925H86.5308V110.722H88.9531V112.043C89.0462 111.663 89.2575 111.336 89.5869 111.06C89.9199 110.781 90.312 110.641 90.7632 110.641C90.8384 110.641 90.9279 110.643 91.0317 110.646V112.215C90.6128 112.215 90.2708 112.261 90.0059 112.354C89.7409 112.448 89.5225 112.652 89.3506 112.967C89.1787 113.282 89.0928 113.654 89.0928 114.084V114.723H90.1294ZM97.3643 114.723V115.921H94.8667V115.513C94.4191 115.835 93.9464 115.996 93.4487 115.996C92.9331 115.996 92.4873 115.849 92.1113 115.556C91.7389 115.262 91.5527 114.868 91.5527 114.374C91.5527 113.876 91.7497 113.459 92.1435 113.123C92.5374 112.786 93.0459 112.618 93.6689 112.618C94.0163 112.618 94.4155 112.705 94.8667 112.881V112.564C94.8667 112.299 94.7772 112.082 94.5981 111.914C94.4191 111.742 94.1792 111.656 93.8784 111.656C93.506 111.656 93.1873 111.792 92.9224 112.064L91.585 111.823C91.9717 111.003 92.8114 110.593 94.104 110.593C94.6053 110.593 95.0207 110.65 95.3501 110.765C95.6795 110.876 95.9248 111.021 96.0859 111.2C96.2471 111.379 96.3599 111.576 96.4243 111.791C96.4923 112.002 96.5264 112.347 96.5264 112.827V114.723H97.3643ZM94.8667 113.998C94.4656 113.747 94.1452 113.622 93.9053 113.622C93.7155 113.622 93.5418 113.678 93.3843 113.789C93.2303 113.9 93.1533 114.061 93.1533 114.272C93.1533 114.462 93.216 114.625 93.3413 114.761C93.4666 114.897 93.6278 114.965 93.8247 114.965C94.1326 114.965 94.48 114.784 94.8667 114.422V113.998ZM97.7295 111.925V110.722H98.3901V109.905L100.05 108.713V110.722H101.006V111.925H100.05V114.175C100.05 114.379 100.075 114.517 100.125 114.589C100.179 114.657 100.299 114.691 100.485 114.691C100.639 114.691 100.812 114.655 101.006 114.583V115.733C100.58 115.908 100.163 115.996 99.7544 115.996C98.8449 115.996 98.3901 115.545 98.3901 114.643V111.925H97.7295ZM105.894 114.353L107.183 114.766C106.642 115.615 105.797 116.039 104.647 116.039C103.731 116.039 103.015 115.797 102.499 115.314C101.987 114.831 101.731 114.195 101.731 113.407C101.731 112.605 101.996 111.936 102.526 111.398C103.056 110.861 103.731 110.593 104.551 110.593C105.145 110.593 105.659 110.743 106.092 111.044C106.526 111.345 106.826 111.719 106.995 112.167C107.163 112.614 107.247 113.114 107.247 113.665H103.375C103.4 114.138 103.548 114.472 103.82 114.669C104.096 114.866 104.386 114.965 104.69 114.965C105.088 114.965 105.489 114.761 105.894 114.353ZM105.577 112.741C105.537 112.451 105.423 112.204 105.233 112C105.047 111.796 104.791 111.694 104.465 111.694C103.856 111.694 103.502 112.043 103.401 112.741H105.577ZM108.257 115.921V114.132H109.471C109.481 114.376 109.594 114.571 109.809 114.718C110.024 114.861 110.289 114.933 110.604 114.933C110.876 114.933 111.087 114.886 111.238 114.793C111.392 114.696 111.469 114.575 111.469 114.428C111.469 114.292 111.399 114.186 111.259 114.111C111.12 114.036 110.846 113.964 110.437 113.896C109.596 113.76 108.989 113.554 108.617 113.278C108.244 112.999 108.058 112.63 108.058 112.172C108.058 111.742 108.234 111.381 108.584 111.087C108.935 110.79 109.401 110.641 109.981 110.641C110.45 110.641 110.889 110.727 111.297 110.899V110.722H112.484V112.231H111.297C111.189 111.869 110.81 111.688 110.158 111.688C109.678 111.688 109.438 111.821 109.438 112.086C109.438 112.186 109.487 112.263 109.583 112.317C109.684 112.367 109.936 112.428 110.341 112.5C110.982 112.611 111.462 112.722 111.78 112.833C112.099 112.944 112.353 113.128 112.543 113.386C112.736 113.64 112.833 113.946 112.833 114.304C112.833 114.813 112.65 115.23 112.285 115.556C111.923 115.878 111.41 116.039 110.744 116.039C110.124 116.039 109.7 115.914 109.471 115.663V115.921H108.257Z" fill="black"/>
<path d="M55.4643 136.244V133.698H56.7319C56.7462 134.164 56.868 134.507 57.0972 134.729C57.3263 134.948 57.5877 135.057 57.8813 135.057C58.1105 135.057 58.3039 134.978 58.4614 134.821C58.619 134.66 58.6977 134.472 58.6977 134.257C58.6977 134.028 58.6208 133.836 58.4668 133.682C58.3128 133.525 58.0317 133.346 57.6235 133.145C56.7606 132.726 56.1733 132.357 55.8618 132.039C55.5539 131.72 55.3999 131.29 55.3999 130.75C55.3999 130.098 55.604 129.593 56.0122 129.235C56.4204 128.877 56.8841 128.698 57.4033 128.698C57.9977 128.698 58.4578 128.929 58.7837 129.391V128.773H60.0459V131.045H58.7837C58.7443 130.694 58.6226 130.424 58.4184 130.234C58.2179 130.041 57.9834 129.944 57.7148 129.944C57.5072 129.944 57.3317 129.999 57.1885 130.11C57.0452 130.221 56.9736 130.366 56.9736 130.545C56.9736 130.699 57.0327 130.846 57.1509 130.986C57.269 131.122 57.6146 131.317 58.1875 131.571C58.7389 131.818 59.1615 132.042 59.4551 132.243C59.7523 132.44 59.9868 132.697 60.1587 133.016C60.3306 133.331 60.4165 133.696 60.4165 134.112C60.4165 134.849 60.2017 135.404 59.772 135.777C59.3423 136.149 58.8338 136.335 58.2466 136.335C57.5913 136.335 57.0864 136.094 56.7319 135.61V136.244H55.4643ZM67.3935 135.046V136.244H64.896V135.804C64.3983 136.147 63.8934 136.319 63.3813 136.319C62.88 136.319 62.4862 136.18 62.1997 135.9C61.9168 135.618 61.7754 135.22 61.7754 134.708V132.248H60.9966V131.045H63.4297V134.284C63.4297 134.542 63.4691 134.719 63.5478 134.815C63.6266 134.909 63.7698 134.955 63.9775 134.955C64.2568 134.955 64.563 134.832 64.896 134.584V132.248H64.0957V131.045H66.5557V135.046H67.3935ZM74.3545 131.045V132.248H73.4951V136.088C73.4951 137.804 72.5892 138.661 70.7773 138.661C69.7389 138.661 68.9655 138.473 68.457 138.097L69.2627 136.996C69.6816 137.254 70.1024 137.383 70.5249 137.383C70.8937 137.383 71.2034 137.288 71.4541 137.098C71.7083 136.908 71.8354 136.54 71.8354 135.992V135.594C71.2948 136.078 70.7684 136.319 70.2563 136.319C69.6548 136.319 69.1409 136.069 68.7148 135.567C68.2923 135.062 68.081 134.42 68.081 133.639C68.081 132.855 68.2995 132.214 68.7363 131.716C69.1732 131.215 69.7067 130.964 70.3369 130.964C70.942 130.964 71.4416 131.202 71.8354 131.679V131.045H74.3545ZM71.8408 133.661C71.8408 133.242 71.7477 132.91 71.5615 132.667C71.3753 132.424 71.1211 132.302 70.7988 132.302C70.4694 132.302 70.217 132.427 70.0415 132.678C69.8696 132.928 69.7837 133.251 69.7837 133.645C69.7837 134.038 69.8732 134.361 70.0522 134.611C70.2349 134.858 70.4837 134.982 70.7988 134.982C71.0889 134.982 71.3341 134.867 71.5347 134.638C71.7388 134.405 71.8408 134.08 71.8408 133.661ZM80.7944 135.046V136.244H78.2969V135.836C77.8493 136.158 77.3766 136.319 76.8789 136.319C76.3633 136.319 75.9175 136.173 75.5415 135.879C75.1691 135.585 74.9829 135.191 74.9829 134.697C74.9829 134.2 75.1798 133.782 75.5737 133.446C75.9676 133.109 76.4761 132.941 77.0991 132.941C77.4464 132.941 77.8457 133.029 78.2969 133.204V132.887C78.2969 132.622 78.2073 132.406 78.0283 132.237C77.8493 132.065 77.6094 131.979 77.3086 131.979C76.9362 131.979 76.6175 132.116 76.3525 132.388L75.0151 132.146C75.4018 131.326 76.2415 130.916 77.5342 130.916C78.0355 130.916 78.4508 130.973 78.7803 131.088C79.1097 131.199 79.355 131.344 79.5161 131.523C79.6772 131.702 79.79 131.899 79.8545 132.114C79.9225 132.325 79.9565 132.671 79.9565 133.15V135.046H80.7944ZM78.2969 134.321C77.8958 134.071 77.5754 133.945 77.3354 133.945C77.1457 133.945 76.972 134.001 76.8144 134.112C76.6605 134.223 76.5835 134.384 76.5835 134.595C76.5835 134.785 76.6462 134.948 76.7715 135.084C76.8968 135.22 77.0579 135.288 77.2549 135.288C77.5628 135.288 77.9101 135.107 78.2969 134.746V134.321ZM84.9033 135.046V136.244H81.2456V135.046H82.207V132.248H81.3047V131.045H83.727V132.366C83.8201 131.987 84.0314 131.659 84.3608 131.383C84.6938 131.104 85.0859 130.964 85.5371 130.964C85.6123 130.964 85.7018 130.966 85.8057 130.97V132.538C85.3867 132.538 85.0448 132.585 84.7798 132.678C84.5148 132.771 84.2964 132.975 84.1245 133.29C83.9526 133.605 83.8667 133.978 83.8667 134.407V135.046H84.9033ZM86.52 136.244V134.456H87.7339C87.7446 134.699 87.8574 134.894 88.0723 135.041C88.2871 135.184 88.5521 135.256 88.8672 135.256C89.1393 135.256 89.3506 135.209 89.501 135.116C89.6549 135.02 89.7319 134.898 89.7319 134.751C89.7319 134.615 89.6621 134.509 89.5225 134.434C89.3828 134.359 89.1089 134.287 88.7007 134.219C87.8592 134.083 87.2523 133.877 86.8799 133.602C86.5075 133.322 86.3213 132.953 86.3213 132.495C86.3213 132.065 86.4967 131.704 86.8476 131.41C87.1986 131.113 87.6641 130.964 88.2441 130.964C88.7132 130.964 89.1518 131.05 89.5601 131.222V131.045H90.7471V132.554H89.5601C89.4526 132.193 89.0731 132.012 88.4214 132.012C87.9416 132.012 87.7017 132.144 87.7017 132.409C87.7017 132.509 87.75 132.586 87.8467 132.64C87.9469 132.69 88.1994 132.751 88.604 132.823C89.2449 132.934 89.7248 133.045 90.0434 133.156C90.3621 133.267 90.6164 133.451 90.8061 133.709C90.9995 133.963 91.0962 134.269 91.0962 134.627C91.0962 135.136 90.9136 135.553 90.5483 135.879C90.1867 136.201 89.6728 136.362 89.0068 136.362C88.3874 136.362 87.963 136.237 87.7339 135.986V136.244H86.52Z" fill="black"/>
<path d="M57.7578 155.303V156.565H53.8208V155.303H54.7715V150.356H53.8208V149.094H57.7578C58.6745 149.094 59.3817 149.309 59.8794 149.739C60.3807 150.168 60.6313 150.747 60.6313 151.474C60.6313 151.889 60.5436 152.267 60.3682 152.607C60.1927 152.944 59.9671 153.203 59.6914 153.386C59.4193 153.565 59.1059 153.688 58.7515 153.756C58.4005 153.821 57.9601 153.853 57.4302 153.853H56.7158V155.303H57.7578ZM56.7158 152.607H57.0059C57.6719 152.607 58.0998 152.5 58.2895 152.285C58.4829 152.066 58.5796 151.796 58.5796 151.474C58.5796 151.201 58.5133 150.971 58.3809 150.781C58.2484 150.587 58.0962 150.469 57.9243 150.426C57.7524 150.38 57.4713 150.356 57.081 150.356H56.7158V152.607ZM64.7832 155.368V156.565H61.1255V155.368H62.0869V152.569H61.1846V151.366H63.6069V152.688C63.7 152.308 63.9113 151.98 64.2407 151.705C64.5737 151.425 64.9658 151.286 65.417 151.286C65.4922 151.286 65.5817 151.287 65.6855 151.291V152.859C65.2666 152.859 64.9246 152.906 64.6597 152.999C64.3947 153.092 64.1763 153.296 64.0044 153.611C63.8325 153.926 63.7466 154.299 63.7466 154.729V155.368H64.7832ZM68.9136 156.684C68.1473 156.684 67.4992 156.442 66.9692 155.958C66.4429 155.472 66.1797 154.806 66.1797 153.96C66.1797 153.115 66.4429 152.451 66.9692 151.968C67.4992 151.481 68.1473 151.237 68.9136 151.237C69.6834 151.237 70.3315 151.481 70.8579 151.968C71.3843 152.451 71.6475 153.115 71.6475 153.96C71.6475 154.795 71.3861 155.457 70.8633 155.948C70.3441 156.438 69.6942 156.684 68.9136 156.684ZM68.9082 155.395C69.2161 155.395 69.465 155.276 69.6548 155.04C69.8481 154.804 69.9448 154.433 69.9448 153.928C69.9448 153.484 69.8517 153.139 69.6655 152.892C69.4793 152.641 69.2269 152.516 68.9082 152.516C68.2243 152.516 67.8823 153.01 67.8823 153.998C67.8823 154.403 67.9665 154.737 68.1348 155.002C68.3066 155.264 68.5644 155.395 68.9082 155.395ZM72.2759 152.569V151.366H72.9365V150.55L74.5962 149.357V151.366H75.5522V152.569H74.5962V154.82C74.5962 155.024 74.6212 155.162 74.6714 155.233C74.7251 155.301 74.845 155.335 75.0312 155.335C75.1852 155.335 75.3589 155.3 75.5522 155.228V156.377C75.1261 156.553 74.709 156.641 74.3008 156.641C73.3913 156.641 72.9365 156.189 72.9365 155.287V152.569H72.2759ZM80.4399 154.997L81.729 155.411C81.1883 156.259 80.3433 156.684 79.1938 156.684C78.2772 156.684 77.561 156.442 77.0454 155.958C76.5334 155.475 76.2773 154.84 76.2773 154.052C76.2773 153.25 76.5423 152.58 77.0723 152.043C77.6022 151.506 78.2772 151.237 79.0972 151.237C79.6916 151.237 80.2054 151.388 80.6387 151.688C81.0719 151.989 81.3727 152.363 81.541 152.811C81.7093 153.259 81.7934 153.758 81.7934 154.31H77.9209C77.946 154.782 78.0946 155.117 78.3667 155.314C78.6424 155.511 78.9324 155.609 79.2368 155.609C79.6343 155.609 80.0353 155.405 80.4399 154.997ZM80.123 153.386C80.0837 153.096 79.9691 152.849 79.7793 152.645C79.5931 152.44 79.3371 152.338 79.0112 152.338C78.4025 152.338 78.048 152.688 77.9477 153.386H80.123ZM83.3564 149.878C83.3564 149.628 83.4442 149.413 83.6196 149.234C83.7987 149.055 84.0135 148.965 84.2642 148.965C84.5184 148.965 84.7332 149.055 84.9087 149.234C85.0841 149.413 85.1719 149.628 85.1719 149.878C85.1719 150.129 85.0823 150.344 84.9033 150.523C84.7279 150.698 84.5148 150.786 84.2642 150.786C84.0171 150.786 83.804 150.697 83.625 150.518C83.446 150.339 83.3564 150.125 83.3564 149.878ZM82.626 152.569V151.366H85.0752V155.368H85.8486V156.565H82.626V155.368H83.4155V152.569H82.626ZM86.4556 152.569V151.366H88.9101V151.85C89.4115 151.474 89.9199 151.286 90.4355 151.286C91.4847 151.286 92.0093 151.955 92.0093 153.294V155.368H92.7934V156.565H90.3496V153.418C90.3496 153.135 90.3102 152.942 90.2314 152.838C90.1562 152.734 90.0309 152.682 89.8555 152.682C89.5475 152.682 89.2324 152.795 88.9101 153.021V155.368H89.7104V156.565H86.4556V155.368H87.2505V152.569H86.4556Z" fill="black"/>
<path d="M49.0029 176.936L46.7793 170.679H45.8877V169.417H49.7012V170.679H48.7344L49.9912 174.422L51.2534 170.679H50.3027V169.417H53.6059V170.679H52.6982L50.5552 176.936H49.0029ZM54.605 170.201C54.605 169.95 54.6927 169.735 54.8682 169.556C55.0472 169.377 55.262 169.288 55.5127 169.288C55.7669 169.288 55.9818 169.377 56.1572 169.556C56.3327 169.735 56.4204 169.95 56.4204 170.201C56.4204 170.451 56.3309 170.666 56.1518 170.845C55.9764 171.021 55.7633 171.108 55.5127 171.108C55.2656 171.108 55.0526 171.019 54.8735 170.84C54.6945 170.661 54.605 170.448 54.605 170.201ZM53.8745 172.892V171.688H56.3237V175.69H57.0972V176.888H53.8745V175.69H54.6641V172.892H53.8745ZM57.5215 172.892V171.688H58.1821V170.872L59.8418 169.68V171.688H60.7978V172.892H59.8418V175.142C59.8418 175.346 59.8669 175.484 59.917 175.556C59.9707 175.624 60.0906 175.658 60.2768 175.658C60.4308 175.658 60.6045 175.622 60.7978 175.55V176.7C60.3717 176.875 59.9546 176.963 59.5464 176.963C58.6369 176.963 58.1821 176.512 58.1821 175.609V172.892H57.5215ZM67.3613 175.69V176.888H64.8638V176.479C64.4162 176.802 63.9435 176.963 63.4458 176.963C62.9302 176.963 62.4844 176.816 62.1084 176.522C61.736 176.229 61.5498 175.835 61.5498 175.341C61.5498 174.843 61.7467 174.426 62.1406 174.089C62.5345 173.753 63.043 173.584 63.666 173.584C64.0133 173.584 64.4126 173.672 64.8638 173.848V173.531C64.8638 173.266 64.7742 173.049 64.5952 172.881C64.4162 172.709 64.1763 172.623 63.8755 172.623C63.5031 172.623 63.1844 172.759 62.9194 173.031L61.582 172.79C61.9687 171.97 62.8084 171.56 64.1011 171.56C64.6024 171.56 65.0177 171.617 65.3472 171.731C65.6766 171.842 65.9219 171.987 66.083 172.167C66.2441 172.346 66.3569 172.542 66.4214 172.757C66.4894 172.969 66.5234 173.314 66.5234 173.794V175.69H67.3613ZM64.8638 174.965C64.4627 174.714 64.1422 174.589 63.9023 174.589C63.7126 174.589 63.5389 174.644 63.3813 174.755C63.2274 174.866 63.1504 175.028 63.1504 175.239C63.1504 175.429 63.213 175.591 63.3384 175.728C63.4637 175.864 63.6248 175.932 63.8218 175.932C64.1297 175.932 64.477 175.751 64.8638 175.389V174.965ZM67.834 172.892V171.688H70.353V172.113C70.9188 171.776 71.4809 171.608 72.0395 171.608C72.7091 171.608 73.2283 171.846 73.5972 172.322C74.2668 171.846 74.9668 171.608 75.6973 171.608C76.1305 171.608 76.4814 171.688 76.75 171.85C77.0221 172.007 77.2083 172.22 77.3086 172.489C77.4088 172.757 77.459 173.164 77.459 173.708V175.69H78.3184V176.888H75.7993V173.842C75.7993 173.298 75.5648 173.026 75.0957 173.026C74.7269 173.026 74.3276 173.144 73.8979 173.38V175.69H74.7573V176.888H72.2383V173.891C72.2383 173.314 72.0127 173.026 71.5615 173.026C71.2106 173.026 70.8078 173.144 70.353 173.38V175.69H71.2124V176.888H67.834V175.69H68.6934V172.892H67.834ZM79.602 170.201C79.602 169.95 79.6898 169.735 79.8652 169.556C80.0443 169.377 80.2591 169.288 80.5098 169.288C80.764 169.288 80.9788 169.377 81.1543 169.556C81.3297 169.735 81.4175 169.95 81.4175 170.201C81.4175 170.451 81.328 170.666 81.1489 170.845C80.9735 171.021 80.7604 171.108 80.5098 171.108C80.2627 171.108 80.0496 171.019 79.8706 170.84C79.6916 170.661 79.602 170.448 79.602 170.201ZM78.8716 172.892V171.688H81.3208V175.69H82.0942V176.888H78.8716V175.69H79.6611V172.892H78.8716ZM82.7012 172.892V171.688H85.1558V172.172C85.6571 171.796 86.1655 171.608 86.6811 171.608C87.7303 171.608 88.2549 172.278 88.2549 173.617V175.69H89.0391V176.888H86.5952V173.74C86.5952 173.457 86.5558 173.264 86.477 173.16C86.4018 173.056 86.2765 173.004 86.1011 173.004C85.7931 173.004 85.478 173.117 85.1558 173.343V175.69H85.956V176.888H82.7012V175.69H83.4961V172.892H82.7012ZM98.6533 169.417H99.9155V172.048H98.6533C98.2952 171.103 97.674 170.63 96.7895 170.63C96.0591 170.63 95.5059 170.879 95.1299 171.377C94.7575 171.875 94.5713 172.471 94.5713 173.166C94.5713 173.892 94.7682 174.481 95.1621 174.933C95.5596 175.38 96.0644 175.604 96.6768 175.604C97.1781 175.604 97.6167 175.434 97.9927 175.094C98.3686 174.754 98.6229 174.281 98.7554 173.676L100.227 174.379C99.6684 176.112 98.4385 176.979 96.5371 176.979C95.1943 176.979 94.181 176.617 93.4971 175.894C92.8167 175.171 92.4766 174.256 92.4766 173.149C92.4766 172.362 92.6538 171.672 93.0083 171.082C93.3628 170.491 93.839 170.047 94.437 169.75C95.0386 169.449 95.6974 169.298 96.4136 169.298C97.3052 169.298 98.0518 169.531 98.6533 169.997V169.417Z" fill="black"/>
</svg>
